<?xml version="1.0" encoding="UTF-8"?>
<svg version="1.1" xmlns="http://www.w3.org/2000/svg" width="728" height="725">
<path d="M0 0 C8.43895925 6.12595547 14.41789079 14.35027933 17.0748291 24.50463867 C17.72385922 28.63228588 17.70876672 32.69844179 17.72851562 36.87109375 C17.73680893 37.81344879 17.74510223 38.75580383 17.75364685 39.72671509 C17.77102565 41.77226092 17.78619836 43.81782642 17.79942322 45.86340332 C17.82056476 49.12090004 17.84758926 52.37830214 17.87609863 55.63574219 C17.93573909 62.57613431 17.98774162 69.51657338 18.0390625 76.45703125 C18.09870799 84.45176183 18.16160854 92.44644829 18.23094177 100.44110107 C18.25704606 103.61387693 18.278156 106.78665826 18.2989502 109.95947266 C18.39901338 122.81418568 18.8258521 135.62174514 19.5390625 148.45703125 C19.91132462 147.56809677 20.28358673 146.67916229 20.66712952 145.76329041 C21.10568771 144.71605301 21.54424591 143.66881561 21.99609375 142.58984375 C22.27589584 141.92163101 22.55569794 141.25341827 22.84397888 140.56495667 C24.26989883 137.16066987 25.69789213 133.75727074 27.12915039 130.35522461 C29.9934413 123.54447384 32.84402194 116.72949154 35.640625 109.890625 C36.12039795 108.72837402 36.6001709 107.56612305 37.09448242 106.36865234 C37.99176152 104.19432366 38.880464 102.01642847 39.7590332 99.83447266 C44.83694038 87.60327909 52.1451542 78.6128971 64.5390625 73.45703125 C73.9793468 69.82615267 84.31430625 70.5457346 93.5390625 74.45703125 C105.05502547 80.0158645 111.13681767 87.95141917 115.7890625 99.58203125 C117.8775811 110.37271067 116.61141755 119.28749683 112.40869141 129.36132812 C111.38628939 131.82519644 110.40552249 134.30402183 109.42578125 136.78515625 C107.4867403 141.6852815 105.52103342 146.57412861 103.5390625 151.45703125 C104.1578125 150.63203125 104.7765625 149.80703125 105.4140625 148.95703125 C106.1153125 148.13203125 106.8165625 147.30703125 107.5390625 146.45703125 C108.1990625 146.45703125 108.8590625 146.45703125 109.5390625 146.45703125 C109.8071875 145.81765625 110.0753125 145.17828125 110.3515625 144.51953125 C111.5390625 142.45703125 111.5390625 142.45703125 114.5390625 141.45703125 C115.24587147 140.14453618 115.90878886 138.80794848 116.5390625 137.45703125 C117.91291046 135.82312107 117.91291046 135.82312107 119.52160645 134.20033264 C120.13255157 133.57941238 120.7434967 132.95849213 121.37295532 132.3187561 C122.04200897 131.64903778 122.71106262 130.97931946 123.40039062 130.28930664 C124.10638397 129.57498978 124.81237732 128.86067291 125.5397644 128.12471008 C127.87781705 125.76254465 130.22347527 123.40812368 132.5703125 121.0546875 C134.20267208 119.41335994 135.83495451 117.77195563 137.46716309 116.13047791 C140.89332421 112.68781888 144.32386327 109.24958658 147.75683594 105.8137207 C152.14214946 101.42303427 156.51110147 97.01644898 160.8761673 92.60564518 C164.2444308 89.20754375 167.62398664 85.8208449 171.00669861 82.43713188 C172.62143158 80.81820717 174.23206483 79.19518208 175.83839417 77.56791878 C178.09470207 75.28457053 180.36649771 73.0177672 182.64257812 70.75415039 C183.62186783 69.75260925 183.62186783 69.75260925 184.62094116 68.73083496 C192.75707629 60.720095 202.15608021 57.05243305 213.4140625 56.14453125 C223.69481146 56.49130254 233.30841482 60.57870699 240.80078125 67.56640625 C248.36751994 75.67862148 252.44080544 84.20343785 252.57421875 95.41015625 C251.79816356 110.17413305 244.65963977 119.71711225 234.41796875 129.73828125 C233.75498276 130.39606567 233.09199677 131.0538501 232.40892029 131.73156738 C230.31124152 133.81161419 228.20694814 135.88478796 226.1015625 137.95703125 C224.00063021 140.03013181 221.90127322 142.10476756 219.80491638 144.18249512 C218.50769007 145.46768921 217.20780427 146.75020716 215.90467834 148.02941895 C212.12147117 151.77149776 208.5522343 155.64014614 205.08384705 159.67614746 C199.47155666 166.14619986 199.47155666 166.14619986 195.5390625 167.45703125 C195.2296875 168.09640625 194.9203125 168.73578125 194.6015625 169.39453125 C193.28122032 171.95754843 192.0575951 172.19776495 189.5390625 173.45703125 C188.85638112 174.78223628 188.1883584 176.11515307 187.5390625 177.45703125 C186.5490625 177.78703125 185.5590625 178.11703125 184.5390625 178.45703125 C183.87156557 179.78994913 183.20509956 181.1233833 182.5390625 182.45703125 C180.84812126 184.32552166 179.14675796 186.10227082 177.35498047 187.86816406 C176.82799561 188.39544098 176.30101074 188.9227179 175.75805664 189.4659729 C174.02048774 191.20215197 172.27594936 192.93114525 170.53125 194.66015625 C169.32297928 195.86469562 168.11515028 197.06967822 166.90774536 198.27508545 C163.73269173 201.44251231 160.55167728 204.60388638 157.36938477 207.76403809 C154.12154174 210.99140214 150.87937117 214.22445353 147.63671875 217.45703125 C141.27637268 223.79594428 134.90971497 230.12847749 128.5390625 236.45703125 C149.2138503 230.59515546 169.84863885 224.63116748 190.4140625 218.39453125 C194.72314847 217.08844888 199.03317989 215.78554946 203.34375 214.484375 C204.78087845 214.04701271 204.78087845 214.04701271 206.24703979 213.60081482 C207.13473053 213.33285599 208.02242126 213.06489716 208.93701172 212.78881836 C209.70858612 212.55472763 210.48016052 212.3206369 211.27511597 212.07945251 C221.81510633 209.18171883 232.7135387 209.80487561 242.43359375 215.08203125 C252.2818989 221.51357747 259.14861404 229.86093754 261.9765625 241.39453125 C263.72100141 252.74237612 261.35162464 263.35400235 254.7265625 272.70703125 C246.32805518 283.14728095 236.10476083 286.8381835 223.4765625 290.26953125 C210.75926478 293.77289865 198.14732592 297.58144243 185.5390625 301.45703125 C186.19002396 301.46733871 186.84098541 301.47764618 187.51167297 301.48826599 C190.70439887 301.53890795 193.89712146 301.589756 197.08984375 301.640625 C198.30662308 301.65995087 199.5234024 301.67927673 200.77705383 301.69918823 C207.57133883 301.80773983 214.36554255 301.91971537 221.15966797 302.0378418 C223.9775364 302.08658098 226.79540806 302.13513025 229.61328125 302.18359375 C230.32072983 302.19581026 231.02817841 302.20802677 231.75706482 302.22061348 C240.48922102 302.37038702 249.22081711 302.49247406 257.95396423 302.57157898 C262.59814133 302.6152423 267.24208477 302.67306698 271.88607788 302.73294067 C274.05416379 302.75714198 276.222337 302.77456612 278.39053345 302.78488159 C294.01811672 302.86284701 306.55621032 303.61315149 318.22265625 315.1171875 C325.93275835 323.55792271 329.05064516 333.3417412 328.78515625 344.6640625 C327.88948035 354.82927308 323.25396195 364.30229176 315.7890625 371.26953125 C308.660758 377.05700304 300.95725461 380.58774268 291.72380066 380.57728577 C290.78295624 380.57866043 289.84211182 380.5800351 288.87275696 380.58145142 C287.85280136 380.57785614 286.83284576 380.57426086 285.78198242 380.57055664 C284.15691772 380.57077568 284.15691772 380.57077568 282.49902344 380.57099915 C278.92250559 380.57030317 275.34603999 380.56252545 271.76953125 380.5546875 C269.28803028 380.5528222 266.80652894 380.55139883 264.32502747 380.55039978 C257.79679343 380.5465834 251.26858168 380.53676059 244.74035645 380.5256958 C238.07755961 380.51492204 231.4147563 380.51089811 224.75195312 380.50585938 C211.68098008 380.49513756 198.61002248 380.47826414 185.5390625 380.45703125 C189.13364821 382.32292516 192.6989722 383.50190064 196.5859375 384.6640625 C197.27480042 384.87133469 197.96366333 385.07860687 198.67340088 385.29216003 C200.87761035 385.95471143 203.08325194 386.61233216 205.2890625 387.26953125 C213.96663298 389.86731894 222.6439625 392.46654892 231.30078125 395.1328125 C232.28174774 395.43056328 232.28174774 395.43056328 233.28253174 395.73432922 C244.348147 399.16542899 251.98664039 404.72549797 257.8515625 414.76953125 C262.86151104 424.60189015 263.76664771 434.47004177 260.78515625 445.16015625 C257.05044751 455.3485667 250.24087093 463.53859495 240.6640625 468.70703125 C229.83295696 473.71563497 219.61083765 473.18112269 208.4140625 469.83203125 C207.38853271 469.53570801 206.36300293 469.23938477 205.30639648 468.93408203 C201.37888698 467.7917048 197.45885603 466.62554285 193.5390625 465.45703125 C191.71666794 464.91525081 189.89423725 464.37359185 188.07177734 463.83203125 C179.90148341 461.40276209 171.73139573 458.97293459 163.56787109 456.52099609 C162.08955559 456.077901 162.08955559 456.077901 160.58137512 455.62585449 C158.7556345 455.07845611 156.93029598 454.52971334 155.10551453 453.97912598 C146.28767986 451.3377884 137.41237626 448.90383315 128.5390625 446.45703125 C129.24063477 447.15416229 129.94220703 447.85129333 130.66503906 448.56954956 C137.26307629 455.12711409 143.85587993 461.68989964 150.44354248 468.25788689 C153.83082038 471.63470963 157.21994101 475.00963954 160.61328125 478.38037109 C163.88550081 481.63092395 167.15286785 484.88628103 170.41687012 488.14508438 C171.66551673 489.39002411 172.91592759 490.63319681 174.16809082 491.87459946 C175.91618719 493.60826297 177.65801041 495.34799778 179.3984375 497.08935547 C179.92207886 497.60580627 180.44572021 498.12225708 180.98522949 498.65435791 C184.5390625 502.22892693 184.5390625 502.22892693 184.5390625 504.45703125 C185.498125 504.85921875 185.498125 504.85921875 186.4765625 505.26953125 C188.5390625 506.45703125 188.5390625 506.45703125 189.5390625 509.45703125 C190.1784375 509.76640625 190.8178125 510.07578125 191.4765625 510.39453125 C194.03957968 511.71487343 194.2797962 512.93849865 195.5390625 515.45703125 C196.13847656 515.73933594 196.73789062 516.02164063 197.35546875 516.3125 C200.05334283 517.72659142 201.509739 519.45218475 203.4765625 521.76953125 C207.9655905 527.02606702 212.88293462 531.8012477 217.83055115 536.62026978 C220.64915141 539.37140729 223.45407506 542.1363236 226.25854492 544.90185547 C227.73094951 546.34913923 229.20781361 547.79190074 230.68920898 549.22998047 C251.47679497 569.42707582 251.47679497 569.42707582 252.5390625 584.45703125 C252.64740736 596.11184219 249.35258425 605.76284878 241.5390625 614.45703125 C233.69383911 622.43147009 224.76183998 625.86500031 213.7265625 626.76953125 C199.74553702 626.29607023 190.24108348 619.64165112 180.72436523 610.01464844 C180.00128677 609.29522064 179.27820831 608.57579285 178.53321838 607.83456421 C176.17227017 605.48164846 173.82224785 603.11815827 171.47265625 600.75390625 C169.82693243 599.10766332 168.18068906 597.46193962 166.53395081 595.81671143 C163.09918522 592.38185647 159.6696165 588.94192287 156.24389648 585.49804688 C151.84387972 581.07522786 147.43274935 576.66369319 143.01795864 572.25562668 C139.62480535 568.8658051 136.23663996 565.47103489 132.8500843 562.07462311 C131.22424138 560.44492282 129.59703792 558.81657871 127.96847343 557.18959808 C125.70374168 554.92523511 123.44558741 552.65451872 121.18920898 550.38183594 C120.51139374 549.70649811 119.83357849 549.03116028 119.13522339 548.33535767 C118.52558243 547.7186319 117.91594147 547.10190613 117.28782654 546.4664917 C116.75381446 545.93042675 116.21980238 545.3943618 115.66960812 544.84205246 C114.5390625 543.45703125 114.5390625 543.45703125 114.5390625 541.45703125 C113.8996875 541.18890625 113.2603125 540.92078125 112.6015625 540.64453125 C110.5390625 539.45703125 110.5390625 539.45703125 109.5390625 536.45703125 C107.60575647 535.3653685 107.60575647 535.3653685 105.5390625 534.45703125 C104.8790625 533.79703125 104.2190625 533.13703125 103.5390625 532.45703125 C103.89734131 533.31458008 104.25562012 534.17212891 104.62475586 535.05566406 C105.9557964 538.24532199 107.28429029 541.43601587 108.61108398 544.62744141 C109.18526507 546.00709571 109.76045075 547.38633239 110.33666992 548.76513672 C111.16591176 550.74987949 111.99149999 552.73610827 112.81640625 554.72265625 C113.56265259 556.51364746 113.56265259 556.51364746 114.32397461 558.34082031 C118.16194884 568.18367809 117.5885347 578.88675539 113.86328125 588.703125 C108.94544657 598.93048031 100.95141843 605.26008727 90.71484375 609.6953125 C80.33221357 613.33016508 69.3689082 612.07964195 59.5390625 607.45703125 C49.16593479 601.0196371 43.81178385 592.84241675 39.1640625 581.76953125 C38.45407104 580.11763794 38.45407104 580.11763794 37.72973633 578.43237305 C34.48883163 570.84579691 31.35348985 563.21510656 28.35205078 555.53051758 C26.46360143 550.69837173 24.46811759 545.91839906 22.41723633 541.15307617 C22.13985878 540.50728355 21.86248123 539.86149094 21.5766983 539.19612885 C20.89800921 537.61620495 20.21860839 536.03658682 19.5390625 534.45703125 C18.81559528 552.24550337 18.44604247 570.0180929 18.328125 587.8203125 C18.31381603 589.78628625 18.29939071 591.75225915 18.28485107 593.7182312 C18.22657204 601.796576 18.17065576 609.87487596 18.13769531 617.95336914 C18.11669594 622.97537894 18.08141714 627.99711802 18.03693771 633.0189724 C18.02289576 634.90582292 18.01408235 636.79272069 18.01088333 638.67962074 C17.98333318 653.31595234 17.0447888 666.05500261 6.72265625 677.46484375 C-2.7657032 686.3206459 -12.72161206 688.97709055 -25.34765625 688.7265625 C-35.46784773 688.25569409 -43.43368667 683.58005381 -50.4609375 676.45703125 C-61.72864204 662.6429528 -60.87956018 647.31445461 -60.75390625 630.41015625 C-60.74830213 628.18528532 -60.7440359 625.96041065 -60.74104309 623.73553467 C-60.72965855 617.91586863 -60.70024705 612.09643176 -60.66693115 606.27685547 C-60.6360917 600.32392475 -60.62250824 594.37095655 -60.60742188 588.41796875 C-60.57537068 576.76422294 -60.5242526 565.11064625 -60.4609375 553.45703125 C-60.88391113 554.50044678 -61.30688477 555.5438623 -61.74267578 556.61889648 C-63.33174589 560.53124894 -64.93399144 564.4380957 -66.54003906 568.34350586 C-67.23010474 570.02662823 -67.91670599 571.71117571 -68.59960938 573.3972168 C-74.53500109 588.04045294 -80.26842949 601.79580423 -95.54296875 608.6796875 C-104.8410511 612.44815672 -114.50107697 612.77704732 -124.01953125 609.4921875 C-135.15099476 604.77244697 -142.87980292 597.71419109 -147.4609375 586.45703125 C-151.8996806 575.3601735 -149.77885777 564.21517947 -145.33056641 553.55273438 C-144.30816439 551.08886606 -143.32739749 548.61004067 -142.34765625 546.12890625 C-140.4086153 541.228781 -138.44290842 536.33993389 -136.4609375 531.45703125 C-137.0796875 532.28203125 -137.6984375 533.10703125 -138.3359375 533.95703125 C-139.0371875 534.78203125 -139.7384375 535.60703125 -140.4609375 536.45703125 C-141.1209375 536.45703125 -141.7809375 536.45703125 -142.4609375 536.45703125 C-142.863125 537.41609375 -142.863125 537.41609375 -143.2734375 538.39453125 C-144.4609375 540.45703125 -144.4609375 540.45703125 -147.4609375 541.45703125 C-148.16774647 542.76952632 -148.83066386 544.10611402 -149.4609375 545.45703125 C-150.83478546 547.09094143 -150.83478546 547.09094143 -152.44348145 548.71372986 C-153.05442657 549.33465012 -153.6653717 549.95557037 -154.29483032 550.5953064 C-154.96388397 551.26502472 -155.63293762 551.93474304 -156.32226562 552.62475586 C-157.38125565 553.69623116 -157.38125565 553.69623116 -158.4616394 554.78935242 C-160.79969205 557.15151785 -163.14535027 559.50593882 -165.4921875 561.859375 C-167.12454708 563.50070256 -168.75682951 565.14210687 -170.38903809 566.78358459 C-173.81519921 570.22624362 -177.24573827 573.66447592 -180.67871094 577.1003418 C-185.06402446 581.49102823 -189.43297647 585.89761352 -193.7980423 590.30841732 C-197.1663058 593.70651875 -200.54586164 597.0932176 -203.92857361 600.47693062 C-205.54330658 602.09585533 -207.15393983 603.71888042 -208.76026917 605.34614372 C-211.01657707 607.62949197 -213.28837271 609.8962953 -215.56445312 612.15991211 C-216.54374283 613.16145325 -216.54374283 613.16145325 -217.54281616 614.18322754 C-225.67895129 622.1939675 -235.07795521 625.86162945 -246.3359375 626.76953125 C-256.61668646 626.42275996 -266.23028982 622.33535551 -273.72265625 615.34765625 C-281.28939494 607.23544102 -285.36268044 598.71062465 -285.49609375 587.50390625 C-284.72003856 572.73992945 -277.58151477 563.19695025 -267.33984375 553.17578125 C-266.67685776 552.51799683 -266.01387177 551.8602124 -265.33079529 551.18249512 C-263.23311652 549.10244831 -261.12882314 547.02927454 -259.0234375 544.95703125 C-256.92250521 542.88393069 -254.82314822 540.80929494 -252.72679138 538.73156738 C-251.42956507 537.44637329 -250.12967927 536.16385534 -248.82655334 534.88464355 C-245.04334617 531.14256474 -241.4741093 527.27391636 -238.00572205 523.23791504 C-232.39343166 516.76786264 -232.39343166 516.76786264 -228.4609375 515.45703125 C-227.996875 514.49796875 -227.996875 514.49796875 -227.5234375 513.51953125 C-226.20309532 510.95651407 -224.9794701 510.71629755 -222.4609375 509.45703125 C-221.77825612 508.13182622 -221.1102334 506.79890943 -220.4609375 505.45703125 C-219.4709375 505.12703125 -218.4809375 504.79703125 -217.4609375 504.45703125 C-216.79344057 503.12411337 -216.12697456 501.7906792 -215.4609375 500.45703125 C-213.76999626 498.58854084 -212.06863296 496.81179168 -210.27685547 495.04589844 C-209.74987061 494.51862152 -209.22288574 493.9913446 -208.67993164 493.4480896 C-206.94236274 491.71191053 -205.19782436 489.98291725 -203.453125 488.25390625 C-202.24485428 487.04936688 -201.03702528 485.84438428 -199.82962036 484.63897705 C-196.65456673 481.47155019 -193.47355228 478.31017612 -190.29125977 475.15002441 C-187.04341674 471.92266036 -183.80124617 468.68960897 -180.55859375 465.45703125 C-174.19824768 459.11811822 -167.83158997 452.78558501 -161.4609375 446.45703125 C-182.1357253 452.31890704 -202.77051385 458.28289502 -223.3359375 464.51953125 C-227.64502347 465.82561362 -231.95505489 467.12851304 -236.265625 468.4296875 C-237.22371063 468.72126236 -238.18179626 469.01283722 -239.16891479 469.31324768 C-240.5004509 469.71518593 -240.5004509 469.71518593 -241.85888672 470.12524414 C-242.63046112 470.35933487 -243.40203552 470.5934256 -244.19699097 470.83460999 C-254.73698133 473.73234367 -265.6354137 473.10918689 -275.35546875 467.83203125 C-285.2037739 461.40048503 -292.07048904 453.05312496 -294.8984375 441.51953125 C-296.64287641 430.17168638 -294.27349964 419.56006015 -287.6484375 410.20703125 C-279.24849289 399.76499485 -269.02589373 396.08052673 -256.3984375 392.64453125 C-253.91228697 391.95221879 -251.42661704 391.25817833 -248.94140625 390.5625 C-247.69665527 390.21493652 -246.4519043 389.86737305 -245.16943359 389.50927734 C-239.49394275 387.89891753 -233.85083916 386.18731812 -228.2109375 384.45703125 C-226.72968384 384.00299927 -226.72968384 384.00299927 -225.21850586 383.53979492 C-222.96534217 382.84759089 -220.71276869 382.15355548 -218.4609375 381.45703125 C-221.2793138 380.51757248 -222.94316352 380.3389956 -225.85450745 380.35696411 C-227.20210899 380.36140533 -227.20210899 380.36140533 -228.57693481 380.36593628 C-229.5603183 380.37424469 -230.54370178 380.3825531 -231.55688477 380.39111328 C-232.59464554 380.39578613 -233.63240631 380.40045898 -234.70161438 380.40527344 C-236.95896503 380.41578678 -239.21630644 380.42845297 -241.47363472 380.44299698 C-245.05134872 380.46499132 -248.62900992 380.47909011 -252.20677185 380.49069214 C-262.38084151 380.52430482 -272.55482437 380.56574452 -282.72875977 380.62841797 C-288.95027889 380.66617617 -295.17170715 380.68912485 -301.3933239 380.70272446 C-303.76029931 380.71075635 -306.12726288 380.7243334 -308.49417305 380.74365616 C-311.81597045 380.7702875 -315.13733717 380.77804249 -318.45922852 380.78173828 C-319.42844238 380.79409515 -320.39765625 380.80645203 -321.39624023 380.81918335 C-333.42938003 380.78407457 -342.37432953 376.90786038 -351.24609375 368.83203125 C-358.78615563 360.80986822 -361.87990618 350.35700746 -361.734375 339.55859375 C-360.68996039 327.71194802 -355.62683455 319.11075077 -347.0859375 311.14453125 C-340.90041522 306.11792172 -333.46918752 303.38328086 -325.53955078 303.26757812 C-324.5510614 303.25082535 -323.56257202 303.23407257 -322.54412842 303.21681213 C-321.46737854 303.20327194 -320.39062866 303.18973175 -319.28125 303.17578125 C-318.14455872 303.15768906 -317.00786743 303.13959686 -315.83673096 303.12095642 C-312.08651798 303.06211112 -308.33624278 303.00963332 -304.5859375 302.95703125 C-301.99299316 302.91727547 -299.40005695 302.87698632 -296.80712891 302.83618164 C-292.78670353 302.77297557 -288.76627881 302.70992195 -284.74581909 302.64894104 C-271.64035238 302.44958 -258.53573983 302.20982127 -245.43109131 301.96240234 C-241.86178469 301.89501921 -238.29246681 301.8282668 -234.72314453 301.76171875 C-229.30240027 301.66061067 -223.88166483 301.55904303 -218.4609375 301.45703125 C-219.39268799 301.18847321 -219.39268799 301.18847321 -220.34326172 300.91448975 C-226.83524196 299.04165487 -233.32400148 297.15796198 -239.81103516 295.26806641 C-242.2291785 294.56510647 -244.64811694 293.86487543 -247.06787109 293.16748047 C-250.55521206 292.16187536 -254.03953162 291.14633951 -257.5234375 290.12890625 C-258.59770996 289.8214447 -259.67198242 289.51398315 -260.77880859 289.19720459 C-273.47683641 285.46403855 -284.09342502 279.84505274 -290.9609375 268.01953125 C-295.7723481 258.20588924 -296.65985664 248.34123873 -293.70703125 237.75390625 C-289.97232251 227.5654958 -283.16274593 219.37546755 -273.5859375 214.20703125 C-262.75483196 209.19842753 -252.53271265 209.73293981 -241.3359375 213.08203125 C-240.31040771 213.37835449 -239.28487793 213.67467773 -238.22827148 213.97998047 C-234.30076198 215.1223577 -230.38073103 216.28851965 -226.4609375 217.45703125 C-224.63854294 217.99881169 -222.81611225 218.54047065 -220.99365234 219.08203125 C-212.82335841 221.51130041 -204.65327073 223.94112791 -196.48974609 226.39306641 C-195.50420242 226.68846313 -194.51865875 226.98385986 -193.50325012 227.28820801 C-191.6775095 227.83560639 -189.85217098 228.38434916 -188.02738953 228.93493652 C-179.20955486 231.5762741 -170.33425126 234.01022935 -161.4609375 236.45703125 C-162.16250977 235.75990021 -162.86408203 235.06276917 -163.58691406 234.34451294 C-170.18495129 227.78694841 -176.77775493 221.22416286 -183.36541748 214.65617561 C-186.75269538 211.27935287 -190.14181601 207.90442296 -193.53515625 204.53369141 C-196.80737581 201.28313855 -200.07474285 198.02778147 -203.33874512 194.76897812 C-204.58739173 193.52403839 -205.83780259 192.28086569 -207.08996582 191.03946304 C-208.83806219 189.30579953 -210.57988541 187.56606472 -212.3203125 185.82470703 C-212.84395386 185.30825623 -213.36759521 184.79180542 -213.90710449 184.25970459 C-217.4609375 180.68513557 -217.4609375 180.68513557 -217.4609375 178.45703125 C-218.1003125 178.18890625 -218.7396875 177.92078125 -219.3984375 177.64453125 C-221.4609375 176.45703125 -221.4609375 176.45703125 -222.4609375 173.45703125 C-223.1003125 173.14765625 -223.7396875 172.83828125 -224.3984375 172.51953125 C-226.96145468 171.19918907 -227.2016712 169.97556385 -228.4609375 167.45703125 C-229.06035156 167.17472656 -229.65976563 166.89242187 -230.27734375 166.6015625 C-232.97521783 165.18747108 -234.431614 163.46187775 -236.3984375 161.14453125 C-240.8874655 155.88799548 -245.80480962 151.1128148 -250.75242615 146.29379272 C-253.57102641 143.54265521 -256.37595006 140.7777389 -259.18041992 138.01220703 C-260.65282451 136.56492327 -262.12968861 135.12216176 -263.61108398 133.68408203 C-284.39866997 113.48698668 -284.39866997 113.48698668 -285.4609375 98.45703125 C-285.56928236 86.80222031 -282.27445925 77.15121372 -274.4609375 68.45703125 C-266.61571411 60.48259241 -257.68371498 57.04906219 -246.6484375 56.14453125 C-232.66741202 56.61799227 -223.16295848 63.27241138 -213.64624023 72.89941406 C-212.92316177 73.61884186 -212.20008331 74.33826965 -211.45509338 75.07949829 C-209.09414517 77.43241404 -206.74412285 79.79590423 -204.39453125 82.16015625 C-202.74880743 83.80639918 -201.10256406 85.45212288 -199.45582581 87.09735107 C-196.02106022 90.53220603 -192.5914915 93.97213963 -189.16577148 97.41601562 C-184.76575472 101.83883464 -180.35462435 106.25036931 -175.93983364 110.65843582 C-172.54668035 114.0482574 -169.15851496 117.44302761 -165.7719593 120.83943939 C-164.14611638 122.46913968 -162.51891292 124.09748379 -160.89034843 125.72446442 C-158.62561668 127.98882739 -156.36746241 130.25954378 -154.11108398 132.53222656 C-153.43326874 133.20756439 -152.75545349 133.88290222 -152.05709839 134.57870483 C-151.14263695 135.50379349 -151.14263695 135.50379349 -150.20970154 136.4475708 C-149.40868342 137.25166822 -149.40868342 137.25166822 -148.59148312 138.07201004 C-147.4609375 139.45703125 -147.4609375 139.45703125 -147.4609375 141.45703125 C-146.8215625 141.72515625 -146.1821875 141.99328125 -145.5234375 142.26953125 C-143.4609375 143.45703125 -143.4609375 143.45703125 -142.4609375 146.45703125 C-140.52763147 147.548694 -140.52763147 147.548694 -138.4609375 148.45703125 C-137.8009375 149.11703125 -137.1409375 149.77703125 -136.4609375 150.45703125 C-136.81921631 149.59948242 -137.17749512 148.74193359 -137.54663086 147.85839844 C-138.8776714 144.66874051 -140.20616529 141.47804663 -141.53295898 138.28662109 C-142.10714007 136.90696679 -142.68232575 135.52773011 -143.25854492 134.14892578 C-144.08778676 132.16418301 -144.91337499 130.17795423 -145.73828125 128.19140625 C-146.23577881 126.99741211 -146.73327637 125.80341797 -147.24584961 124.57324219 C-151.08382384 114.73038441 -150.5104097 104.02730711 -146.78515625 94.2109375 C-141.86732157 83.98358219 -133.87329343 77.65397523 -123.63671875 73.21875 C-113.25408857 69.58389742 -102.2907832 70.83442055 -92.4609375 75.45703125 C-81.95890549 81.97442132 -76.66344886 90.24960505 -71.9609375 101.45703125 C-71.51363281 102.49214844 -71.06632812 103.52726562 -70.60546875 104.59375 C-68.07636309 110.48533424 -65.66116944 116.41974917 -63.28710938 122.375 C-62.87667389 123.40288635 -62.87667389 123.40288635 -62.45794678 124.45153809 C-61.79185236 126.11986632 -61.12633404 127.78842455 -60.4609375 129.45703125 C-60.47093025 127.61779083 -60.47093025 127.61779083 -60.48112488 125.74139404 C-60.54211372 114.14883806 -60.58699525 102.55631491 -60.61637402 90.96363449 C-60.631986 85.00465931 -60.65314236 79.04581433 -60.68725586 73.08691406 C-60.72000896 67.32918275 -60.73782407 61.57157618 -60.74556923 55.81375885 C-60.7510842 53.62428069 -60.76185312 51.43480884 -60.77812767 49.24538422 C-60.99125553 19.36708217 -60.99125553 19.36708217 -50.4609375 6.45703125 C-36.9648405 -7.22299892 -16.51715941 -10.35599677 0 0 Z M-215.4609375 379.45703125 C-211.4609375 380.45703125 -211.4609375 380.45703125 -211.4609375 380.45703125 Z M178.5390625 379.45703125 C182.5390625 380.45703125 182.5390625 380.45703125 182.5390625 380.45703125 Z " fill="#FEFEFD" transform="translate(375.4609375,33.54296875)"/>
<path d="M0 0 C2.22700655 -0.00216846 4.45350181 -0.02031952 6.68041992 -0.03930664 C19.8123135 -0.09386385 32.4872219 0.77272887 44.8815918 5.49780273 C45.73035889 5.80975586 46.57912598 6.12170898 47.45361328 6.44311523 C49.87392223 7.34026093 52.2845169 8.25979499 54.6940918 9.18530273 C55.86713867 9.62229492 57.04018555 10.05928711 58.2487793 10.50952148 C65.30678192 13.26855887 71.46878676 16.88304452 77.6940918 21.18530273 C79.07081055 22.13083008 79.07081055 22.13083008 80.4753418 23.09545898 C86.97996025 27.69071612 92.92086446 32.7051777 98.6940918 38.18530273 C99.61448242 39.0528418 100.53487305 39.92038086 101.4831543 40.81420898 C107.67876635 46.81354132 112.9015301 53.02189842 117.6940918 60.18530273 C118.6202832 61.54655273 118.6202832 61.54655273 119.56518555 62.93530273 C123.63587874 69.09824469 126.91731397 75.34449907 129.6940918 82.18530273 C130.30897461 83.68577148 130.30897461 83.68577148 130.9362793 85.21655273 C132.32351539 88.8354295 133.55258003 92.48335854 134.6940918 96.18530273 C135.04334717 97.30316162 135.04334717 97.30316162 135.3996582 98.44360352 C139.04581461 110.60322614 140.15660838 122.42782807 140.1315918 135.06030273 C140.13172272 135.75379822 140.13185364 136.4472937 140.13198853 137.1618042 C140.1070229 144.51434417 139.76689044 151.13311185 137.6940918 158.18530273 C137.32974403 160.74637497 136.97598708 163.30897119 136.6315918 165.87280273 C131.93079747 195.24454909 111.23451224 225.92019414 87.45581055 243.40405273 C83.60744555 246.11425605 79.67827336 248.68037099 75.6940918 251.18530273 C75.04424316 251.60521484 74.39439453 252.02512695 73.72485352 252.45776367 C66.46585404 257.10366487 59.21389996 260.56114274 51.0065918 263.18530273 C50.22348633 263.43948975 49.44038086 263.69367676 48.63354492 263.95556641 C47.05784104 264.46528664 45.48119566 264.97210675 43.90356445 265.47583008 C41.92669226 266.11061357 39.9563853 266.76575896 37.98706055 267.42358398 C36.90038086 267.77807617 35.81370117 268.13256836 34.6940918 268.49780273 C33.7659668 268.80331055 32.8378418 269.10881836 31.8815918 269.42358398 C23.0492314 271.53425834 13.96039804 271.37165611 4.92700195 271.37060547 C2.82962723 271.37279175 0.73278033 271.39101546 -1.36450195 271.40991211 C-13.20629294 271.45937249 -24.04827929 269.8625798 -35.3059082 266.18530273 C-36.39129883 265.87077148 -37.47668945 265.55624023 -38.5949707 265.23217773 C-54.27192718 260.46530874 -68.74549377 252.72407073 -81.3059082 242.18530273 C-82.13993164 241.49049805 -82.97395508 240.79569336 -83.83325195 240.07983398 C-93.35303615 231.82333868 -101.89949415 222.71454999 -108.9309082 212.24780273 C-109.34469727 211.63340332 -109.75848633 211.01900391 -110.18481445 210.38598633 C-112.52533506 206.77374346 -114.13081562 203.32339759 -115.3059082 199.18530273 C-115.9659082 199.18530273 -116.6259082 199.18530273 -117.3059082 199.18530273 C-118.29275701 196.81324412 -119.27048371 194.43806786 -120.2434082 192.06030273 C-120.66009766 191.06256836 -120.66009766 191.06256836 -121.08520508 190.04467773 C-122.69146196 186.09676925 -123.7811247 182.44999904 -124.3059082 178.18530273 C-124.9659082 178.18530273 -125.6259082 178.18530273 -126.3059082 178.18530273 C-130.24079243 163.86232414 -131.72067216 149.90937008 -131.6809082 135.12280273 C-131.68036438 134.35794556 -131.67982056 133.59308838 -131.67926025 132.80505371 C-131.61943225 114.4440798 -129.13898358 97.91960013 -121.3059082 81.18530273 C-121.0284375 80.58637207 -120.7509668 79.98744141 -120.46508789 79.37036133 C-108.57241064 53.90644037 -90.70681051 34.42086063 -67.3059082 19.18530273 C-66.26305664 18.49952148 -65.22020508 17.81374023 -64.14575195 17.10717773 C-57.92389886 13.18530273 -57.92389886 13.18530273 -53.3059082 13.18530273 C-53.3059082 12.52530273 -53.3059082 11.86530273 -53.3059082 11.18530273 C-48.31222209 9.49921619 -43.31182297 7.8346375 -38.3059082 6.18530273 C-37.24073975 5.83314697 -37.24073975 5.83314697 -36.15405273 5.47387695 C-34.0614577 4.78595977 -31.96557385 4.10914203 -29.8684082 3.43530273 C-28.91321289 3.1197644 -28.91321289 3.1197644 -27.9387207 2.79785156 C-18.76685243 -0.11602811 -9.52364737 -0.00103372 0 0 Z " fill="#F9D277" transform="translate(352.305908203125,232.814697265625)"/>
<path d="M0 0 C5.76004093 4.58185074 10.63260202 9.83001542 15.57421875 15.25390625 C19.25565201 19.29413692 22.99917627 23.27425433 26.75 27.25 C27.76102783 28.32266113 27.76102783 28.32266113 28.79248047 29.41699219 C30.17182805 30.88024328 31.55138659 32.34329555 32.93115234 33.80615234 C36.31041013 37.38958525 39.68659457 40.97590911 43.0625 44.5625 C43.72475586 45.26600586 44.38701172 45.96951172 45.06933594 46.69433594 C50.17200211 52.11638659 55.26517438 57.54727795 60.35571289 62.98071289 C64.89710168 67.826805 69.44684812 72.66496012 74 77.5 C84.59779042 88.75517698 95.17991572 100.02513317 105.71337891 111.34057617 C108.79342778 114.64698378 111.88713602 117.93928914 115 121.21484375 C115.66773438 121.91996094 116.33546875 122.62507812 117.0234375 123.3515625 C118.29608372 124.69463183 119.57188523 126.03472191 120.8515625 127.37109375 C128.23131106 135.17347108 134.6423418 142.09694701 134.375 153.30859375 C133.36568795 160.55251041 129.51603379 166.50310286 123.73828125 170.8828125 C117.93820217 174.61050377 111.69324232 174.6066974 105 174 C93.57298027 170.70746889 85.65654462 159.48638354 77.88525391 151.04248047 C74.8174762 147.71885598 71.72105024 144.42226703 68.625 141.125 C68.0055249 140.46443604 67.3860498 139.80387207 66.74780273 139.12329102 C61.49931309 133.52746988 56.24063269 127.94126195 50.98095703 122.35595703 C46.48103445 117.57649546 41.98821005 112.79046036 37.5 108 C32.0880638 102.22471571 26.6718704 96.45346009 21.25 90.6875 C20.57001953 89.96369141 19.89003906 89.23988281 19.18945312 88.49414062 C18.55458984 87.81931641 17.91972656 87.14449219 17.265625 86.44921875 C16.70649414 85.85455811 16.14736328 85.25989746 15.57128906 84.6472168 C14.51164437 83.53636802 13.41818605 82.45694586 12.29589844 81.40942383 C11 80 11 80 11 78 C10.34 78 9.68 78 9 78 C7.53491211 76.52905273 7.53491211 76.52905273 5.83984375 74.49609375 C2.20574517 70.22394017 -1.57993471 66.13270607 -5.4375 62.0625 C-6.83730528 60.58079122 -8.23704275 59.09901839 -9.63671875 57.6171875 C-10.35134277 56.86147461 -11.0659668 56.10576172 -11.80224609 55.32714844 C-14.0243138 52.9742547 -16.24148465 50.61684675 -18.45703125 48.2578125 C-19.17640869 47.49202881 -19.89578613 46.72624512 -20.63696289 45.93725586 C-22.01539358 44.46963728 -23.39350129 43.00171525 -24.77124023 41.53344727 C-25.39844971 40.86627686 -26.02565918 40.19910645 -26.671875 39.51171875 C-27.25130859 38.89474121 -27.83074219 38.27776367 -28.42773438 37.64208984 C-29.73554535 36.27619907 -31.08908392 34.95427133 -32.453125 33.64453125 C-34 32 -34 32 -34 30 C-32.42283761 28.74966403 -30.78498678 27.57557958 -29.125 26.4375 C-24.16399969 22.92585242 -19.67087652 19.14571552 -15.2109375 15.0234375 C-13.45334623 13.41489991 -11.68124862 11.91074626 -9.8125 10.4375 C-6.15753221 7.26986125 -3.10301729 3.69975138 0 0 Z " fill="#F9D277" transform="translate(477,469)"/>
<path d="M0 0 C4.1873129 3.30540786 7.95948757 6.77121086 11.56640625 10.7109375 C18.09628691 17.62161034 26.44601556 24.72300778 35 29 C34.45354896 32.91329453 32.70064387 34.58718985 29.875 37.25 C26.94734074 40.07606856 24.13905438 42.90251833 21.5 46 C18.95308392 48.97140209 16.28621141 51.7514401 13.5 54.5 C8.7439787 59.19959393 4.38683042 64.1659427 0.08203125 69.27734375 C-0.54316406 70.01082031 -1.16835937 70.74429688 -1.8125 71.5 C-2.37582031 72.1703125 -2.93914062 72.840625 -3.51953125 73.53125 C-5 75 -5 75 -7 75 C-7.23332031 75.56203125 -7.46664062 76.1240625 -7.70703125 76.703125 C-9.31937076 79.56734142 -11.3193562 81.47252021 -13.6875 83.75 C-16.77090104 86.76713884 -19.76141526 89.78141718 -22.5625 93.0625 C-25.78950069 96.83619257 -29.27535734 100.29193457 -32.80859375 103.77734375 C-35.42101068 106.4270144 -37.83302621 109.21172803 -40.25390625 112.03515625 C-42.72603418 114.81699148 -45.38430547 117.39375951 -48.03515625 120.00390625 C-49.92230744 121.92107177 -51.68685375 123.89575322 -53.4375 125.9375 C-56.71130653 129.74824063 -60.23363971 133.25078165 -63.80859375 136.77734375 C-66.42101068 139.4270144 -68.83302621 142.21172803 -71.25390625 145.03515625 C-73.72305741 147.81364178 -76.37704868 150.38785131 -79.02734375 152.9921875 C-80.96890577 154.96835162 -82.76894492 157.01446315 -84.5625 159.125 C-90.11229772 165.53249373 -94.98323324 170.45534219 -103.76171875 171.25 C-111.42732055 171.55777824 -116.97993382 170.69955976 -122.71484375 165.421875 C-127.36255327 160.37643972 -130.08861713 155.11605359 -130.5 148.1875 C-130.01053149 136.59758484 -122.25841852 129.83522214 -114.39355469 122.36035156 C-112.56917074 120.57943577 -110.90174163 118.69098671 -109.25 116.75 C-106.32582373 113.31480264 -103.18589507 110.16761537 -99.97265625 107.00390625 C-97.42662171 104.41753849 -95.07978443 101.6846472 -92.71484375 98.93359375 C-90.49830603 96.43430862 -88.12837719 94.11718116 -85.74609375 91.77734375 C-83.93522357 89.93406426 -82.24678646 88.02177201 -80.5625 86.0625 C-78.14382221 83.25423653 -75.64100317 80.60029407 -73 78 C-70.40017817 75.44009866 -67.93731602 72.8322046 -65.5625 70.0625 C-62.28869347 66.25175937 -58.76636029 62.74921835 -55.19140625 59.22265625 C-52.57898932 56.5729856 -50.16697379 53.78827197 -47.74609375 50.96484375 C-45.27396582 48.18300852 -42.61569453 45.60624049 -39.96484375 42.99609375 C-38.07769256 41.07892823 -36.31314625 39.10424678 -34.5625 37.0625 C-31.35920142 33.33383127 -27.93339494 29.89060703 -24.40625 26.46875 C-21.79166512 23.78625383 -19.35406816 20.98673321 -16.89990234 18.15820312 C-13.70396095 14.52775826 -10.38148368 11.01766671 -7.0625 7.5 C-6.37865234 6.77296875 -5.69480469 6.0459375 -4.99023438 5.296875 C-3.32805493 3.53008286 -1.66463361 1.76447952 0 0 Z " fill="#F9D277" transform="translate(237,472)"/>
<path d="M0 0 C5.58152107 3.69925373 9.06150404 8.9613622 11.00390625 15.328125 C12.17343945 23.02105446 10.49973072 29.02277782 6.00390625 35.328125 C2.68857256 39.09362778 -0.96908724 42.51449278 -4.60253906 45.96777344 C-6.42692301 47.74868923 -8.09435212 49.63713829 -9.74609375 51.578125 C-12.67027002 55.01332236 -15.81019868 58.16050963 -19.0234375 61.32421875 C-21.56947204 63.91058651 -23.91630932 66.6434778 -26.28125 69.39453125 C-28.49778772 71.89381638 -30.86771656 74.21094384 -33.25 76.55078125 C-35.06087018 78.39406074 -36.74930729 80.30635299 -38.43359375 82.265625 C-40.85227154 85.07388847 -43.35509058 87.72783093 -45.99609375 90.328125 C-48.59591558 92.88802634 -51.05877773 95.4959204 -53.43359375 98.265625 C-56.70740028 102.07636563 -60.22973346 105.57890665 -63.8046875 109.10546875 C-66.41710443 111.7551394 -68.82911996 114.53985303 -71.25 117.36328125 C-73.72212793 120.14511648 -76.38039922 122.72188451 -79.03125 125.33203125 C-80.91840119 127.24919677 -82.6829475 129.22387822 -84.43359375 131.265625 C-87.70740028 135.07636563 -91.22973346 138.57890665 -94.8046875 142.10546875 C-97.41327786 144.75125826 -99.82232597 147.53107518 -102.23828125 150.3515625 C-104.76748434 153.19551087 -107.48678566 155.83229482 -110.203125 158.49609375 C-112.17695713 160.44892041 -112.17695713 160.44892041 -114.37109375 163.328125 C-114.90734375 163.988125 -115.44359375 164.648125 -115.99609375 165.328125 C-116.65609375 165.328125 -117.31609375 165.328125 -117.99609375 165.328125 C-119.26879883 163.83959961 -119.26879883 163.83959961 -120.703125 161.79296875 C-123.77825953 157.55895286 -127.10806481 153.70663111 -130.68359375 149.890625 C-131.28574707 149.24536865 -131.88790039 148.6001123 -132.50830078 147.93530273 C-137.62535284 142.54221872 -143.05131407 137.80490807 -148.99609375 133.328125 C-147.32866202 129.17470415 -144.33276631 126.21695732 -141.30859375 123.015625 C-140.49612183 122.14514526 -140.49612183 122.14514526 -139.66723633 121.25708008 C-136.37177091 117.74076672 -133.00701354 114.30813937 -129.5703125 110.9296875 C-125.8643041 107.15930674 -122.47563167 103.08376331 -119.0703125 99.04296875 C-118.13638672 97.94662109 -118.13638672 97.94662109 -117.18359375 96.828125 C-116.62027344 96.1578125 -116.05695313 95.4875 -115.4765625 94.796875 C-113.99609375 93.328125 -113.99609375 93.328125 -111.99609375 93.328125 C-111.76277344 92.76609375 -111.52945313 92.2040625 -111.2890625 91.625 C-109.67672299 88.76078358 -107.67673755 86.85560479 -105.30859375 84.578125 C-102.22519271 81.56098616 -99.23467849 78.54670782 -96.43359375 75.265625 C-93.20659306 71.49193243 -89.72073641 68.03619043 -86.1875 64.55078125 C-83.57508307 61.9011106 -81.16306754 59.11639697 -78.7421875 56.29296875 C-76.27005957 53.51113352 -73.61178828 50.93436549 -70.9609375 48.32421875 C-69.07378631 46.40705323 -67.30924 44.43237178 -65.55859375 42.390625 C-62.98944104 39.40010784 -60.30292119 36.59695816 -57.49609375 33.828125 C-52.74007245 29.12853107 -48.38292417 24.1621823 -44.078125 19.05078125 C-43.45292969 18.31730469 -42.82773437 17.58382812 -42.18359375 16.828125 C-41.62027344 16.1578125 -41.05695313 15.4875 -40.4765625 14.796875 C-38.99609375 13.328125 -38.99609375 13.328125 -36.99609375 13.328125 C-36.74472656 12.75191406 -36.49335937 12.17570312 -36.234375 11.58203125 C-32.99180336 5.67993712 -26.68953253 -0.25879666 -20.1796875 -2.21875 C-13.17186475 -3.67296724 -6.40515 -3.25413703 0 0 Z " fill="#F9D277" transform="translate(599.99609375,109.671875)"/>
<path d="M0 0 C8.04481523 4.10985126 13.88470025 11.93915662 19.6640625 18.6953125 C22.1219496 21.46745001 24.77123604 24.03050689 27.41015625 26.62890625 C29.29730744 28.54607177 31.06185375 30.52075322 32.8125 32.5625 C35.38165271 35.55301716 38.06817256 38.35616684 40.875 41.125 C44.3038279 44.50741399 47.49548518 48.00570442 50.62890625 51.66015625 C52.47115675 53.73320324 54.39901662 55.67935802 56.375 57.625 C58.97482183 60.18490134 61.43768398 62.7927954 63.8125 65.5625 C67.08390333 69.37044329 70.60336891 72.87064064 74.17578125 76.39453125 C76.82597714 79.08238534 79.28357916 81.90072584 81.734375 84.76953125 C83.35509509 86.60248849 85.05238411 88.30157041 86.8125 90 C89.375 92.625 89.375 92.625 89.375 94.625 C90.035 94.625 90.695 94.625 91.375 94.625 C92.8269043 96.08276367 92.8269043 96.08276367 94.51171875 98.10546875 C98.26701475 102.52112195 102.19706062 106.73466939 106.1875 110.9375 C112.32862754 117.43144301 118.40143075 123.9765323 124.375 130.625 C121.10270114 133.99163541 117.74214105 137.02467271 114.0625 139.9375 C105.71533082 146.71817631 98.93404775 154.11219334 92.375 162.625 C88.04228605 160.95938247 85.23976823 157.75051937 82.0625 154.5 C81.48145508 153.91250977 80.90041016 153.32501953 80.30175781 152.71972656 C76.74309123 149.09726315 73.33333684 145.38779291 70.046875 141.515625 C67.3647864 138.48260892 64.44766751 135.68991566 61.56640625 132.84765625 C58.95398932 130.1979856 56.54197379 127.41327197 54.12109375 124.58984375 C52.27884325 122.51679676 50.35098338 120.57064198 48.375 118.625 C45.77517817 116.06509866 43.31231602 113.4572046 40.9375 110.6875 C38.36834729 107.69698284 35.68182744 104.89383316 32.875 102.125 C29.4461721 98.74258601 26.25451482 95.24429558 23.12109375 91.58984375 C20.6514064 88.81075486 17.99596678 86.23639504 15.34765625 83.62890625 C12.80162171 81.04253849 10.45478443 78.3096472 8.08984375 75.55859375 C6.41495701 73.67005403 4.67552413 71.89344352 2.875 70.125 C0.44110268 67.73446833 -1.83855559 65.27453738 -4.0625 62.6875 C-6.48117779 59.87923653 -8.98399683 57.22529407 -11.625 54.625 C-14.85482866 51.4386498 -17.88047734 48.14324898 -20.828125 44.6953125 C-22.10197514 43.22761561 -23.40765322 41.78727118 -24.734375 40.3671875 C-30.75992264 33.87982782 -34.35379038 28.34794698 -34.03515625 19.24609375 C-32.89586178 11.96545954 -29.11246745 6.3601151 -23.46875 1.78125 C-16.47510673 -2.60459408 -7.68152074 -2.89765551 0 0 Z " fill="#F9D277" transform="translate(140.625,108.375)"/>
<path d="M0 0 C23.265 0.495 23.265 0.495 47 1 C47.00905435 19.00003868 47.01260348 36.99997691 47 55 C46.99876507 56.87297256 46.99876507 56.87297256 46.99750519 58.78378296 C46.98633129 73.55985777 46.95115594 88.33553896 46.86790657 103.11139679 C46.83307791 109.38535367 46.80841711 115.65904677 46.80444336 121.93310547 C46.80016406 128.17475128 46.7718418 134.41586248 46.72656822 140.657341 C46.71369587 142.99355715 46.70924857 145.3298372 46.71384621 147.66608429 C46.71875188 150.89420269 46.69270283 154.12071302 46.65942383 157.34863281 C46.66804947 158.28447708 46.67667511 159.22032135 46.68556213 160.18452454 C46.55605636 167.69445186 44.50846695 174.59392188 38.99329853 179.94813919 C32.98341228 184.77852765 27.18994213 186.51168509 19.51953125 186.3046875 C12.31758519 185.43375449 8.0202127 181.44922555 3.4453125 176.09765625 C0.26081937 171.47583784 -0.24876536 167.54347152 -0.24050903 161.98283386 C-0.24221788 161.28844139 -0.24392673 160.59404892 -0.24568737 159.87861425 C-0.24897406 157.55853728 -0.23799227 155.23875137 -0.22705078 152.91870117 C-0.22648649 151.25296027 -0.22680358 149.58721888 -0.22793579 147.92147827 C-0.2285096 143.40327979 -0.21675065 138.8851875 -0.20278788 134.36701369 C-0.1902853 129.64379524 -0.18911039 124.92057436 -0.18673706 120.19734192 C-0.18052091 111.25495321 -0.16410824 102.31261341 -0.14403808 93.37024623 C-0.12168331 83.18895238 -0.11068671 73.00765618 -0.10064721 62.82634389 C-0.07974214 41.88419591 -0.04306419 20.94211495 0 0 Z " fill="#F9D277" transform="translate(332,524)"/>
<path d="M0 0 C20.16710035 -0.11695223 40.3341316 -0.20504635 60.50150108 -0.25906086 C69.86618786 -0.28481063 79.23066357 -0.31989924 88.59521484 -0.37719727 C96.76013606 -0.42713129 104.92490437 -0.45931446 113.08997405 -0.47044247 C117.41088716 -0.47694437 121.73136293 -0.49215771 126.05213547 -0.52865028 C130.12501804 -0.5627682 134.19728609 -0.57302145 138.270298 -0.56553841 C139.75935972 -0.56690595 141.2484435 -0.57674444 142.73738098 -0.59602737 C152.30562449 -0.71379117 160.68454342 -0.07241791 167.93181419 6.84348583 C173.66021443 13.12284452 174.45791787 18.04806929 174.30859375 26.515625 C173.66264663 33.80910389 170.56056337 38.03962078 165.07421875 42.67578125 C159.79632354 46.04528497 155.40716101 47.37567342 149.15992737 47.36076355 C148.50874512 47.36332682 147.85756287 47.3658901 147.18664783 47.36853105 C145.02464453 47.3734364 142.86335397 47.35703118 140.70141602 47.34057617 C139.14375322 47.33972919 137.58608923 47.34020643 136.02842712 47.34190369 C131.81399425 47.3427623 127.59981899 47.3251584 123.38544583 47.30418181 C118.97588495 47.28539255 114.56631776 47.2836628 110.15672302 47.28010559 C101.81289747 47.27079173 93.46919022 47.24618688 85.1254167 47.21605712 C75.62363807 47.18249259 66.1218537 47.16602194 56.62003052 47.15097082 C37.07995334 47.11963673 17.53998619 47.06688906 -2 47 C-1.93433838 46.4227417 -1.86867676 45.8454834 -1.80102539 45.25073242 C-0.84393208 35.95312903 -0.66298848 26.64956386 -0.4375 17.3125 C-0.39420592 15.6282468 -0.35058859 13.94400189 -0.30664062 12.25976562 C-0.20070272 8.17326289 -0.09913075 4.0866733 0 0 Z " fill="#F9D278" transform="translate(513,351)"/>
<path d="M0 0 C7.61671642 7.82829188 8.02425127 16.13485237 8.05859375 26.54296875 C8.08143084 28.13928068 8.10594681 29.73556927 8.13194275 31.33183289 C8.21196216 36.99197695 8.23103444 42.65187739 8.25 48.3125 C8.26066153 50.58481939 8.2715128 52.85713789 8.28253174 55.12945557 C8.35406447 71.26391175 8.34933706 87.39803235 8.32203138 103.53258312 C8.31059144 110.39901013 8.30528969 117.26543852 8.30032361 124.13187277 C8.29002623 138.19209379 8.27177903 152.25229218 8.25 166.3125 C-12.045 165.8175 -12.045 165.8175 -32.75 165.3125 C-32.75 165.9725 -32.75 166.6325 -32.75 167.3125 C-34.73 167.3125 -36.71 167.3125 -38.75 167.3125 C-38.86687962 146.98047376 -38.95501087 126.64851584 -39.00906086 106.31622314 C-39.03482598 96.87525187 -39.0699441 87.43448951 -39.12719727 77.99365234 C-39.17708411 69.76356076 -39.20930332 61.53362051 -39.22044247 53.30338192 C-39.22695232 48.94676412 -39.24221672 44.5905792 -39.27865028 40.23410034 C-39.31269346 36.13003569 -39.32303636 32.02658052 -39.31553841 27.92238808 C-39.31690926 26.41958614 -39.32679261 24.91676294 -39.34602737 23.41408348 C-39.46374471 13.73970733 -38.52500713 7.552868 -31.90625 0.2890625 C-21.23922908 -8.4156291 -11.3137487 -6.94252761 0 0 Z " fill="#F9D278" transform="translate(370.75,45.6875)"/>
<path d="M0 0 C1.27037109 -0.00274933 2.54074219 -0.00549866 3.84960938 -0.0083313 C5.24459935 -0.0012544 6.63958835 0.0060152 8.03457642 0.01345825 C9.51327507 0.0140228 10.99197428 0.01370495 12.47067261 0.01257324 C16.47437125 0.01200043 20.47794958 0.02374315 24.48162031 0.03772116 C28.66964575 0.05024043 32.85767407 0.05139996 37.04571533 0.05377197 C44.97163554 0.05998322 52.89750045 0.07638924 60.82339633 0.09647095 C69.84874896 0.11884099 78.87410426 0.12982616 87.89947772 0.13986182 C106.46098075 0.16075578 125.02243234 0.19592486 143.58389282 0.24050903 C143.60894897 1.27345093 143.63400513 2.30639282 143.65982056 3.37063599 C143.75496207 7.25289459 143.85490884 11.13501794 143.95620728 15.01712036 C143.99915723 16.6879863 144.04085459 18.35888499 144.08120728 20.02981567 C144.301912 29.13320442 144.55373887 38.18400221 145.58389282 47.24050903 C125.92103406 47.33404927 106.25822059 47.40453568 86.59518528 47.44775772 C77.46479913 47.46836203 68.33455143 47.49644177 59.20425415 47.54226685 C51.24406795 47.58219999 43.28398205 47.60795734 35.32369846 47.61686301 C31.11075384 47.62206682 26.89809608 47.63425292 22.68524361 47.66342926 C18.71501665 47.69070095 14.74519309 47.69893049 10.77488136 47.69293976 C9.32250014 47.69403477 7.87010458 47.70191868 6.41780472 47.71733093 C-2.83154878 47.81062346 -10.4642158 47.39877508 -17.75595093 41.27566528 C-18.28317749 40.62468872 -18.81040405 39.97371216 -19.35360718 39.30300903 C-20.17151733 38.33041138 -20.17151733 38.33041138 -21.00595093 37.33816528 C-25.3852449 30.82381386 -25.24336969 23.84960064 -24.41610718 16.24050903 C-22.34786533 10.37741273 -17.63149441 5.53554242 -12.41610718 2.24050903 C-8.13381257 0.56931351 -4.58510123 -0.00768024 0 0 Z " fill="#F9D278" transform="translate(55.416107177734375,350.7594909667969)"/>
<path d="M0 0 C7.63652743 0.98583302 14.82447503 2.73188405 22.16479492 4.97363281 C27.65562963 6.63828864 33.17548579 8.08136023 38.75 9.4375 C46.43519808 11.31541474 54.03714641 13.39824926 61.62719727 15.62866211 C66.71931437 17.10992839 71.82425076 18.46904436 76.9765625 19.7265625 C78.17273193 20.02191895 79.36890137 20.31727539 80.60131836 20.62158203 C82.92687946 21.19121705 85.25571479 21.74770865 87.58813477 22.28857422 C96.16616577 24.4024759 104.62419097 27.33653268 110.0625 34.6875 C113.86290368 41.18496436 113.7119202 47.62712526 113 55 C110.69519723 61.58367427 105.11318938 66.53402092 99.23510742 70.05810547 C91.19880733 73.44467518 81.13640351 70.43971344 73.125 68.25 C72.15175781 67.99734375 71.17851563 67.7446875 70.17578125 67.484375 C63.61279662 65.76406448 57.09624434 63.88655815 50.57568359 62.01318359 C44.65235509 60.33478586 38.70151113 58.76245762 32.75 57.1875 C30.78930123 56.66668745 28.82875942 56.1452868 26.8682251 55.62385559 C25.54090783 55.27085065 24.213556 54.9179756 22.88616943 54.56523132 C16.17190078 52.78089668 9.45999334 50.98784913 2.75 49.1875 C1.19104004 48.7711731 1.19104004 48.7711731 -0.39941406 48.34643555 C-6.63408893 46.67174448 -12.8280173 44.89286591 -19 43 C-19 38.29710248 -17.39273954 36.03626892 -14.9375 32.25 C-8.57449082 22.0679253 -4.15417525 11.23119836 0 0 Z " fill="#F9D278" transform="translate(505,418)"/>
<path d="M0 0 C7.32421875 17.578125 7.32421875 17.578125 8.66943359 20.81054688 C9.53322622 22.88111328 10.40053647 24.95021703 11.27197266 27.01757812 C13.38608068 32.04510078 15.43386785 37.0865871 17.375 42.18359375 C20.43479525 50.20479919 23.71892148 58.13002046 27 66.0625 C27.60951205 67.539657 28.21888758 69.01687034 28.828125 70.49414062 C29.12657318 71.21712341 29.42502136 71.9401062 29.73251343 72.68499756 C30.32269353 74.11511221 30.91224277 75.54548739 31.50112915 76.97613525 C32.81951348 80.17303528 34.15514504 83.35845391 35.52880859 86.53222656 C36.2067749 88.10375488 36.2067749 88.10375488 36.8984375 89.70703125 C37.29208496 90.60268799 37.68573242 91.49834473 38.09130859 92.42114258 C40.41477685 99.01512302 39.77171258 105.01320359 36.9375 111.3125 C33.42487603 117.57153817 28.86665214 121.77460325 22 124 C14.22044986 124.85664701 7.43306842 124.68926236 1 120 C-5.29825003 114.43670398 -7.80067893 106.96464716 -10.75 99.3125 C-11.29608307 97.92693768 -11.84382148 96.54202683 -12.39306641 95.15771484 C-13.2837771 92.91250147 -14.17345354 90.66693404 -15.05838013 88.41943359 C-17.52102666 82.17089647 -20.04983137 75.95091981 -22.6015625 69.73828125 C-22.99641846 68.77680679 -23.39127441 67.81533234 -23.7980957 66.82472229 C-24.98983724 63.92458432 -26.18232042 61.02475231 -27.375 58.125 C-31.65101987 47.72773948 -35.91224196 37.32476163 -40.0390625 26.8671875 C-40.33976654 26.11511017 -40.64047058 25.36303284 -40.95028687 24.58816528 C-42.12681088 21.58076452 -43 19.25958818 -43 16 C-42.45061768 15.86424561 -41.90123535 15.72849121 -41.33520508 15.58862305 C-38.82544441 14.96336586 -36.31903489 14.32556031 -33.8125 13.6875 C-32.94818359 13.47416016 -32.08386719 13.26082031 -31.19335938 13.04101562 C-26.61981243 11.86696334 -22.99402878 10.58768062 -19 8 C-17.24889371 7.37880463 -15.47671123 6.81347915 -13.6875 6.3125 C-12.80449219 6.06113281 -11.92148437 5.80976563 -11.01171875 5.55078125 C-10.34785156 5.36902344 -9.68398438 5.18726563 -9 5 C-9 4.34 -9 3.68 -9 3 C-3.375 0 -3.375 0 0 0 Z " fill="#F9D278" transform="translate(436,505)"/>
<path d="M0 0 C0.88671875 1.72265625 0.88671875 1.72265625 1.6875 4.0625 C5.81690481 15.07949986 11.5071418 25.4770082 17.5546875 35.546875 C18.80270098 37.6651249 19.91449941 39.79636971 21 42 C7.81142606 45.57954438 -5.38582931 49.11195879 -18.625 52.5 C-28.34989072 54.99248156 -37.9859348 57.71213764 -47.60766602 60.57495117 C-54.8352781 62.70795883 -62.08661444 64.53891419 -69.44140625 66.17578125 C-71.84478681 66.7324369 -74.23078971 67.36923691 -76.59375 68.078125 C-82.38705923 69.64603897 -88.61598339 70.26547533 -94.33984375 68.125 C-100.17193231 64.7220155 -105.51077372 59.35259557 -108 53 C-108.88800794 45.49399602 -108.97146694 38.31550041 -104.640625 31.890625 C-97.80874322 24.01769456 -88.4545275 22.12606428 -78.73876953 19.69482422 C-74.73805421 18.6798451 -70.75729847 17.59390582 -66.77392578 16.51318359 C-58.95230559 14.39125561 -51.12245883 12.29970074 -43.29296875 10.20703125 C-41.09110455 9.61734161 -38.88928119 9.02749948 -36.6875 8.4375 C-35.61943115 8.15213379 -34.5513623 7.86676758 -33.45092773 7.57275391 C-28.21837516 6.16689797 -23.00218174 4.7221751 -17.8046875 3.19140625 C-16.34929565 2.76420288 -16.34929565 2.76420288 -14.86450195 2.32836914 C-13.04298014 1.789864 -11.22364719 1.24387881 -9.40698242 0.68920898 C-8.60365479 0.45145752 -7.80032715 0.21370605 -6.97265625 -0.03125 C-6.27406494 -0.24330078 -5.57547363 -0.45535156 -4.85571289 -0.67382812 C-3 -1 -3 -1 0 0 Z " fill="#F9D278" transform="translate(208,420)"/>
<path d="M0 0 C3.95358638 0.20274802 6.8787256 1.3651385 10.3125 3.1875 C14.96067199 5.61385988 19.68917138 7.4513463 24.625 9.1875 C25.32923096 9.43717529 26.03346191 9.68685059 26.7590332 9.9440918 C30.25863337 11.15472235 33.72977149 12.20483961 37.3359375 13.05078125 C41 14 41 14 44 16 C38.58840895 30.07874363 32.93114516 44.04768077 27.19396973 57.99642944 C25.9957925 60.91008974 24.7983687 63.82405754 23.6015625 66.73828125 C23.20928467 67.69335068 22.81700684 68.6484201 22.4128418 69.63243103 C19.94763389 75.64832173 17.53028654 81.68114574 15.1484375 87.73046875 C14.28501511 89.90930486 13.42079664 92.08782381 12.55645752 94.26629639 C12.02600903 95.61218949 11.50043232 96.96001465 10.98016357 98.30987549 C7.62742086 107.00721175 4.49518453 114.31102002 -3.5625 119.4375 C-9.70973191 122.16304812 -16.98114782 122.10436751 -23.40234375 120.33984375 C-29.74090295 117.5294653 -33.48458917 112.62671211 -36.875 106.75 C-40.03345304 96.22182321 -36.96609035 88.08914914 -32.625 78.375 C-32.07580356 77.10651763 -31.52888126 75.83704846 -30.98413086 74.56665039 C-30.14972224 72.62181134 -29.31386564 70.6777466 -28.47050476 68.73677063 C-25.69949734 62.35711458 -23.11845774 55.90606205 -20.5625 49.4375 C-18.26574441 43.64265301 -15.95143701 37.85885005 -13.54296875 32.109375 C-10.39007683 24.57750047 -7.39641236 16.9832527 -4.3984375 9.38867188 C-3.97304688 8.31810547 -3.54765625 7.24753906 -3.109375 6.14453125 C-2.72749023 5.17878174 -2.34560547 4.21303223 -1.95214844 3.21801758 C-1 1 -1 1 0 0 Z " fill="#F9D278" transform="translate(281,508)"/>
<path d="M0 0 C5.39258965 4.28808334 9.50889506 8.88354735 10.34765625 15.9140625 C10.68902924 23.38925575 9.99027423 30.14013343 5 36 C-1.11771071 41.04956518 -7.47765205 43.47745737 -15.0625 45.5 C-16.09963135 45.78987793 -17.1367627 46.07975586 -18.20532227 46.37841797 C-26.59070789 48.69480887 -35.02971604 50.80267292 -43.47973633 52.86889648 C-49.28470746 54.29353176 -55.02985142 55.8291423 -60.75 57.5625 C-66.94068623 59.43643338 -73.16287348 61.11651339 -79.4375 62.6875 C-80.24219727 62.88996338 -81.04689453 63.09242676 -81.87597656 63.30102539 C-87.55270806 64.70383533 -93.25819899 65.89525416 -99 67 C-99.77422603 64.87623375 -100.54418063 62.75091024 -101.3125 60.625 C-101.66187622 59.65989502 -101.66187622 59.65989502 -102.01831055 58.67529297 C-103.26768606 55.18540263 -104.37922692 51.71073342 -105.3125 48.125 C-106.88917575 42.5928044 -109.5639786 37.60921349 -112.2199707 32.53173828 C-113.86613948 29.37106325 -115.23511185 26.47876098 -116 23 C-115.36199463 22.84442627 -114.72398926 22.68885254 -114.06665039 22.52856445 C-98.70686655 18.79829111 -98.70686655 18.79829111 -83.5 14.5 C-75.69573077 12.12328456 -67.80266748 10.17811208 -59.88085938 8.23486328 C-53.87459219 6.75050094 -47.92306415 5.16213742 -42 3.375 C-10.36539716 -6.10741244 -10.36539716 -6.10741244 0 0 Z " fill="#F9D278" transform="translate(608,264)"/>
<path d="M0 0 C1.40342074 0.37324324 2.80706888 0.74563243 4.2109375 1.1171875 C12.26331788 3.26029297 20.26388125 5.54711713 28.23828125 7.96484375 C36.27659895 10.32883739 44.42999456 12.31181409 52.55078125 14.37109375 C61.06063005 16.5375522 69.50857761 18.85287539 77.9375 21.3125 C77.18954293 24.78610339 75.77970948 27.46501634 74.00366211 30.54321289 C67.70784004 41.5463846 64.24401983 53.12828942 60.9375 65.3125 C54.17307872 64.04866863 47.56223078 62.4809605 40.9375 60.625 C38.98970643 60.08679388 37.04178437 59.54905263 35.09375 59.01171875 C33.57974609 58.592854 33.57974609 58.592854 32.03515625 58.16552734 C27.9049544 57.02815934 23.76961018 55.91047494 19.6328125 54.79736328 C17.49158279 54.22115523 15.35096167 53.64268111 13.2109375 53.06201172 C7.81829572 51.60309814 2.42082981 50.17282618 -2.99743652 48.81243896 C-5.6972428 48.13323375 -8.39395034 47.44213687 -11.09057617 46.75042725 C-13.00346415 46.26498189 -14.92063722 45.79652031 -16.83789062 45.32861328 C-25.87140631 43.00406374 -34.79250916 40.25978916 -40.125 32.125 C-43.65820051 25.75015067 -43.80097962 19.47660114 -43.0625 12.3125 C-40.58015347 5.41090874 -34.7328907 0.10691323 -28.25 -3.0625 C-18.39848462 -4.99416968 -9.48959783 -2.58931431 0 0 Z " fill="#F9D278" transform="translate(143.0625,264.6875)"/>
<path d="M0 0 C5.85303176 3.51922796 9.99973618 8.70850752 12.03678894 15.23153687 C13.68500412 22.1476971 12.43527069 28.06936117 9.66796875 34.4609375 C9.36483261 35.19631241 9.06169647 35.93168732 8.74937439 36.68934631 C7.76414616 39.070097 6.75729644 41.44101338 5.75 43.8125 C5.05881472 45.47208488 4.36921397 47.13233052 3.68115234 48.79321289 C2.3002042 52.12163799 0.91159309 55.44668508 -0.48388672 58.76904297 C-3.14634047 65.11630293 -5.7286484 71.49538097 -8.3125 77.875 C-9.18027307 80.00550032 -10.04874578 82.13571582 -10.91796875 84.265625 C-11.33224121 85.28076172 -11.74651367 86.29589844 -12.17333984 87.34179688 C-15.59013142 95.70891105 -19.01221841 104.07385813 -22.4375 112.4375 C-23.44167969 111.91800781 -24.44585937 111.39851563 -25.48046875 110.86328125 C-33.06243943 106.98283313 -40.58635577 103.46245512 -48.59765625 100.53125 C-51.1338055 99.55446625 -53.47615114 98.45721206 -55.875 97.1875 C-59.1986917 95.55480934 -61.77917632 94.80333237 -65.4375 94.4375 C-63.25456497 85.97458788 -59.89094237 78.0325293 -56.48556519 70.00952148 C-54.79495712 66.02639759 -53.11974346 62.03682118 -51.4453125 58.046875 C-51.10682785 57.24096924 -50.7683432 56.43506348 -50.41960144 55.60473633 C-48.22581543 50.36571064 -46.08451518 45.10845653 -43.9921875 39.828125 C-43.59104988 38.81640228 -43.59104988 38.81640228 -43.18180847 37.78424072 C-41.9364467 34.63701727 -40.69946438 31.48686394 -39.47094727 28.33300781 C-29.90955331 4.06031372 -29.90955331 4.06031372 -20.1171875 -0.6875 C-13.84838143 -2.73445708 -6.06374952 -2.72751668 0 0 Z " fill="#F9D278" transform="translate(462.4375,122.5625)"/>
<path d="M0 0 C9.37703372 5.36895768 12.75237914 16.72820241 16.5 26.1875 C17.09889095 27.673387 17.69893114 29.15881126 18.30004883 30.64379883 C19.56890233 33.78350291 20.83098345 36.92580735 22.08789062 40.0703125 C24.44899778 45.97337501 26.84081216 51.86387218 29.23280334 57.75447083 C29.56920334 58.58291 29.90560333 59.41134918 30.25219727 60.26489258 C30.58438263 61.08293365 30.91656799 61.90097473 31.25881958 62.74380493 C32.23304784 65.14570547 33.20477411 67.54860136 34.17553711 69.9519043 C34.48033997 70.70600586 34.78514282 71.46010742 35.09918213 72.23706055 C35.66441507 73.63583494 36.22911908 75.03482326 36.79315186 76.43408203 C38.30368913 80.18236181 38.30368913 80.18236181 39.92056274 83.88540649 C41.45108769 87.25701633 42.0625 89.21185317 42.0625 93 C41.02351563 93.24234375 39.98453125 93.4846875 38.9140625 93.734375 C24.70506023 97.11625077 12.20708969 102.71743509 -0.9375 109 C-6.06936962 97.22898523 -11.04754521 85.40841944 -15.76074219 73.46313477 C-18.07376904 67.61345253 -20.43231888 61.78884547 -22.86416626 55.9876709 C-24.25940941 52.65693495 -25.64282667 49.3213331 -27.02606201 45.9855957 C-27.71121909 44.34244531 -28.40192711 42.70159737 -29.09844971 41.06323242 C-30.0828656 38.74588551 -31.04703387 36.4209778 -32.0078125 34.09375 C-32.30417603 33.41022461 -32.60053955 32.72669922 -32.90588379 32.02246094 C-35.57695138 25.45122577 -36.0713516 18.57315708 -33.4375 11.875 C-30.79348179 5.83421819 -26.46882529 1.73355969 -20.57421875 -1.16015625 C-13.93194585 -3.27584317 -6.26437372 -3.15877588 0 0 Z " fill="#F9D278" transform="translate(277.9375,123)"/>
</svg>
