<?xml version="1.0" encoding="UTF-8"?>
<svg version="1.1" xmlns="http://www.w3.org/2000/svg" width="728" height="725">
<path d="M0 0 C0.84046875 0.77730469 1.6809375 1.55460937 2.546875 2.35546875 C28.69343006 27.21134992 46.25233583 66.03241485 47.2644043 102.1625824 C47.31389608 105.10885914 47.32431972 108.05383886 47.31567383 111.00048828 C47.31252272 113.23390026 47.33604514 115.46596991 47.36132812 117.69921875 C47.42388706 131.71540472 45.20508 145.10352336 41.25 158.5625 C40.99395996 159.44107666 40.73791992 160.31965332 40.47412109 161.22485352 C33.13082133 185.60292671 19.59252596 206.77098613 2 225 C1.22269531 225.84046875 0.44539063 226.6809375 -0.35546875 227.546875 C-25.20018246 253.68168272 -64.02102643 271.25636682 -100.13876343 272.26394653 C-103.82213642 272.32692846 -107.50371515 272.33096212 -111.1875 272.3125 C-111.9613504 272.31034485 -112.73520081 272.3081897 -113.53250122 272.30596924 C-124.9182185 272.25507645 -135.94140039 271.91330095 -147 269 C-148.18988525 268.69400879 -148.18988525 268.69400879 -149.40380859 268.38183594 C-177.33674861 261.01949955 -201.01092838 247.82110364 -222 228 C-222.79792969 227.26652344 -223.59585938 226.53304688 -224.41796875 225.77734375 C-250.786969 200.66600646 -268.42436474 162.76017374 -270.17700195 126.31982422 C-270.94800933 78.94741083 -259.23472292 38.17018931 -226 3 C-225.21496094 2.13890625 -224.42992187 1.2778125 -223.62109375 0.390625 C-195.684045 -29.12454711 -154.35854726 -44.77705132 -114.23681641 -45.96826172 C-71.23985982 -46.57834733 -30.75411338 -29.68029658 0 0 Z " fill="#F9D277" transform="translate(466,257)"/>
<path d="M0 0 C3.97802247 1.57828734 6.22957409 4.16248665 9.0625 7.3125 C9.77116211 8.09959351 9.77116211 8.09959351 10.49414062 8.90258789 C14.04549466 12.8708859 17.53892187 16.89033275 21 20.9375 C21.45640869 21.46835205 21.91281738 21.9992041 22.38305664 22.54614258 C24.91863751 25.54679349 27.08086274 28.57206733 29 32 C28.39414062 32.53367188 27.78828125 33.06734375 27.1640625 33.6171875 C21.70981741 38.46727006 16.49147383 43.47597285 11.36328125 48.66796875 C9.32128393 50.68296445 7.24341714 52.57639148 5.0625 54.4375 C1.19461192 57.74278617 -2.3592107 61.32994996 -5.92895508 64.94848633 C-9.17348701 68.22004195 -12.53608678 71.26955975 -16.0390625 74.2578125 C-18.28631885 76.2543789 -20.38894927 78.36012946 -22.5 80.5 C-25.1877846 83.2244154 -27.89816863 85.83260312 -30.8125 88.3125 C-34.38898789 91.37500161 -37.69390105 94.65279959 -41 98 C-44.87256844 101.92065248 -48.80792248 105.65404194 -53.0078125 109.2265625 C-55.43937981 111.39113418 -57.71211081 113.68429453 -60 116 C-62.87557659 118.91053801 -65.75874094 121.72424022 -68.875 124.375 C-72.43286176 127.41430701 -75.71442297 130.67363368 -79 134 C-82.86545088 137.91343909 -86.7882207 141.64584101 -90.98828125 145.203125 C-94.43239559 148.2794213 -97.60008792 151.63462826 -100.80078125 154.9609375 C-103 157 -103 157 -106 158 C-112.0624366 150.87238763 -118.07674618 143.71406449 -123.984375 136.45703125 C-126.60678793 133.26033022 -129.29212706 130.12446878 -132 127 C-130.49867699 123.34924186 -128.41104665 121.36723727 -125.4375 118.8125 C-121.01133616 114.94522767 -116.87590415 110.89714988 -112.8125 106.65234375 C-111 105 -111 105 -109 105 C-109 104.34 -109 103.68 -109 103 C-107.6015625 101.625 -107.6015625 101.625 -105.625 100 C-102.25204852 97.13954645 -99.10326523 94.15130339 -96 91 C-92.47893677 87.43599698 -88.86813992 84.09695832 -85.0625 80.84375 C-82.61075311 78.65203687 -80.31114427 76.33932896 -78 74 C-75.10408042 71.06881809 -72.19757429 68.23596826 -69.0625 65.5625 C-65.71074927 62.69827665 -62.59443244 59.63666284 -59.5 56.5 C-55.81005412 52.75969662 -52.02496302 49.2176065 -48.02734375 45.80859375 C-45.58571366 43.63041508 -43.29951968 41.32751992 -41 39 C-38.12442341 36.08946199 -35.24125906 33.27575978 -32.125 30.625 C-28.00251115 27.10335973 -24.23796938 23.26583081 -20.43115234 19.41162109 C-17.04426921 15.99897403 -13.55376844 12.78471894 -9.890625 9.66796875 C-6.42990183 6.61481008 -3.22315813 3.30030819 0 0 Z " fill="#F9D277" transform="translate(612,117)"/>
<path d="M0 0 C0.03057138 17.58332551 0.050966 35.16665156 0.0625 52.75 C0.06335602 54.04579735 0.06421204 55.3415947 0.06509399 56.67665863 C0.08425438 89.49591616 0.0488994 122.30971716 -0.5 155.125 C-0.51195782 155.8405455 -0.52391563 156.556091 -0.53623581 157.2933197 C-0.67520284 165.52918939 -0.82769082 173.76475693 -1 182 C-1.93682617 181.99476318 -2.87365234 181.98952637 -3.83886719 181.98413086 C-7.37256507 181.96691138 -10.90621725 181.95446456 -14.43994141 181.94506836 C-15.95850333 181.94009315 -17.4770606 181.93331059 -18.99560547 181.92456055 C-28.05422701 181.8737366 -36.9789916 182.03221644 -46 183 C-46 182.34 -46 181.68 -46 181 C-45.01 181 -44.02 181 -43 181 C-43.00333092 180.18702202 -43.00333092 180.18702202 -43.00672913 179.35762024 C-43.03627996 171.67593266 -43.05261389 163.99423662 -43.0625 156.3125 C-43.06335602 155.65251007 -43.06421204 154.99252014 -43.06509399 154.31253052 C-43.10278382 121.04045779 -42.79619155 87.77041291 -42.5 54.5 C-42.49402628 53.82822613 -42.48805257 53.15645226 -42.48189783 52.46432161 C-42.32628442 34.97616775 -42.16568038 17.4880614 -42 0 C-27.90453858 -0.99371474 -14.10058495 -0.89190447 0 0 Z " fill="#F9D277" transform="translate(378,12)"/>
<path d="M0 0 C89.595 0.495 89.595 0.495 181 1 C182.30212369 4.90637107 182.14785079 8.61725341 182.125 12.6875 C182.12101196 13.94832397 182.12101196 13.94832397 182.11694336 15.23461914 C181.96903311 35.12386758 181.96903311 35.12386758 180 43 C120.6 43 61.2 43 0 43 C0.33 36.4 0.66 29.8 1 23 C0.67 15.41 0.34 7.82 0 0 Z " fill="#F9D277" transform="translate(533,353)"/>
<path d="M0 0 C3.25207092 1.41738489 5.31361067 3.12526412 7.75 5.6875 C10.95384814 9.04615593 14.35644947 12.07686356 17.85888672 15.11499023 C21.38407358 18.21852134 24.78086018 21.45507235 28.1875 24.6875 C34.89880842 31.02970111 41.6505677 37.32383634 48.44824219 43.57324219 C56.4654859 50.94466639 64.45199173 58.34797386 72.40917969 65.78417969 C78.58155346 71.54951387 84.78760693 77.27785743 91 83 C93.12551263 84.95777797 95.25044468 86.91618325 97.375 88.875 C97.90480469 89.36282959 98.43460937 89.85065918 98.98046875 90.35327148 C101.92512097 93.06886577 104.85364161 95.80016159 107.765625 98.55078125 C114.96238413 105.3387681 122.2153843 111.88236022 130 118 C126.74770417 121.91943343 123.4455343 125.55732182 119.75 129.0625 C113.96357039 134.75085453 109.58847068 141.34920224 105 148 C104.00867891 149.33979859 103.01302321 150.67653419 102 152 C99.45387363 149.45846125 96.91351914 146.91235572 94.38671875 144.3515625 C89.67429371 139.59139944 84.92553512 134.96082267 79.828125 130.609375 C77.39285203 128.46550222 75.14645466 126.15888835 72.87524414 123.84399414 C71.06043112 122.05942406 69.19073891 120.3901976 67.26171875 118.73046875 C63.18541879 115.18606366 59.23792178 111.52242763 55.3125 107.8125 C53.90402425 106.48657708 52.49516522 105.16106119 51.0859375 103.8359375 C50.39467773 103.18592773 49.70341797 102.53591797 48.99121094 101.86621094 C46.15444306 99.20752363 43.29839962 96.57016954 40.4375 93.9375 C35.75162496 89.62451399 31.08905654 85.28747405 26.4375 80.9375 C21.97880486 76.76876446 17.50533772 72.618302 13 68.5 C7.85324038 63.79537812 2.75081079 59.04515289 -2.34130859 54.28149414 C-7.10496521 49.82744455 -11.89125429 45.39871935 -16.70092773 40.99438477 C-19.88293523 38.07022333 -22.96464326 35.07427157 -26 32 C-17.99476486 20.72287038 -9.34829714 10.18809689 0 0 Z " fill="#F9D277" transform="translate(100,126)"/>
<path d="M0 0 C4.20353739 0.52175054 6.30972726 2.84254934 9.3125 5.6875 C9.8288501 6.17226807 10.3452002 6.65703613 10.87719727 7.15649414 C11.99868793 8.21012656 13.11731329 9.26681522 14.23339844 10.32617188 C16.65591417 12.62146871 19.09844692 14.89497299 21.5402832 17.16967773 C23.45192739 18.95094341 25.36086616 20.7350743 27.26953125 22.51953125 C32.82234162 27.70568713 38.41142851 32.85245018 44 38 C51.49387168 44.9024934 58.96535112 51.827722 66.40917969 58.78417969 C72.58155346 64.54951387 78.78760693 70.27785743 85 76 C92.48696708 82.89613368 99.95602547 89.81032346 107.38720703 96.76660156 C110.48756951 99.66629072 113.59783824 102.55350131 116.734375 105.4140625 C117.32669922 105.95546875 117.91902344 106.496875 118.52929688 107.0546875 C119.6425295 108.07062283 120.75825665 109.08383433 121.87695312 110.09375 C124.5684321 112.55254628 126.93613354 114.98901674 129 118 C127.91138672 119.08667969 127.91138672 119.08667969 126.80078125 120.1953125 C125.06369958 121.93481687 123.33104865 123.67877282 121.60546875 125.4296875 C114.15075143 132.96870695 106.50418152 139.68554873 98 146 C97.5373877 145.56244385 97.07477539 145.1248877 96.59814453 144.67407227 C86.39400433 134.98417675 86.39400433 134.98417675 76 125.5 C70.72201628 120.79746936 65.59811002 115.93492207 60.45800781 111.08300781 C54.52804047 105.48815562 48.55349244 99.94442059 42.55175781 94.42675781 C34.5345141 87.05533361 26.54800827 79.65202614 18.59082031 72.21582031 C12.9445523 66.94189764 7.27077749 61.69831701 1.58837891 56.46337891 C-5.84783053 49.61237378 -13.27515012 42.75181692 -20.6875 35.875 C-21.58843384 35.03980835 -21.58843384 35.03980835 -22.50756836 34.18774414 C-24.70058141 32.15171399 -26.88381561 30.11618439 -29 28 C-28.54262451 27.63874023 -28.08524902 27.27748047 -27.61401367 26.90527344 C-11.86740204 15.23184916 -11.86740204 15.23184916 0 0 Z " fill="#F9D277" transform="translate(490,489)"/>
<path d="M0 0 C55.11 0 110.22 0 167 0 C169 39 169 39 168 42 C112.89 42 57.78 42 1 42 C-0.02487944 37.90048225 -0.34582572 34.00733181 -0.5625 29.8125 C-0.6042334 29.02673584 -0.6459668 28.24097168 -0.68896484 27.43139648 C-0.96385508 21.80848871 -1.10481396 16.19195724 -1.125 10.5625 C-1.12959229 9.84747314 -1.13418457 9.13244629 -1.13891602 8.39575195 C-1.12960805 5.32002622 -0.98044165 2.94132495 0 0 Z " fill="#F9D277" transform="translate(8,354)"/>
<path d="M0 0 C1.40088867 0.07069702 1.40088867 0.07069702 2.83007812 0.14282227 C4.40208984 0.21533203 4.40208984 0.21533203 6.00585938 0.28930664 C7.11316406 0.34538086 8.22046875 0.40145508 9.36132812 0.45922852 C19.55111572 0.96808967 29.63573123 1.02172852 39.86132812 1.02172852 C39.53132813 55.80172852 39.20132813 110.58172852 38.86132812 167.02172852 C27.6166513 168.42731312 16.60114256 168.18309009 5.32226562 167.51391602 C4.50266357 167.46678467 3.68306152 167.41965332 2.83862305 167.37109375 C0.84609615 167.25628002 -1.14630236 167.13924164 -3.13867188 167.02172852 C-3.16199876 145.39528953 -3.17965001 123.7688526 -3.19048405 102.1424036 C-3.19564745 92.10160464 -3.202691 82.06081348 -3.21411133 72.02001953 C-3.2240568 63.27177549 -3.23052498 54.5235371 -3.23276037 45.77528757 C-3.23406771 41.14017853 -3.23715502 36.50508564 -3.24440193 31.86998177 C-3.25116 27.51247373 -3.25328927 23.1549886 -3.25177956 18.79747581 C-3.25205598 17.19340007 -3.25406237 15.58932361 -3.25787735 13.98525238 C-3.26281128 11.80480121 -3.2616713 9.62443795 -3.25892639 7.44398499 C-3.25984818 6.2207657 -3.26076998 4.99754641 -3.2617197 3.73725986 C-3.09379897 0.03143243 -3.09379897 0.03143243 0 0 Z " fill="#F9D277" transform="translate(337.138671875,549.978271484375)"/>
<path d="M0 0 C0.72058594 0.721875 1.44117188 1.44375 2.18359375 2.1875 C3.96218241 3.96362183 5.74543442 5.73509712 7.53515625 7.5 C8.78619141 8.7375 8.78619141 8.7375 10.0625 10 C11.31740234 11.2375 11.31740234 11.2375 12.59765625 12.5 C15 15 15 15 16.94921875 17.57421875 C19.29038785 20.34348734 21.65781735 21.93510339 24.75 23.8125 C25.73484375 24.41707031 26.7196875 25.02164063 27.734375 25.64453125 C28.48203125 26.09183594 29.2296875 26.53914062 30 27 C29.67 28.32 29.34 29.64 29 31 C28.34 31 27.68 31 27 31 C27 31.66 27 32.32 27 33 C25.6015625 34.375 25.6015625 34.375 23.625 36 C20.25204852 38.86045355 17.10326523 41.84869661 14 45 C10.48721267 48.5556262 6.89002981 51.89154606 3.0859375 55.12890625 C-0.41227707 58.26681783 -3.64033429 61.67440295 -6.8984375 65.05859375 C-9 67 -9 67 -11 67 C-11 67.66 -11 68.32 -11 69 C-12.3984375 70.375 -12.3984375 70.375 -14.375 72 C-17.74795148 74.86045355 -20.89673477 77.84869661 -24 81 C-27.52106323 84.56400302 -31.13186008 87.90304168 -34.9375 91.15625 C-37.38924689 93.34796313 -39.68885573 95.66067104 -42 98 C-44.87557659 100.91053801 -47.75874094 103.72424022 -50.875 106.375 C-54.43286176 109.41430701 -57.71442297 112.67363368 -61 116 C-64.86747271 119.91548603 -68.79071713 123.65133703 -72.99609375 127.20703125 C-76.3842135 130.23850682 -79.47908718 133.56517597 -82.60546875 136.86328125 C-85.01778154 139.01586705 -86.94571746 140.01807258 -90 141 C-100.2200337 132.23114933 -110.34669504 123.35259446 -119 113 C-114.92002277 107.90002846 -110.39363818 103.50316086 -105.54833984 99.14404297 C-101.71801888 95.69161193 -98.07617985 92.10340452 -94.5234375 88.36328125 C-93 87 -93 87 -91 87 C-91 86.34 -91 85.68 -91 85 C-89.6015625 83.625 -89.6015625 83.625 -87.625 82 C-84.25204852 79.13954645 -81.10326523 76.15130339 -78 73 C-74.47893677 69.43599698 -70.86813992 66.09695832 -67.0625 62.84375 C-64.61075311 60.65203687 -62.31114427 58.33932896 -60 56 C-57.12442341 53.08946199 -54.24125906 50.27575978 -51.125 47.625 C-47.56713824 44.58569299 -44.28557703 41.32636632 -41 38 C-37.12742826 34.07935164 -33.19207759 30.34595812 -28.9921875 26.7734375 C-25.66090124 23.80793954 -22.58257176 20.58970893 -19.44921875 17.41796875 C-16.69730671 14.70116882 -13.825917 12.1779129 -10.88671875 9.66796875 C-8.27830189 7.36197703 -5.86088213 4.88826379 -3.4453125 2.3828125 C-2 1 -2 1 0 0 Z " fill="#F9D277" transform="translate(219,490)"/>
<path d="M0 0 C0.33 0.66 0.66 1.32 1 2 C3.05482482 2.45889051 5.11160205 2.90994253 7.17477417 3.32971191 C12.88435168 4.68431576 18.36229843 6.81610873 23.87890625 8.796875 C25.21761693 9.27331387 26.55648227 9.74931837 27.89549255 10.22491455 C30.69458692 11.22030237 33.49243455 12.21908839 36.28930664 13.22070312 C40.52210024 14.73653432 44.75799117 16.24357834 48.99414062 17.75 C55.55483049 20.08414078 62.1075999 22.43970133 68.65802002 24.80249023 C71.58668949 25.85190116 74.52118143 26.8811594 77.46044922 27.90039062 C78.92036081 28.41764877 80.38017198 28.93519048 81.83984375 29.453125 C83.01796631 29.86208008 84.19608887 30.27103516 85.40991211 30.69238281 C88 32 88 32 89.53686523 33.64257812 C90.28651997 37.45842744 88.83771193 40.70320751 87.5703125 44.265625 C87.30113007 45.05902283 87.03194763 45.85242065 86.75460815 46.66986084 C85.89203923 49.20161331 85.00887078 51.72561513 84.125 54.25 C83.53638917 55.965676 82.94913274 57.68181731 82.36328125 59.3984375 C80.92451187 63.60451798 79.46722781 67.8037664 78 72 C71.16925444 70.80102163 64.75711914 69.08069553 58.2265625 66.76171875 C56.86078064 66.2854882 56.86078064 66.2854882 55.46740723 65.79963684 C52.51756014 64.76890583 49.57124355 63.72848177 46.625 62.6875 C44.58200619 61.97096142 42.53887321 61.25481954 40.49560547 60.5390625 C22.28657176 54.1482964 4.12875023 47.6147763 -14 41 C-12.76021661 37.21444151 -11.40597533 33.62106605 -9.75 30 C-6.75781105 22.97369916 -4.88599456 15.68345536 -2.96777344 8.30273438 C-2.72575195 7.37396484 -2.48373047 6.44519531 -2.234375 5.48828125 C-1.91291504 4.22818237 -1.91291504 4.22818237 -1.58496094 2.94262695 C-1 1 -1 1 0 0 Z " fill="#F9D277" transform="translate(529,413)"/>
<path d="M0 0 C2.56856178 5.08778653 5.13191884 10.17814779 7.69042969 15.27099609 C8.5620396 17.00414137 9.43508233 18.73656684 10.30957031 20.46826172 C11.56429946 22.9535359 12.81389926 25.44132996 14.0625 27.9296875 C14.45622803 28.70682098 14.84995605 29.48395447 15.25561523 30.28463745 C18 35.77225659 18 35.77225659 18 38 C17.15856445 38.34554932 16.31712891 38.69109863 15.45019531 39.04711914 C-2.8621632 46.5702942 -21.15843489 54.13046562 -39.42675781 61.76000977 C-49.27197171 65.87069405 -59.1312309 69.94619076 -69 74 C-70.94996941 71.51331654 -72.53556883 69.15027 -73.83203125 66.26953125 C-74.15300781 65.55651855 -74.47398437 64.84350586 -74.8046875 64.10888672 C-75.13726563 63.3510791 -75.46984375 62.59327148 -75.8125 61.8125 C-76.15925781 61.02891113 -76.50601563 60.24532227 -76.86328125 59.43798828 C-80.34274568 51.44129636 -83.23732497 43.26709573 -86 35 C-68.98207097 27.64870359 -51.91414003 20.4274137 -34.79223633 13.32177734 C-33.28855353 12.69764098 -31.78489104 12.07345571 -30.28125 11.44921875 C-29.55850388 11.14918945 -28.83575775 10.84916016 -28.09111023 10.54003906 C-23.91609858 8.80437052 -19.75037971 7.04891965 -15.59375 5.26953125 C-14.25098999 4.6957373 -14.25098999 4.6957373 -12.88110352 4.11035156 C-11.31448749 3.43856457 -9.74969 2.76251126 -8.18725586 2.08105469 C-5.2768179 0.83418008 -3.2037991 0 0 0 Z " fill="#F9D278" transform="translate(600,254)"/>
<path d="M0 0 C8.15654588 17.41490925 15.78418421 35.02968996 23.31509399 52.72137451 C26.5523523 60.31583781 29.86072213 67.87906842 33.20727539 75.42602539 C33.58102295 76.27672607 33.95477051 77.12742676 34.33984375 78.00390625 C34.66331787 78.73424072 34.98679199 79.4645752 35.32006836 80.21704102 C36 82 36 82 36 84 C35.22922119 84.33733154 34.45844238 84.67466309 33.66430664 85.0222168 C30.76089909 86.29541187 27.85927485 87.57256987 24.95874023 88.85229492 C23.71137656 89.40170024 22.46334632 89.9495951 21.21459961 90.49584961 C14.51725523 93.42677729 7.98458599 96.36133317 1.76733398 100.22583008 C0 101 0 101 -3 100 C-4.20068359 97.91015625 -4.20068359 97.91015625 -5.3984375 95.0625 C-5.86805908 93.96260742 -6.33768066 92.86271484 -6.8215332 91.72949219 C-7.33952947 90.48640062 -7.85734552 89.24323394 -8.375 88 C-8.92235413 86.70690456 -9.47081041 85.4142752 -10.02026367 84.12207031 C-10.93939757 81.95853441 -11.85699037 79.79439975 -12.77049255 77.628479 C-15.65325091 70.79390901 -18.58718011 63.98191595 -21.52734375 57.171875 C-22.97401174 53.81639791 -24.4202307 50.46072769 -25.86627197 47.10498047 C-26.83196444 44.86475326 -27.79839756 42.62484518 -28.76556396 40.38525391 C-30.13505613 37.21148968 -31.49976433 34.03571003 -32.86328125 30.859375 C-33.28141586 29.89296082 -33.69955048 28.92654663 -34.13035583 27.93084717 C-34.50926468 27.04584534 -34.88817352 26.16084351 -35.27856445 25.24902344 C-35.77934258 24.08569489 -35.77934258 24.08569489 -36.29023743 22.89886475 C-37 21 -37 21 -37 19 C-37.66 18.67 -38.32 18.34 -39 18 C-33.769688 15.43152288 -28.53691241 12.86816268 -23.30175781 10.30957031 C-21.52014123 9.43793666 -19.73921338 8.56489383 -17.95898438 7.69042969 C-15.40413084 6.43576331 -12.84686591 5.18613939 -10.2890625 3.9375 C-9.49005524 3.54377197 -8.69104797 3.15004395 -7.86782837 2.74438477 C-2.22774341 0 -2.22774341 0 0 0 Z " fill="#F9D278" transform="translate(262,118)"/>
<path d="M0 0 C8.8295589 2.64967783 17.55430952 5.52002676 26.24609375 8.58984375 C27.45967056 9.01624649 28.67324738 9.44264923 29.92359924 9.88197327 C33.11640702 11.00388147 36.30813072 12.12884217 39.49963379 13.25445557 C42.07526841 14.16229579 44.65165437 15.06799184 47.22808743 15.97356319 C62.12451066 21.20948244 62.12451066 21.20948244 66.62911987 22.8197937 C69.0504171 23.6675338 71.4699788 24.48016609 73.91116333 25.26541138 C74.55620599 25.4792299 75.20124865 25.69304842 75.86583805 25.91334629 C77.67720245 26.51321504 79.49358383 27.09787166 81.31019592 27.68165588 C84 29 84 29 84.93070984 31.00024414 C85.0256926 33.74150392 84.25811078 35.64174047 83.234375 38.18359375 C82.64257446 39.69083008 82.64257446 39.69083008 82.03881836 41.22851562 C81.6135083 42.28748047 81.18819824 43.34644531 80.75 44.4375 C77.45365061 52.89013243 74.52451421 61.02814628 73 70 C70.36 69.67 67.72 69.34 65 69 C65 68.34 65 67.68 65 67 C64.35054916 66.83301605 63.70109833 66.6660321 63.03196716 66.49398804 C55.73749019 64.56790487 48.64555562 62.2417973 41.53515625 59.7265625 C40.38059433 59.32094086 39.22603241 58.91531921 38.03648376 58.49740601 C35.60967596 57.64371464 33.18354215 56.78810509 30.75805664 55.93066406 C27.07824695 54.6305635 23.39575365 53.33829725 19.71289062 52.046875 C17.3409808 51.21140588 14.96923065 50.37548327 12.59765625 49.5390625 C11.51291519 49.15867828 10.42817413 48.77829407 9.31056213 48.38638306 C2.09954144 45.83018669 -4.9669494 43.01088355 -12 40 C-11.4050829 34.79373547 -10.19937085 30.05813798 -8.49609375 25.09765625 C-8.2533522 24.3750914 -8.01061066 23.65252655 -7.76051331 22.9080658 C-6.99184073 20.62425181 -6.2148266 18.34338111 -5.4375 16.0625 C-4.91155318 14.50474497 -4.3861571 12.94680388 -3.86132812 11.38867188 C-2.58057492 7.59026747 -1.2923382 3.79447765 0 0 Z " fill="#F9D278" transform="translate(107,265)"/>
<path d="M0 0 C1.65893754 2.48840631 2.62922881 4.39365623 3.6640625 7.140625 C4.13489258 8.36579834 4.13489258 8.36579834 4.61523438 9.61572266 C4.94845703 10.48503418 5.28167969 11.3543457 5.625 12.25 C8.49398022 19.61612008 11.67521889 26.62021064 15.56103516 33.50488281 C18 37.83291001 18 37.83291001 18 40 C16.84556396 40.45713379 15.69112793 40.91426758 14.50170898 41.38525391 C0.62520556 46.89827675 -13.16239835 52.61406285 -26.9375 58.375 C-30.17533737 59.72765789 -33.41335043 61.0798937 -36.65150452 62.43179321 C-38.64394234 63.26376619 -40.63617178 64.09623847 -42.62815857 64.92929077 C-43.52422318 65.30373322 -44.42028778 65.67817566 -45.34350586 66.06396484 C-46.51543739 66.55405533 -46.51543739 66.55405533 -47.71104431 67.05404663 C-48.46639969 67.36621124 -49.22175507 67.67837585 -50 68 C-50.84240738 68.3570401 -51.68481476 68.7140802 -52.55274963 69.0819397 C-55.66206697 70.24836748 -58.71215678 70.61319491 -62 71 C-63.67274613 66.9616656 -65.345097 62.92316781 -67.01708984 58.88452148 C-67.58534189 57.51208121 -68.15369987 56.13968479 -68.72216797 54.76733398 C-69.54162339 52.78901648 -70.36069139 50.81053894 -71.1796875 48.83203125 C-71.67194824 47.64327393 -72.16420898 46.4545166 -72.67138672 45.22973633 C-73.32905029 43.63101685 -73.32905029 43.63101685 -74 42 C-74.40879395 41.11658936 -74.81758789 40.23317871 -75.23876953 39.32299805 C-76 37 -76 37 -75.98754883 34.88891602 C-74.43326421 31.91598644 -72.19339959 31.2049416 -69.19921875 29.77734375 C-68.58310226 29.4821434 -67.96698578 29.18694305 -67.3321991 28.88279724 C-58.63572579 24.7856069 -49.70911552 21.19649001 -40.8125 17.5625 C-39.06164172 16.84360347 -37.31098977 16.12420422 -35.56054688 15.40429688 C-34.695737 15.0486264 -33.83092712 14.69295593 -32.93991089 14.32650757 C-32.07931061 13.97254913 -31.21871033 13.6185907 -30.33203125 13.25390625 C-29.48134064 12.90437897 -28.63065002 12.55485168 -27.75418091 12.19473267 C-21.5823936 9.65713884 -15.41742959 7.10370374 -9.26171875 4.52734375 C-8.03555595 4.01718468 -8.03555595 4.01718468 -6.78462219 3.49671936 C-3.12939943 2.17335466 -3.12939943 2.17335466 0 0 Z " fill="#F9D278" transform="translate(183,426)"/>
<path d="M0 0 C2.80597672 2.44429476 4.07467243 4.9521282 5.57421875 8.3359375 C6.31720215 10.00112427 6.31720215 10.00112427 7.07519531 11.69995117 C7.61286449 12.92486464 8.15029256 14.14988396 8.6875 15.375 C9.24925121 16.64252166 9.81143542 17.90985149 10.37402344 19.17700195 C15.9606111 31.79299555 21.4255148 44.4633687 26.8815918 57.13623047 C27.38244545 58.29937019 27.38244545 58.29937019 27.89341736 59.48600769 C28.52265453 60.94807835 29.15131528 62.41039726 29.77931213 63.8730011 C31.32153224 67.46778289 31.32153224 67.46778289 33 71 C27.64791508 73.16658231 22.29108595 75.32080202 16.92944336 77.46362305 C15.10548754 78.19460205 13.28288403 78.92896467 11.46166992 79.66674805 C8.84640514 80.72552799 6.22654765 81.77211719 3.60546875 82.81640625 C2.38188911 83.31630821 2.38188911 83.31630821 1.1335907 83.8263092 C0.37302872 84.12669601 -0.38753326 84.42708282 -1.17114258 84.73657227 C-2.1737487 85.13961327 -2.1737487 85.13961327 -3.1966095 85.55079651 C-5 86 -5 86 -8 85 C-9.25295079 82.62862938 -10.31422239 80.33341725 -11.3359375 77.86328125 C-11.65200958 77.12388306 -11.96808167 76.38448486 -12.29373169 75.62268066 C-13.33096618 73.19012596 -14.35298296 70.75148254 -15.375 68.3125 C-16.08551565 66.63780938 -16.79711252 64.96357708 -17.50976562 63.28979492 C-18.96473771 59.87070901 -20.41481749 56.4496043 -21.86230469 53.02734375 C-23.8592994 48.31715642 -25.89389742 43.62420358 -27.9453125 38.9375 C-28.25004486 38.24037399 -28.55477722 37.54324799 -28.8687439 36.82499695 C-30.02968716 34.17000256 -31.19112073 31.51523718 -32.3571167 28.86245728 C-33.14765137 27.06210432 -33.93333556 25.25962382 -34.71875 23.45703125 C-35.16154297 22.44616455 -35.60433594 21.43529785 -36.06054688 20.39379883 C-37 18 -37 18 -37 16 C-37.99 15.67 -38.98 15.34 -40 15 C-38.76765625 14.62488281 -37.5353125 14.24976563 -36.265625 13.86328125 C-26.96602667 11.00056337 -17.88939002 7.9908823 -9 4 C-8.10023438 3.60425781 -7.20046875 3.20851563 -6.2734375 2.80078125 C-4.1780014 1.87632415 -2.08697693 0.94335573 0 0 Z " fill="#F9D277" transform="translate(440,531)"/>
<path d="M0 0 C8.63043197 2.14407634 16.87463227 5.04608745 25.1875 8.1875 C26.43798366 8.65604592 27.6886339 9.12414751 28.93945312 9.59179688 C31.96129667 10.72352979 34.98107396 11.86051693 38 13 C36.16042516 21.42134743 33.53343422 29.07460503 30.03515625 36.94140625 C29.5605748 38.03033676 29.08599335 39.11926727 28.59703064 40.24119568 C27.09428578 43.68554611 25.5791409 47.12424873 24.0625 50.5625 C22.55155843 54.00520369 21.04336639 57.4490733 19.53868103 60.89451599 C18.60671753 63.02673566 17.6709089 65.15728059 16.73048401 67.28578186 C13.88591044 73.77154535 11.33630543 80.31427972 9 87 C5.47911877 85.6259518 2.1387056 84.07687391 -1.21679688 82.33398438 C-10.55181732 77.49531669 -20.14771758 73.64899349 -30 70 C-27.68072516 62.65940124 -24.83790664 55.63213062 -21.81640625 48.5546875 C-21.07124001 46.80081223 -21.07124001 46.80081223 -20.3110199 45.01150513 C-19.26468092 42.55166042 -18.21692016 40.09248187 -17.16674805 37.63427734 C-15.82894037 34.50206331 -14.4982595 31.36687898 -13.16957188 28.23078728 C-11.88928081 25.21200792 -10.60251206 22.19599315 -9.31640625 19.1796875 C-8.84336563 18.06286591 -8.37032501 16.94604431 -7.88294983 15.79537964 C-5.53644905 10.31815662 -3.10029235 5.09135991 0 0 Z " fill="#F9D278" transform="translate(439,132)"/>
<path d="M0 0 C0.92727905 0.42297363 0.92727905 0.42297363 1.87329102 0.85449219 C18.2221618 8.26966565 18.2221618 8.26966565 35.4296875 13.18359375 C36.27789062 13.45300781 37.12609375 13.72242188 38 14 C39.2401945 17.7205835 38.6163432 18.55837354 37.09741211 22.09130859 C36.65622543 23.13024261 36.21503876 24.16917664 35.76048279 25.23959351 C35.02632896 26.92697128 35.02632896 26.92697128 34.27734375 28.6484375 C33.53080284 30.39370224 33.53080284 30.39370224 32.7691803 32.17422485 C31.43853272 35.27942834 30.0994594 38.38072411 28.75646973 41.48059082 C27.67892545 43.97312468 26.60974408 46.46919859 25.54108334 48.96555138 C20.50956208 60.71685268 15.40433155 72.41511162 10 84 C5.28173906 83.29190913 1.52625558 82.08522154 -2.82421875 80.09375 C-3.45229935 79.80898804 -4.08037994 79.52422607 -4.72749329 79.23083496 C-6.71727417 78.32720929 -8.70247286 77.41401444 -10.6875 76.5 C-12.68409018 75.58797435 -14.68157577 74.67795269 -16.67964172 73.76916504 C-18.48554597 72.94663742 -20.28910119 72.11895819 -22.0925293 71.29101562 C-24.97870062 69.95377595 -24.97870062 69.95377595 -28 69 C-27.39541176 63.26491469 -25.28006274 58.44631101 -23.02734375 53.203125 C-22.62600723 52.25548279 -22.22467072 51.30784058 -21.81117249 50.33148193 C-20.52602065 47.30169947 -19.23173307 44.27591258 -17.9375 41.25 C-17.09383772 39.26195771 -16.25073355 37.27367848 -15.40820312 35.28515625 C-10.39144054 23.46956702 -5.2569504 11.71061985 0 0 Z " fill="#F9D278" transform="translate(268,530)"/>
<path d="M0 0 C1 4 1 4 1 4 Z " fill="#FFFFFF" transform="translate(593,238)"/>
<path d="M0 0 C2 1 2 1 2 1 Z " fill="#FFFFFF" transform="translate(473,600)"/>
<path d="" fill="#FFFFFF" transform="translate(0,0)"/>
<path d="" fill="#FFFFFF" transform="translate(0,0)"/>
<path d="" fill="#FFFFFF" transform="translate(0,0)"/>
<path d="" fill="#FFFFFF" transform="translate(0,0)"/>
<path d="" fill="#FFFFFF" transform="translate(0,0)"/>
<path d="" fill="#FFFFFF" transform="translate(0,0)"/>
<path d="" fill="#FFFFFF" transform="translate(0,0)"/>
<path d="" fill="#FFFFFF" transform="translate(0,0)"/>
<path d="" fill="#FFFFFF" transform="translate(0,0)"/>
<path d="" fill="#FFFFFF" transform="translate(0,0)"/>
<path d="" fill="#FFFFFF" transform="translate(0,0)"/>
<path d="" fill="#FFFFFF" transform="translate(0,0)"/>
<path d="" fill="#FFFFFF" transform="translate(0,0)"/>
<path d="" fill="#FFFFFF" transform="translate(0,0)"/>
<path d="" fill="#FFFFFF" transform="translate(0,0)"/>
</svg>
