<?xml version="1.0" encoding="UTF-8"?>
<svg version="1.1" xmlns="http://www.w3.org/2000/svg" width="699" height="719">
<path d="M0 0 C1.27454357 1.05434804 2.52545894 2.13797019 3.75 3.25 C4.33265625 3.76691406 4.9153125 4.28382812 5.515625 4.81640625 C9.70363426 9.03271287 12.11783702 13.76945933 14.5625 19.1015625 C14.91187622 19.8545311 15.26125244 20.60749969 15.62121582 21.38328552 C18.65937232 27.96882613 21.56011754 34.61014258 24.39111328 41.28713989 C25.29802272 43.42574346 26.20913631 45.56251899 27.12109375 47.69897461 C28.52732355 50.99408416 29.93209697 54.28980934 31.3359375 57.5859375 C36.12801619 68.83351067 40.93808305 80.0734028 45.75 91.3125 C46.01051525 91.92111374 46.2710305 92.52972748 46.53944016 93.15678406 C53.17975266 108.66908393 59.86375762 124.15873785 66.70870972 139.58184814 C71.14865721 149.58693844 75.51174729 159.62177677 79.8125 169.6875 C80.11407013 170.39325165 80.41564026 171.0990033 80.72634888 171.82614136 C81.03200775 172.54150055 81.33766663 173.25685974 81.65258789 173.99389648 C82.29050186 175.4868273 82.92844187 176.97974698 83.56640625 178.47265625 C84.05645897 179.61948128 84.05645897 179.61948128 84.55641174 180.78947449 C89.09798047 191.4111903 93.67416582 202.0180119 98.25 212.625 C98.71291443 213.69814453 99.17582886 214.77128906 99.652771 215.87695312 C107.84319031 234.86069874 116.06724788 253.82977433 124.30737305 272.79199219 C129.006386 283.60771047 133.69327844 294.42838847 138.3515625 305.26171875 C138.79609268 306.29471603 139.24062286 307.32771332 139.69862366 308.39201355 C141.79894572 313.27278071 143.89659697 318.15465684 145.98901367 323.03881836 C146.72821847 324.75770754 147.46754998 326.47654224 148.20703125 328.1953125 C148.53921661 328.97384079 148.87140198 329.75236908 149.21365356 330.55448914 C150.54825152 333.64932103 151.87505137 336.43757705 153.75 339.25 C153.75 340.24 153.75 341.23 153.75 342.25 C154.41 342.58 155.07 342.91 155.75 343.25 C158.75 347.75 158.75 347.75 158.75 350.25 C159.41 350.25 160.07 350.25 160.75 350.25 C161.12125 351.1575 161.4925 352.065 161.875 353 C163.3286406 356.4170888 164.98933425 359.69824988 166.6875 363 C173.75 377.00171446 173.75 377.00171446 173.75 383.25 C174.41 383.25 175.07 383.25 175.75 383.25 C175.87117188 383.84167969 175.99234375 384.43335938 176.1171875 385.04296875 C176.28476562 385.83316406 176.45234375 386.62335938 176.625 387.4375 C176.86863281 388.60345703 176.86863281 388.60345703 177.1171875 389.79296875 C177.67778981 392.24126787 177.67778981 392.24126787 178.69140625 394.3984375 C180.29344203 398.71388442 180.99098319 403.16759572 181.8125 407.6875 C181.98587891 408.61626953 182.15925781 409.54503906 182.33789062 410.50195312 C182.81738234 413.08312502 183.28537338 415.66611803 183.75 418.25 C184.03810547 419.81041016 184.03810547 419.81041016 184.33203125 421.40234375 C186.12737271 433.63415615 185.80604022 446.05978897 185.375 458.375 C185.33197754 459.62684082 185.28895508 460.87868164 185.24462891 462.16845703 C184.88157468 471.11842532 184.88157468 471.11842532 183.75 472.25 C183.27458762 474.91473184 182.84412039 477.57461951 182.4375 480.25 C180.99478218 489.37092659 178.98334767 498.29393572 176.75 507.25 C176.09 507.25 175.43 507.25 174.75 507.25 C174.5025 508.52875 174.255 509.8075 174 511.125 C172.81548778 516.43459673 170.87565494 521.2565123 168.75 526.25 C167.83278661 528.45810631 166.91612363 530.66644133 166 532.875 C165.25071462 534.66696564 164.50097435 536.45874151 163.75 538.25 C163.09 538.25 162.43 538.25 161.75 538.25 C161.37875 539.8278125 161.37875 539.8278125 161 541.4375 C160.13034539 545.13353207 158.13322478 547.33813264 155.75 550.25 C153.89739523 553.14616062 152.11556476 556.07809493 150.3359375 559.01953125 C149.55089844 560.12361328 149.55089844 560.12361328 148.75 561.25 C148.09 561.25 147.43 561.25 146.75 561.25 C146.52828125 561.94351563 146.3065625 562.63703125 146.078125 563.3515625 C144.42862852 566.95134598 142.09046583 569.6807796 139.5 572.625 C139.00274414 573.19935791 138.50548828 573.77371582 137.99316406 574.36547852 C137.01466846 575.49548415 136.03395092 576.62357044 135.05078125 577.74951172 C133.50184762 579.53625085 132.00288443 581.36198549 130.5 583.1875 C127.60284555 586.55628425 124.39045783 589.68854384 120.75 592.25 C120.09 592.25 119.43 592.25 118.75 592.25 C118.42 593.24 118.09 594.23 117.75 595.25 C115.7034412 597.05404749 113.66453803 598.72421722 111.5 600.375 C110.87754395 600.85565918 110.25508789 601.33631836 109.61376953 601.83154297 C91.83157986 615.44764529 91.83157986 615.44764529 86.75 616.25 C86.75 616.91 86.75 617.57 86.75 618.25 C84.44 618.91 82.13 619.57 79.75 620.25 C79.75 620.91 79.75 621.57 79.75 622.25 C79.22792969 622.48074219 78.70585937 622.71148438 78.16796875 622.94921875 C73.78364205 624.89183636 69.41641104 626.86504381 65.0625 628.875 C55.42403846 633.25 55.42403846 633.25 49.75 633.25 C49.75 633.91 49.75 634.57 49.75 635.25 C49.01394531 635.44335938 48.27789062 635.63671875 47.51953125 635.8359375 C46.54371094 636.09632813 45.56789063 636.35671875 44.5625 636.625 C43.11810547 637.00785156 43.11810547 637.00785156 41.64453125 637.3984375 C38.92435828 638.19870431 36.37889641 639.19511898 33.75 640.25 C25.82883833 642.6431002 17.89901765 643.87412562 9.70703125 644.8203125 C6.86889691 644.93174457 6.86889691 644.93174457 5.75 646.25 C4.22535067 646.39488463 2.69462108 646.47705052 1.1640625 646.53125 C0.23335937 646.56863281 -0.69734375 646.60601563 -1.65625 646.64453125 C-2.6359375 646.67933594 -3.615625 646.71414063 -4.625 646.75 C-6.54962648 646.81891899 -8.47412055 646.89167101 -10.3984375 646.96875 C-11.25614746 646.99904297 -12.11385742 647.02933594 -12.99755859 647.06054688 C-15.41779201 647.17504068 -15.41779201 647.17504068 -18.25 648.25 C-19.92018463 647.93476648 -21.58662871 647.5994064 -23.25 647.25 C-25.00048708 647.2555748 -26.75103857 647.30171949 -28.5 647.375 C-44.79076606 647.50473306 -61.34415709 644.59236043 -77.25 641.25 C-77.25 640.59 -77.25 639.93 -77.25 639.25 C-78.57 639.58 -79.89 639.91 -81.25 640.25 C-81.25 639.59 -81.25 638.93 -81.25 638.25 C-81.82105469 638.15203125 -82.39210938 638.0540625 -82.98046875 637.953125 C-90.25770534 636.61105911 -97.21345483 634.52198794 -104.25 632.25 C-104.25 631.59 -104.25 630.93 -104.25 630.25 C-104.84425781 630.10304688 -105.43851562 629.95609375 -106.05078125 629.8046875 C-113.09801129 627.89766102 -118.95922255 624.90111789 -125.25 621.25 C-126.39082031 620.61578125 -127.53164062 619.9815625 -128.70703125 619.328125 C-138.1639062 614.06230665 -147.03433218 608.31929557 -155.25 601.25 C-156.19875 600.528125 -157.1475 599.80625 -158.125 599.0625 C-158.82625 598.464375 -159.5275 597.86625 -160.25 597.25 C-160.25 596.59 -160.25 595.93 -160.25 595.25 C-160.971875 595.023125 -161.69375 594.79625 -162.4375 594.5625 C-166.74589548 592.55191544 -169.35721313 589.39388318 -172.25 585.6875 C-174.15744373 583.18574543 -174.15744373 583.18574543 -176.625 581.375 C-181.14418595 577.71661137 -184.6019968 573.23781685 -187.9375 568.5 C-189.99119758 565.41061402 -189.99119758 565.41061402 -191.8515625 563.68359375 C-193.5404587 561.95223926 -193.84469842 560.60074915 -194.25 558.25 C-194.91 558.25 -195.57 558.25 -196.25 558.25 C-198.25 555.25 -198.25 555.25 -198.25 552.25 C-198.91 552.25 -199.57 552.25 -200.25 552.25 C-200.518125 551.486875 -200.78625 550.72375 -201.0625 549.9375 C-202.03263638 547.25787946 -202.03263638 547.25787946 -203.8125 545.8125 C-205.9076525 543.53516033 -205.91634356 541.25290797 -206.25 538.25 C-206.91 538.25 -207.57 538.25 -208.25 538.25 C-210.92445234 532.46863068 -213.54363474 526.66346417 -216.0625 520.8125 C-216.48144531 519.84441406 -216.90039062 518.87632812 -217.33203125 517.87890625 C-218.25 515.25 -218.25 515.25 -218.25 511.25 C-218.91 511.25 -219.57 511.25 -220.25 511.25 C-220.58 507.95 -220.91 504.65 -221.25 501.25 C-221.91 501.25 -222.57 501.25 -223.25 501.25 C-227.58031554 484.58095332 -229.85373406 468.69739716 -230.1875 451.5 C-230.20505341 450.64678162 -230.22260681 449.79356323 -230.24069214 448.91448975 C-230.28490473 446.48983989 -230.31684312 444.06556275 -230.33984375 441.640625 C-230.34781982 440.90653412 -230.3557959 440.17244324 -230.36401367 439.41610718 C-230.36650626 437.69365393 -230.3140725 435.97126294 -230.25 434.25 C-229.92 433.92 -229.59 433.59 -229.25 433.25 C-229.20372155 431.58397597 -229.21213099 429.91623639 -229.25 428.25 C-229.28786901 426.58376361 -229.29627845 424.91602403 -229.25 423.25 C-228.92 422.92 -228.59 422.59 -228.25 422.25 C-228.17851801 420.89756083 -228.16600546 419.54165633 -228.1875 418.1875 C-228.208125 416.888125 -228.22875 415.58875 -228.25 414.25 C-227.59 414.25 -226.93 414.25 -226.25 414.25 C-226.1675 412.950625 -226.085 411.65125 -226 410.3125 C-225.49837838 405.29628379 -224.5113006 400.46532795 -223.375 395.5625 C-223.21354492 394.85037354 -223.05208984 394.13824707 -222.88574219 393.40454102 C-221.77858341 388.7732851 -220.21030842 384.60624094 -218.25 380.25 C-217.28636753 377.81459008 -216.32814415 375.37703382 -215.375 372.9375 C-213.36407712 367.86553319 -211.23320191 362.93082421 -208.71875 358.08349609 C-202.75059732 346.5698026 -197.26155136 334.96168982 -192.21426392 323.01522827 C-190.67786186 319.37935366 -189.12959507 315.74856118 -187.58241272 312.11726379 C-186.75318962 310.1707143 -185.92453351 308.22392317 -185.09642029 306.27690125 C-180.29049934 294.98041016 -175.42775953 283.7085314 -170.5625 272.4375 C-169.87905014 270.85332779 -169.87905014 270.85332779 -169.18179321 269.2371521 C-161.91657944 252.39742275 -154.61920097 235.57176207 -147.3125 218.75 C-140.8476915 203.8658529 -134.39042491 188.97876355 -128 174.0625 C-127.55057541 173.01358582 -127.55057541 173.01358582 -127.09207153 171.94348145 C-124.08782349 164.92789531 -121.1003358 157.90559112 -118.140625 150.87109375 C-117.64981445 149.70537842 -117.15900391 148.53966309 -116.65332031 147.33862305 C-115.76947314 145.2358725 -114.8882404 143.13201926 -114.01074219 141.02661133 C-111.82677969 135.82345861 -109.53176243 130.69625983 -107.11328125 125.59765625 C-102.42404386 115.67128101 -98.1995338 105.54271188 -93.91918945 95.43527222 C-92.41071429 91.87426792 -90.89829587 88.31496196 -89.38476562 84.75610352 C-85.42974736 75.45516379 -81.47842711 66.15266456 -77.53759766 56.84570312 C-75.49119935 52.01294307 -73.43923447 47.18258419 -71.38320923 42.35391235 C-70.63898421 40.60276991 -69.8970286 38.85066089 -69.15756226 37.09750366 C-54.42165109 2.16515309 -54.42165109 2.16515309 -35.25 -5.75 C-23.692019 -9.67444904 -9.73726878 -6.80122209 0 0 Z " fill="#1B55A4" transform="translate(363.25,26.75)"/>
<path d="M0 0 C1.27454357 1.05434804 2.52545894 2.13797019 3.75 3.25 C4.33265625 3.76691406 4.9153125 4.28382812 5.515625 4.81640625 C9.70363426 9.03271287 12.11783702 13.76945933 14.5625 19.1015625 C14.91187622 19.8545311 15.26125244 20.60749969 15.62121582 21.38328552 C18.65937232 27.96882613 21.56011754 34.61014258 24.39111328 41.28713989 C25.29802272 43.42574346 26.20913631 45.56251899 27.12109375 47.69897461 C28.52732355 50.99408416 29.93209697 54.28980934 31.3359375 57.5859375 C36.12801619 68.83351067 40.93808305 80.0734028 45.75 91.3125 C46.01051525 91.92111374 46.2710305 92.52972748 46.53944016 93.15678406 C53.17975266 108.66908393 59.86375762 124.15873785 66.70870972 139.58184814 C71.14865721 149.58693844 75.51174729 159.62177677 79.8125 169.6875 C80.11407013 170.39325165 80.41564026 171.0990033 80.72634888 171.82614136 C81.03200775 172.54150055 81.33766663 173.25685974 81.65258789 173.99389648 C82.29050186 175.4868273 82.92844187 176.97974698 83.56640625 178.47265625 C84.05645897 179.61948128 84.05645897 179.61948128 84.55641174 180.78947449 C89.09798047 191.4111903 93.67416582 202.0180119 98.25 212.625 C98.71291443 213.69814453 99.17582886 214.77128906 99.652771 215.87695312 C107.84319031 234.86069874 116.06724788 253.82977433 124.30737305 272.79199219 C129.006386 283.60771047 133.69327844 294.42838847 138.3515625 305.26171875 C138.79609268 306.29471603 139.24062286 307.32771332 139.69862366 308.39201355 C141.79894572 313.27278071 143.89659697 318.15465684 145.98901367 323.03881836 C146.72821847 324.75770754 147.46754998 326.47654224 148.20703125 328.1953125 C148.53921661 328.97384079 148.87140198 329.75236908 149.21365356 330.55448914 C150.54825152 333.64932103 151.87505137 336.43757705 153.75 339.25 C153.75 340.24 153.75 341.23 153.75 342.25 C154.41 342.58 155.07 342.91 155.75 343.25 C158.75 347.75 158.75 347.75 158.75 350.25 C159.41 350.25 160.07 350.25 160.75 350.25 C161.12125 351.1575 161.4925 352.065 161.875 353 C163.3286406 356.4170888 164.98933425 359.69824988 166.6875 363 C173.75 377.00171446 173.75 377.00171446 173.75 383.25 C174.41 383.25 175.07 383.25 175.75 383.25 C175.87117188 383.84167969 175.99234375 384.43335938 176.1171875 385.04296875 C176.28476562 385.83316406 176.45234375 386.62335938 176.625 387.4375 C176.86863281 388.60345703 176.86863281 388.60345703 177.1171875 389.79296875 C177.67778981 392.24126787 177.67778981 392.24126787 178.69140625 394.3984375 C180.29344203 398.71388442 180.99098319 403.16759572 181.8125 407.6875 C181.98587891 408.61626953 182.15925781 409.54503906 182.33789062 410.50195312 C182.81738234 413.08312502 183.28537338 415.66611803 183.75 418.25 C184.03810547 419.81041016 184.03810547 419.81041016 184.33203125 421.40234375 C186.12737271 433.63415615 185.80604022 446.05978897 185.375 458.375 C185.33197754 459.62684082 185.28895508 460.87868164 185.24462891 462.16845703 C184.88157468 471.11842532 184.88157468 471.11842532 183.75 472.25 C183.27458762 474.91473184 182.84412039 477.57461951 182.4375 480.25 C180.99478218 489.37092659 178.98334767 498.29393572 176.75 507.25 C176.09 507.25 175.43 507.25 174.75 507.25 C174.5025 508.52875 174.255 509.8075 174 511.125 C172.81548778 516.43459673 170.87565494 521.2565123 168.75 526.25 C167.83278661 528.45810631 166.91612363 530.66644133 166 532.875 C165.25071462 534.66696564 164.50097435 536.45874151 163.75 538.25 C163.09 538.25 162.43 538.25 161.75 538.25 C161.37875 539.8278125 161.37875 539.8278125 161 541.4375 C160.13034539 545.13353207 158.13322478 547.33813264 155.75 550.25 C153.89739523 553.14616062 152.11556476 556.07809493 150.3359375 559.01953125 C149.55089844 560.12361328 149.55089844 560.12361328 148.75 561.25 C148.09 561.25 147.43 561.25 146.75 561.25 C146.52828125 561.94351563 146.3065625 562.63703125 146.078125 563.3515625 C144.42862852 566.95134598 142.09046583 569.6807796 139.5 572.625 C139.00274414 573.19935791 138.50548828 573.77371582 137.99316406 574.36547852 C137.01466846 575.49548415 136.03395092 576.62357044 135.05078125 577.74951172 C133.50184762 579.53625085 132.00288443 581.36198549 130.5 583.1875 C127.60284555 586.55628425 124.39045783 589.68854384 120.75 592.25 C120.09 592.25 119.43 592.25 118.75 592.25 C118.42 593.24 118.09 594.23 117.75 595.25 C115.7034412 597.05404749 113.66453803 598.72421722 111.5 600.375 C110.87754395 600.85565918 110.25508789 601.33631836 109.61376953 601.83154297 C91.83157986 615.44764529 91.83157986 615.44764529 86.75 616.25 C86.75 616.91 86.75 617.57 86.75 618.25 C84.44 618.91 82.13 619.57 79.75 620.25 C79.75 620.91 79.75 621.57 79.75 622.25 C79.22792969 622.48074219 78.70585937 622.71148438 78.16796875 622.94921875 C73.78364205 624.89183636 69.41641104 626.86504381 65.0625 628.875 C55.42403846 633.25 55.42403846 633.25 49.75 633.25 C49.75 633.91 49.75 634.57 49.75 635.25 C49.01394531 635.44335938 48.27789062 635.63671875 47.51953125 635.8359375 C46.54371094 636.09632813 45.56789063 636.35671875 44.5625 636.625 C43.11810547 637.00785156 43.11810547 637.00785156 41.64453125 637.3984375 C38.92435828 638.19870431 36.37889641 639.19511898 33.75 640.25 C25.82883833 642.6431002 17.89901765 643.87412562 9.70703125 644.8203125 C6.86889691 644.93174457 6.86889691 644.93174457 5.75 646.25 C4.22535067 646.39488463 2.69462108 646.47705052 1.1640625 646.53125 C0.23335937 646.56863281 -0.69734375 646.60601563 -1.65625 646.64453125 C-2.6359375 646.67933594 -3.615625 646.71414063 -4.625 646.75 C-6.54962648 646.81891899 -8.47412055 646.89167101 -10.3984375 646.96875 C-11.25614746 646.99904297 -12.11385742 647.02933594 -12.99755859 647.06054688 C-15.41779201 647.17504068 -15.41779201 647.17504068 -18.25 648.25 C-19.92018463 647.93476648 -21.58662871 647.5994064 -23.25 647.25 C-25.00048708 647.2555748 -26.75103857 647.30171949 -28.5 647.375 C-44.79076606 647.50473306 -61.34415709 644.59236043 -77.25 641.25 C-77.25 640.59 -77.25 639.93 -77.25 639.25 C-78.57 639.58 -79.89 639.91 -81.25 640.25 C-81.25 639.59 -81.25 638.93 -81.25 638.25 C-81.82105469 638.15203125 -82.39210938 638.0540625 -82.98046875 637.953125 C-90.25770534 636.61105911 -97.21345483 634.52198794 -104.25 632.25 C-104.25 631.59 -104.25 630.93 -104.25 630.25 C-104.84425781 630.10304688 -105.43851562 629.95609375 -106.05078125 629.8046875 C-113.09801129 627.89766102 -118.95922255 624.90111789 -125.25 621.25 C-126.39082031 620.61578125 -127.53164062 619.9815625 -128.70703125 619.328125 C-138.1639062 614.06230665 -147.03433218 608.31929557 -155.25 601.25 C-156.19875 600.528125 -157.1475 599.80625 -158.125 599.0625 C-158.82625 598.464375 -159.5275 597.86625 -160.25 597.25 C-160.25 596.59 -160.25 595.93 -160.25 595.25 C-160.971875 595.023125 -161.69375 594.79625 -162.4375 594.5625 C-166.74589548 592.55191544 -169.35721313 589.39388318 -172.25 585.6875 C-174.15744373 583.18574543 -174.15744373 583.18574543 -176.625 581.375 C-181.14418595 577.71661137 -184.6019968 573.23781685 -187.9375 568.5 C-189.99119758 565.41061402 -189.99119758 565.41061402 -191.8515625 563.68359375 C-193.5404587 561.95223926 -193.84469842 560.60074915 -194.25 558.25 C-194.91 558.25 -195.57 558.25 -196.25 558.25 C-198.25 555.25 -198.25 555.25 -198.25 552.25 C-198.91 552.25 -199.57 552.25 -200.25 552.25 C-200.518125 551.486875 -200.78625 550.72375 -201.0625 549.9375 C-202.03263638 547.25787946 -202.03263638 547.25787946 -203.8125 545.8125 C-205.9076525 543.53516033 -205.91634356 541.25290797 -206.25 538.25 C-206.91 538.25 -207.57 538.25 -208.25 538.25 C-210.92445234 532.46863068 -213.54363474 526.66346417 -216.0625 520.8125 C-216.48144531 519.84441406 -216.90039062 518.87632812 -217.33203125 517.87890625 C-218.25 515.25 -218.25 515.25 -218.25 511.25 C-218.91 511.25 -219.57 511.25 -220.25 511.25 C-220.58 507.95 -220.91 504.65 -221.25 501.25 C-221.91 501.25 -222.57 501.25 -223.25 501.25 C-227.58031554 484.58095332 -229.85373406 468.69739716 -230.1875 451.5 C-230.20505341 450.64678162 -230.22260681 449.79356323 -230.24069214 448.91448975 C-230.28490473 446.48983989 -230.31684312 444.06556275 -230.33984375 441.640625 C-230.34781982 440.90653412 -230.3557959 440.17244324 -230.36401367 439.41610718 C-230.36650626 437.69365393 -230.3140725 435.97126294 -230.25 434.25 C-229.92 433.92 -229.59 433.59 -229.25 433.25 C-229.20372155 431.58397597 -229.21213099 429.91623639 -229.25 428.25 C-229.28786901 426.58376361 -229.29627845 424.91602403 -229.25 423.25 C-228.92 422.92 -228.59 422.59 -228.25 422.25 C-228.17851801 420.89756083 -228.16600546 419.54165633 -228.1875 418.1875 C-228.208125 416.888125 -228.22875 415.58875 -228.25 414.25 C-227.59 414.25 -226.93 414.25 -226.25 414.25 C-226.1675 412.950625 -226.085 411.65125 -226 410.3125 C-225.49837838 405.29628379 -224.5113006 400.46532795 -223.375 395.5625 C-223.21354492 394.85037354 -223.05208984 394.13824707 -222.88574219 393.40454102 C-221.77858341 388.7732851 -220.21030842 384.60624094 -218.25 380.25 C-217.28636753 377.81459008 -216.32814415 375.37703382 -215.375 372.9375 C-213.36407712 367.86553319 -211.23320191 362.93082421 -208.71875 358.08349609 C-202.75059732 346.5698026 -197.26155136 334.96168982 -192.21426392 323.01522827 C-190.67786186 319.37935366 -189.12959507 315.74856118 -187.58241272 312.11726379 C-186.75318962 310.1707143 -185.92453351 308.22392317 -185.09642029 306.27690125 C-180.29049934 294.98041016 -175.42775953 283.7085314 -170.5625 272.4375 C-169.87905014 270.85332779 -169.87905014 270.85332779 -169.18179321 269.2371521 C-161.91657944 252.39742275 -154.61920097 235.57176207 -147.3125 218.75 C-140.8476915 203.8658529 -134.39042491 188.97876355 -128 174.0625 C-127.55057541 173.01358582 -127.55057541 173.01358582 -127.09207153 171.94348145 C-124.08782349 164.92789531 -121.1003358 157.90559112 -118.140625 150.87109375 C-117.64981445 149.70537842 -117.15900391 148.53966309 -116.65332031 147.33862305 C-115.76947314 145.2358725 -114.8882404 143.13201926 -114.01074219 141.02661133 C-111.82677969 135.82345861 -109.53176243 130.69625983 -107.11328125 125.59765625 C-102.42404386 115.67128101 -98.1995338 105.54271188 -93.91918945 95.43527222 C-92.41071429 91.87426792 -90.89829587 88.31496196 -89.38476562 84.75610352 C-85.42974736 75.45516379 -81.47842711 66.15266456 -77.53759766 56.84570312 C-75.49119935 52.01294307 -73.43923447 47.18258419 -71.38320923 42.35391235 C-70.63898421 40.60276991 -69.8970286 38.85066089 -69.15756226 37.09750366 C-54.42165109 2.16515309 -54.42165109 2.16515309 -35.25 -5.75 C-23.692019 -9.67444904 -9.73726878 -6.80122209 0 0 Z M-40.61230469 23.93554688 C-43.38001421 27.84697893 -45.12053705 32.06185854 -46.875 36.5 C-47.40867187 37.79744141 -47.40867187 37.79744141 -47.953125 39.12109375 C-48.68337896 40.89944603 -49.40723843 42.68043623 -50.125 44.46386719 C-53.64640122 53.1848374 -57.33320287 61.83940817 -61 70.5 C-61.45391113 71.57338623 -61.90782227 72.64677246 -62.37548828 73.75268555 C-65.05490215 80.08373269 -67.74341094 86.41080784 -70.44165039 92.7338562 C-71.95940658 96.29075871 -73.47557723 99.84833647 -74.99182129 103.40588379 C-75.73861146 105.15665342 -76.48623167 106.90706926 -77.23474121 108.65710449 C-81.03728703 117.54790608 -84.79858592 126.42869422 -88.16723633 135.49487305 C-89.34090763 138.48131738 -90.67457768 141.35752324 -92.0625 144.25 C-95.19431187 150.87684934 -97.75970791 157.68067378 -100.27075195 164.56445312 C-102.22767198 169.85250374 -104.49120069 174.83053331 -107.06518555 179.84545898 C-108.8418514 183.45114249 -110.23274711 187.1705765 -111.625 190.9375 C-114.0996817 197.47455013 -116.82251958 203.81605334 -119.83105469 210.12329102 C-122.68115332 216.10736587 -125.10817285 222.19248279 -127.42578125 228.3984375 C-128.05033203 230.05746094 -128.05033203 230.05746094 -128.6875 231.75 C-129.05746094 232.7503125 -129.42742187 233.750625 -129.80859375 234.78125 C-130.96056038 237.55346237 -132.19597223 240.15429928 -133.5625 242.8203125 C-136.66712833 248.94573788 -139.22854518 255.26631785 -141.8125 261.625 C-142.86307062 264.19256557 -143.91728261 266.75862407 -144.97265625 269.32421875 C-145.24063019 269.97608658 -145.50860413 270.62795441 -145.78469849 271.29957581 C-149.17859189 279.53416761 -152.70715688 287.71068561 -156.24047852 295.88623047 C-158.66303368 301.50167908 -161.02096325 307.13116509 -163.27148438 312.81762695 C-165.37741076 318.05249335 -167.65351147 323.2164753 -169.89453125 328.39453125 C-171.65629829 332.48110428 -173.38760441 336.56996865 -175.0078125 340.71484375 C-176.93808472 345.58252823 -179.03579737 350.36971611 -181.1484375 355.16015625 C-181.68800079 356.38555618 -181.68800079 356.38555618 -182.23846436 357.63571167 C-183.73991034 361.04354205 -185.2423239 364.45089945 -186.75390625 367.85424805 C-196.43667392 389.5506321 -196.43667392 389.5506321 -202.5625 412.4375 C-202.71783203 413.19740234 -202.87316406 413.95730469 -203.03320312 414.74023438 C-207.7267188 439.13442959 -206.385856 465.09519597 -201.25 489.25 C-201.01152344 490.44625 -200.77304688 491.6425 -200.52734375 492.875 C-198.720887 501.00946395 -195.50472076 508.60989521 -192.25 516.25 C-191.79898926 517.33039551 -191.79898926 517.33039551 -191.33886719 518.43261719 C-182.77410953 538.89731851 -171.29125324 556.94261077 -156.1328125 573.21484375 C-154.56538562 574.90909563 -153.11510793 576.62699061 -151.6875 578.4375 C-125.67629965 608.45042348 -83.27940741 625.54309226 -44.8515625 630.85546875 C-42.25 631.25 -42.25 631.25 -40.33203125 631.765625 C-34.81147293 633.04995752 -28.90111733 632.96772088 -23.25 633.25 C-21.66251953 633.33314453 -21.66251953 633.33314453 -20.04296875 633.41796875 C-7.64483856 633.75219306 5.06803898 631.60869852 16.9375 628.06640625 C19.87535071 627.21361348 22.82730468 626.48508678 25.80029297 625.76708984 C31.95073041 624.27901279 37.9010953 622.6959056 43.75 620.25 C44.80316406 619.81558594 45.85632813 619.38117187 46.94140625 618.93359375 C51.12348992 617.13780006 55.11683524 615.02610696 59.125 612.875 C59.87885986 612.47144287 60.63271973 612.06788574 61.40942383 611.65209961 C62.88348439 610.86192921 64.35690367 610.070561 65.82958984 609.27783203 C67.33380425 608.47275415 68.84692855 607.68431936 70.36328125 606.90234375 C81.63514631 600.97983838 91.49675876 592.90871668 100.75 584.25 C102.47802939 582.72787457 104.20719895 581.20704258 105.9375 579.6875 C110.24632725 575.79414287 114.10120169 571.76421842 117.75 567.25 C118.49765625 566.32832031 119.2453125 565.40664063 120.015625 564.45703125 C143.47603177 535.01560243 159.74037261 498.31843117 160.75 460.25 C160.79084717 458.74566406 160.79084717 458.74566406 160.83251953 457.2109375 C161.23485677 439.59919439 161.12370231 422.35609607 155.42578125 405.49609375 C154.65891912 402.94727454 154.26987106 400.44374362 153.875 397.8125 C153.02276655 392.79066159 151.31257709 388.67873033 149.09765625 384.11328125 C147.69816565 381.13987078 146.52498536 378.14051361 145.375 375.0625 C143.37692276 369.78536961 141.19181789 364.62407924 138.90332031 359.46704102 C135.54332161 351.85393541 132.33790865 344.17596132 129.125 336.5 C128.84736816 335.83695862 128.56973633 335.17391724 128.28369141 334.49078369 C127.46740189 332.54088598 126.65153859 330.59081076 125.8359375 328.640625 C125.44157501 327.69768837 125.44157501 327.69768837 125.03924561 326.73570251 C123.80273546 323.77693794 122.57063317 320.81644705 121.34472656 317.85327148 C119.24703076 312.78593189 117.11434487 307.76284707 114.75 302.8125 C112.29749495 297.55623597 110.13550157 292.246757 108.12109375 286.80859375 C103.99364794 276.09604921 99.34731328 265.5792483 94.84899902 255.01818848 C89.03238876 241.35952386 83.23587857 227.69278154 77.5 214 C77.24009277 213.37958832 76.98018555 212.75917664 76.71240234 212.1199646 C72.37630559 201.76607713 72.37630559 201.76607713 70.35131836 196.86425781 C69.68821655 195.2608252 69.68821655 195.2608252 69.01171875 193.625 C68.42716919 192.20574219 68.42716919 192.20574219 67.83081055 190.7578125 C66.90614183 188.61229702 65.9157496 186.55751803 64.8125 184.5 C62.45649799 179.95014997 60.76902815 175.13378487 59.03149414 170.32324219 C57.47004944 166.03284812 55.72176107 161.87247906 53.84326172 157.71166992 C51.29036797 151.96338326 48.94514076 146.12344821 46.54882812 140.30859375 C44.53467138 135.4459773 42.48102963 130.61595941 40.27734375 125.8359375 C36.8749598 118.42429023 33.89382352 110.84344288 30.85546875 103.27734375 C28.37448466 97.13428736 25.78702741 91.07258625 23.01416016 85.05615234 C20.6011225 79.69974933 18.41323523 74.24869417 16.1875 68.8125 C14.32108309 64.28512339 12.44659312 59.76107445 10.57263184 55.23681641 C10.02375036 53.91116053 9.47532984 52.58531369 8.92736816 51.25927734 C7.32482042 47.38266073 5.71132018 43.51094798 4.08206177 39.64547729 C3.32992391 37.85400105 2.58853572 36.05802366 1.84741211 34.26196289 C-1.47514866 26.41508859 -4.63895503 19.62852809 -12.73828125 15.94140625 C-23.99801351 12.84191541 -33.21910248 15.03444031 -40.61230469 23.93554688 Z " fill="#FDFDFE" transform="translate(363.25,26.75)"/>
<path d="M0 0 C1.21236328 0.01353516 1.21236328 0.01353516 2.44921875 0.02734375 C3.37154297 0.04474609 3.37154297 0.04474609 4.3125 0.0625 C4.3125 0.7225 4.3125 1.3825 4.3125 2.0625 C4.869375 2.124375 5.42625 2.18625 6 2.25 C10.79453114 3.934565 13.40181509 7.84773461 15.8125 12.125 C19.38237246 19.58006488 20.91664203 27.79134915 22.76367188 35.80419922 C23.24083227 37.76760389 23.80631036 39.70913309 24.38671875 41.64453125 C25.46189538 45.61406521 26.00623789 49.48035818 26.4375 53.5625 C26.52169189 54.35221191 26.60588379 55.14192383 26.69262695 55.95556641 C27.42626001 63.34541428 27.54493279 70.63917779 27.3125 78.0625 C27.28349609 79.25891113 27.28349609 79.25891113 27.25390625 80.47949219 C26.99790395 90.40711098 26.58458676 99.61509313 23.3125 109.0625 C22.79514058 110.72040966 22.28117007 112.37937852 21.76953125 114.0390625 C18.8623627 123.31556558 16.09913274 132.13266995 10.3125 140.0625 C9.71824219 140.91199219 9.12398438 141.76148438 8.51171875 142.63671875 C6.48809995 145.4795179 4.40975917 148.27363131 2.3125 151.0625 C1.53777344 152.10664062 0.76304687 153.15078125 -0.03515625 154.2265625 C-9.6423991 167.06445736 -19.64463289 177.35441142 -32.71630859 186.63964844 C-35.49821629 188.64769377 -38.20889637 190.74669913 -40.91918945 192.85009766 C-45.78481214 196.18610238 -52.0547892 195.71815946 -57.6875 195.0625 C-61.39474392 193.39567715 -63.29484232 190.63839793 -65.5625 187.3125 C-66.9909431 183.1858866 -67.59934653 179.37043636 -66.6875 175.0625 C-64.12525187 170.52195796 -61.1527353 167.45902934 -57.125 164.1875 C-56.60268799 163.76041748 -56.08037598 163.33333496 -55.54223633 162.89331055 C-52.07672369 160.0888404 -48.50841166 157.45954006 -44.875 154.875 C-36.33935866 148.73618632 -30.71228824 141.62630614 -24.6875 133.0625 C-23.81440038 131.85799519 -22.93931767 130.65492596 -22.0625 129.453125 C-21.16657235 128.21881846 -20.27073782 126.98444431 -19.375 125.75 C-18.95436279 125.17564209 -18.53372559 124.60128418 -18.1003418 124.00952148 C-13.75129538 117.97019994 -11.25255095 112.22639266 -9.44921875 105.0703125 C-8.95919642 103.13535255 -8.42340233 101.21111666 -7.83203125 99.3046875 C-4.65073359 88.10293516 -5.34376836 76.59886611 -5.6875 65.0625 C-5.70828613 64.30066406 -5.72907227 63.53882813 -5.75048828 62.75390625 C-5.95762549 56.35873685 -6.49108344 50.59596193 -8.80078125 44.61328125 C-10.2515347 40.43996847 -11.17663986 36.12663816 -12.15356445 31.82080078 C-13.16939299 27.53548785 -14.72050693 23.98004887 -16.6875 20.0625 C-17.54443621 15.4304124 -17.1396974 11.95014675 -15 7.75 C-10.52303847 2.54704471 -6.9379172 -0.10054952 0 0 Z " fill="#5790DE" transform="translate(470.6875,411.9375)"/>
<path d="M0 0 C12.93318353 6.33521631 16.96682899 23.66746765 21.62890625 35.984375 C23.45011641 40.60056376 25.44875993 45.13022555 27.46020508 49.66601562 C29.08881294 53.3452152 30.65044645 57.03273032 32.10546875 60.78515625 C33.40165234 64.11184203 34.8917201 67.24485468 36.54296875 70.41015625 C38.57210171 74.38233774 39.91480918 78.23003577 41.109375 82.515625 C43.92047801 91.85655475 47.64082858 100.94790732 51.765625 109.77734375 C53.51968445 113.57874589 55.13291288 117.43116182 56.7109375 121.30859375 C57.57946006 123.43046118 58.47955832 125.53960279 59.40625 127.63671875 C62.50829311 134.95928813 64.27534139 141.43709786 62.98046875 149.41015625 C60.81456023 153.90241095 58.09853422 156.64386574 53.98046875 159.41015625 C48.81016826 160.43740585 44.11426485 160.44369276 38.98046875 159.41015625 C35.88351859 156.87230152 34.51768675 154.0572813 32.98046875 150.41015625 C32.42359375 149.44078125 31.86671875 148.47140625 31.29296875 147.47265625 C30.22845661 144.98879458 29.4986178 142.74900622 28.79296875 140.16015625 C27.38394066 135.21749226 25.37007868 130.69174742 23.23046875 126.03515625 C20.27304834 119.572167 17.7031155 113.07758901 15.41796875 106.34765625 C11.36838445 94.43053866 6.63084178 82.88104543 1.3515625 71.45703125 C-2.63280911 62.60287211 -6.30887654 53.60317945 -9.984375 44.6171875 C-10.29584473 43.85615723 -10.60731445 43.09512695 -10.92822266 42.31103516 C-11.51229117 40.8806826 -12.09415296 39.44942606 -12.67333984 38.01708984 C-14.29023554 34.05102654 -16.08102607 30.22776951 -18.01953125 26.41015625 C-20.93036472 19.86700067 -22.97367806 13.77773322 -20.95703125 6.66015625 C-16.22265507 -1.281378 -8.53188969 -2.49190589 0 0 Z " fill="#5790DE" transform="translate(349.01953125,70.58984375)"/>
</svg>
