<?xml version="1.0" encoding="UTF-8"?>
<svg version="1.1" xmlns="http://www.w3.org/2000/svg" width="4000" height="3000">
<path d="M0 0 C22.77 0 45.54 0 69 0 C69 0.66 69 1.32 69 2 C69.85271484 1.98259766 69.85271484 1.98259766 70.72265625 1.96484375 C75.60670484 1.90776806 80.18503965 2.18043228 85 3 C85 3.66 85 4.32 85 5 C85.59425781 5.02578125 86.18851563 5.0515625 86.80078125 5.078125 C92.82693881 5.49049037 97.85666825 6.81242801 103.45703125 9.0625 C105.96504963 9.98711507 108.3699441 10.54670491 111 11 C111 11.66 111 12.32 111 13 C114.96 13.495 114.96 13.495 119 14 C119 14.66 119 15.32 119 16 C121.31 16.33 123.62 16.66 126 17 C126 17.66 126 18.32 126 19 C126.9075 19.12375 127.815 19.2475 128.75 19.375 C131.58970323 19.92109677 133.52590591 20.57263803 136 22 C136 22.66 136 23.32 136 24 C137.98 24.33 139.96 24.66 142 25 C142 25.66 142 26.32 142 27 C143.65 27.33 145.3 27.66 147 28 C147 28.66 147 29.32 147 30 C148.32 30.33 149.64 30.66 151 31 C151 31.66 151 32.32 151 33 C152.98 33.33 154.96 33.66 157 34 C157 34.66 157 35.32 157 36 C157.66 36 158.32 36 159 36 C159 36.66 159 37.32 159 38 C159.763125 38.28875 160.52625 38.5775 161.3125 38.875 C164 40 164 40 167 42 C167 42.66 167 43.32 167 44 C168.2065625 44.185625 168.2065625 44.185625 169.4375 44.375 C170.283125 44.58125 171.12875 44.7875 172 45 C172.33 45.66 172.66 46.32 173 47 C173.99 47.33 174.98 47.66 176 48 C177.53515625 49.59375 177.53515625 49.59375 179.0625 51.5 C181.17721767 54.18106401 181.17721767 54.18106401 184 56 C184 56.66 184 57.32 184 58 C184.99 58.33 185.98 58.66 187 59 C187 59.66 187 60.32 187 61 C187.61875 61.0825 188.2375 61.165 188.875 61.25 C191 62 191 62 192.125 64 C192.558125 64.99 192.558125 64.99 193 66 C193.66 66.33 194.32 66.66 195 67 C195 67.66 195 68.32 195 69 C195.99 69.33 196.98 69.66 198 70 C198 70.66 198 71.32 198 72 C198.99 72.33 199.98 72.66 201 73 C203.04296875 75.1796875 203.04296875 75.1796875 205.1875 77.875 C205.90292969 78.75929688 206.61835937 79.64359375 207.35546875 80.5546875 C209 83 209 83 209 86 C209.99 86.33 210.98 86.66 212 87 C212 87.66 212 88.32 212 89 C212.66 89 213.32 89 214 89 C215.04644066 90.63790712 216.0398183 92.31008021 217 94 C217.8353125 95.051875 217.8353125 95.051875 218.6875 96.125 C220 98 220 98 220 101 C220.66 101 221.32 101 222 101 C222.33 102.65 222.66 104.3 223 106 C223.66 106 224.32 106 225 106 C225.33 107.65 225.66 109.3 226 111 C226.66 111 227.32 111 228 111 C228.33 112.98 228.66 114.96 229 117 C229.66 117 230.32 117 231 117 C232.00936536 119.078812 233.00717846 121.1632362 234 123.25 C234.8353125 124.99023438 234.8353125 124.99023438 235.6875 126.765625 C237 130 237 130 237 134 C237.66 134 238.32 134 239 134 C239.33 136.64 239.66 139.28 240 142 C240.66 142 241.32 142 242 142 C247.55580866 159.85649203 247.55580866 159.85649203 248 168 C248.66 168 249.32 168 250 168 C251.12862175 173.36095333 251.09688221 178.55306686 251 184 C251.66 184 252.32 184 253 184 C253 206.77 253 229.54 253 253 C252.34 253 251.68 253 251 253 C251.01740234 253.97839844 251.01740234 253.97839844 251.03515625 254.9765625 C251.08470994 259.7761914 250.99413751 264.27784685 250 269 C249.34 269 248.68 269 248 269 C248.0928125 270.16402344 248.0928125 270.16402344 248.1875 271.3515625 C247.93271233 276.30930591 246.49233075 280.66273038 245 285.375 C244.71382812 286.30183594 244.42765625 287.22867187 244.1328125 288.18359375 C243.42933609 290.45816746 242.71823332 292.73005161 242 295 C241.34 295 240.68 295 240 295 C239.979375 296.03125 239.95875 297.0625 239.9375 298.125 C239.26059304 303.92557196 236.28291013 308.84570945 233.59375 313.92578125 C231.9399309 316.92039179 231.9399309 316.92039179 231 320 C230.34 320 229.68 320 229 320 C228.67 321.98 228.34 323.96 228 326 C227.34 326 226.68 326 226 326 C225.67 327.65 225.34 329.3 225 331 C224.34 331 223.68 331 223 331 C222.67 332.65 222.34 334.3 222 336 C221.34 336 220.68 336 220 336 C219.9175 336.7425 219.835 337.485 219.75 338.25 C218.85280293 341.5397226 217.45029221 342.70285105 215 345 C214.67 345.99 214.34 346.98 214 348 C213.34 348 212.68 348 212 348 C211.67 348.99 211.34 349.98 211 351 C210.34 351 209.68 351 209 351 C208.896875 351.5775 208.79375 352.155 208.6875 352.75 C207.89188726 355.35382351 206.77043622 356.94629398 205 359 C204.34 359.33 203.68 359.66 203 360 C203 360.66 203 361.32 203 362 C202.34 362 201.68 362 201 362 C200.67 362.99 200.34 363.98 200 365 C199.34 365 198.68 365 198 365 C197.67 365.99 197.34 366.98 197 368 C196.34 368 195.68 368 195 368 C195 368.66 195 369.32 195 370 C193.6875 371.4375 193.6875 371.4375 192 373 C191.2265625 373.8353125 191.2265625 373.8353125 190.4375 374.6875 C189 376 189 376 187 376 C186.67 376.99 186.34 377.98 186 379 C185.34 379 184.68 379 184 379 C184 379.66 184 380.32 184 381 C182.5390625 382.5078125 182.5390625 382.5078125 180.625 384.125 C179.99851562 384.66382813 179.37203125 385.20265625 178.7265625 385.7578125 C177 387 177 387 175 387 C175 387.66 175 388.32 175 389 C170.64705882 393 170.64705882 393 167 393 C167 393.66 167 394.32 167 395 C161.58823529 399 161.58823529 399 159 399 C159 399.66 159 400.32 159 401 C158.34 401 157.68 401 157 401 C157 401.66 157 402.32 157 403 C155.35 403.33 153.7 403.66 152 404 C152 404.66 152 405.32 152 406 C150.35 406.33 148.7 406.66 147 407 C147 407.66 147 408.32 147 409 C145.35 409.33 143.7 409.66 142 410 C142 410.66 142 411.32 142 412 C140.02 412.33 138.04 412.66 136 413 C136 413.66 136 414.32 136 415 C129.375 418 129.375 418 126 418 C126 418.66 126 419.32 126 420 C123.69 420.33 121.38 420.66 119 421 C119 421.66 119 422.32 119 423 C116.36 423.33 113.72 423.66 111 424 C111 424.66 111 425.32 111 426 C110.05898437 426.26554687 109.11796875 426.53109375 108.1484375 426.8046875 C106.28058594 427.33449219 106.28058594 427.33449219 104.375 427.875 C103.14523437 428.22304687 101.91546875 428.57109375 100.6484375 428.9296875 C98.33291122 429.60897465 96.030354 430.33564669 93.75 431.125 C90.70252404 432.09465144 88.17845661 432.15135508 85 432 C85 432.66 85 433.32 85 434 C79.63904667 435.12862175 74.44693314 435.09688221 69 435 C69 435.66 69 436.32 69 437 C46.23 437 23.46 437 0 437 C0 436.34 0 435.68 0 435 C-0.65226562 435.01160156 -1.30453125 435.02320313 -1.9765625 435.03515625 C-6.7761914 435.08470994 -11.27784685 434.99413751 -16 434 C-16 433.34 -16 432.68 -16 432 C-16.59425781 431.97421875 -17.18851563 431.9484375 -17.80078125 431.921875 C-23.82693881 431.50950963 -28.85666825 430.18757199 -34.45703125 427.9375 C-36.96504963 427.01288493 -39.3699441 426.45329509 -42 426 C-42 425.34 -42 424.68 -42 424 C-44.64 423.67 -47.28 423.34 -50 423 C-50 422.34 -50 421.68 -50 421 C-52.31 420.67 -54.62 420.34 -57 420 C-57 419.34 -57 418.68 -57 418 C-58.98 417.67 -60.96 417.34 -63 417 C-63 416.34 -63 415.68 -63 415 C-64.32 415 -65.64 415 -67 415 C-67 414.34 -67 413.68 -67 413 C-68.98 412.67 -70.96 412.34 -73 412 C-73 411.34 -73 410.68 -73 410 C-74.65 409.67 -76.3 409.34 -78 409 C-78 408.34 -78 407.68 -78 407 C-79.65 406.67 -81.3 406.34 -83 406 C-83 405.34 -83 404.68 -83 404 C-84.65 403.67 -86.3 403.34 -88 403 C-88 402.34 -88 401.68 -88 401 C-88.66 401 -89.32 401 -90 401 C-90 400.34 -90 399.68 -90 399 C-90.763125 398.71125 -91.52625 398.4225 -92.3125 398.125 C-95 397 -95 397 -98 395 C-98 394.34 -98 393.68 -98 393 C-98.804375 392.87625 -99.60875 392.7525 -100.4375 392.625 C-101.7059375 392.315625 -101.7059375 392.315625 -103 392 C-103.33 391.34 -103.66 390.68 -104 390 C-104.99 389.67 -105.98 389.34 -107 389 C-108.53515625 387.40625 -108.53515625 387.40625 -110.0625 385.5 C-112.17721767 382.81893599 -112.17721767 382.81893599 -115 381 C-115 380.34 -115 379.68 -115 379 C-115.99 378.67 -116.98 378.34 -118 378 C-118 377.34 -118 376.68 -118 376 C-118.86625 375.62875 -118.86625 375.62875 -119.75 375.25 C-122.32939979 373.81700012 -124.06121592 372.21575324 -126 370 C-126 369.34 -126 368.68 -126 368 C-126.99 367.67 -127.98 367.34 -129 367 C-129 366.34 -129 365.68 -129 365 C-129.99 364.67 -130.98 364.34 -132 364 C-132 363.34 -132 362.68 -132 362 C-132.66 362 -133.32 362 -134 362 C-135.3726682 360.02678947 -136.70427617 358.02456848 -138 356 C-138.66 355.34 -139.32 354.68 -140 354 C-140 353.01 -140 352.02 -140 351 C-140.99 350.67 -141.98 350.34 -143 350 C-143 349.34 -143 348.68 -143 348 C-143.66 348 -144.32 348 -145 348 C-146.04644066 346.36209288 -147.0398183 344.68991979 -148 343 C-148.495 342.34 -148.99 341.68 -149.5 341 C-154 335 -154 335 -154 331 C-154.66 331 -155.32 331 -156 331 C-156.33 329.35 -156.66 327.7 -157 326 C-157.66 326 -158.32 326 -159 326 C-159.33 324.02 -159.66 322.04 -160 320 C-160.66 320 -161.32 320 -162 320 C-163.01241247 318.11076602 -164.00947425 316.21330056 -165 314.3125 C-165.556875 313.25675781 -166.11375 312.20101563 -166.6875 311.11328125 C-167.9672274 308.07773738 -168.28851043 306.23973174 -168 303 C-168.66 303 -169.32 303 -170 303 C-170.33 300.36 -170.66 297.72 -171 295 C-171.66 295 -172.32 295 -173 295 C-173.26554688 294.05898437 -173.53109375 293.11796875 -173.8046875 292.1484375 C-174.15789063 290.90320312 -174.51109375 289.65796875 -174.875 288.375 C-175.22304688 287.14523437 -175.57109375 285.91546875 -175.9296875 284.6484375 C-176.60897465 282.33291122 -177.33564669 280.030354 -178.125 277.75 C-179.09465144 274.70252404 -179.15135508 272.17845661 -179 269 C-179.66 269 -180.32 269 -181 269 C-182.12862175 263.63904667 -182.09688221 258.44693314 -182 253 C-182.66 253 -183.32 253 -184 253 C-184 230.23 -184 207.46 -184 184 C-183.34 184 -182.68 184 -182 184 C-182.01740234 183.02160156 -182.01740234 183.02160156 -182.03515625 182.0234375 C-182.08470994 177.2238086 -181.99413751 172.72215315 -181 168 C-180.34 168 -179.68 168 -179 168 C-179.061875 167.236875 -179.12375 166.47375 -179.1875 165.6875 C-178.77370058 157.54944474 -175.66402607 149.65198977 -173 142 C-172.34 142 -171.68 142 -171 142 C-170.505 138.04 -170.505 138.04 -170 134 C-169.34 134 -168.68 134 -168 134 C-167.938125 133.05125 -167.87625 132.1025 -167.8125 131.125 C-167.10828237 125.92872751 -164.47950619 121.54728625 -162 117 C-161.34 117 -160.68 117 -160 117 C-159.67 115.02 -159.34 113.04 -159 111 C-158.34 111 -157.68 111 -157 111 C-156.67 109.35 -156.34 107.7 -156 106 C-155.34 106 -154.68 106 -154 106 C-153.896875 105.46375 -153.79375 104.9275 -153.6875 104.375 C-152.81907303 101.37497956 -151.44379704 98.7620465 -150 96 C-149.34 96 -148.68 96 -148 96 C-146.79371992 93.66785852 -145.8345262 91.50357861 -145 89 C-144.34 89 -143.68 89 -143 89 C-142.505 87.515 -142.505 87.515 -142 86 C-141.34 86 -140.68 86 -140 86 C-139.91621094 85.44828125 -139.83242188 84.8965625 -139.74609375 84.328125 C-138.75830535 81.24581146 -137.09258173 79.26098716 -135.0625 76.75 C-134.35222656 75.85796875 -133.64195312 74.9659375 -132.91015625 74.046875 C-132.27980469 73.37140625 -131.64945313 72.6959375 -131 72 C-130.34 72 -129.68 72 -129 72 C-128.505 70.515 -128.505 70.515 -128 69 C-127.34 69 -126.68 69 -126 69 C-126 68.34 -126 67.68 -126 67 C-124.625 65.375 -124.625 65.375 -123 64 C-122.34 64 -121.68 64 -121 64 C-120.67 63.01 -120.34 62.02 -120 61 C-119.34 61 -118.68 61 -118 61 C-117.67 60.01 -117.34 59.02 -117 58 C-116.34 58 -115.68 58 -115 58 C-115 57.34 -115 56.68 -115 56 C-113.34997172 54.64613064 -111.6825613 53.31321858 -110 52 C-109.505 51.01 -109.505 51.01 -109 50 C-108.34 50 -107.68 50 -107 50 C-107 49.34 -107 48.68 -107 48 C-106.01 47.67 -105.02 47.34 -104 47 C-103.505 46.484375 -103.01 45.96875 -102.5 45.4375 C-101 44 -101 44 -98 44 C-98 43.34 -98 42.68 -98 42 C-92.58823529 38 -92.58823529 38 -90 38 C-90 37.34 -90 36.68 -90 36 C-89.34 36 -88.68 36 -88 36 C-88 35.34 -88 34.68 -88 34 C-86.02 33.67 -84.04 33.34 -82 33 C-82 32.34 -82 31.68 -82 31 C-80.68 30.67 -79.36 30.34 -78 30 C-78 29.34 -78 28.68 -78 28 C-76.35 27.67 -74.7 27.34 -73 27 C-73 26.34 -73 25.68 -73 25 C-71.02 24.67 -69.04 24.34 -67 24 C-67 23.34 -67 22.68 -67 22 C-65.68 22 -64.36 22 -63 22 C-63 21.34 -63 20.68 -63 20 C-61.02 19.67 -59.04 19.34 -57 19 C-57 18.34 -57 17.68 -57 17 C-54.69 16.67 -52.38 16.34 -50 16 C-50 15.34 -50 14.68 -50 14 C-47.36 13.67 -44.72 13.34 -42 13 C-42 12.34 -42 11.68 -42 11 C-40.58847656 10.60167969 -40.58847656 10.60167969 -39.1484375 10.1953125 C-37.90320312 9.84210938 -36.65796875 9.48890625 -35.375 9.125 C-34.14523437 8.77695313 -32.91546875 8.42890625 -31.6484375 8.0703125 C-29.33291122 7.39102535 -27.030354 6.66435331 -24.75 5.875 C-21.70252404 4.90534856 -19.17845661 4.84864492 -16 5 C-16 4.34 -16 3.68 -16 3 C-10.61509359 2.08342019 -5.45769811 1.88861841 0 2 C0 1.34 0 0.68 0 0 Z " fill="#2C2C2C" transform="translate(1124,1608)"/>
<path d="M0 0 C0 0.66 0 1.32 0 2 C1.19625 2.185625 2.3925 2.37125 3.625 2.5625 C13.92031994 4.85215317 23.53583352 10.90103997 32 17 C32.92941406 17.65226562 33.85882812 18.30453125 34.81640625 18.9765625 C39.60863034 22.38408269 43.91060252 25.75701013 48 30 C48.83917969 30.85335938 49.67835938 31.70671875 50.54296875 32.5859375 C67.91257496 50.90484271 77.86326627 71.92040203 83.41870117 96.4519043 C83.78680787 98.06548247 84.17516512 99.67468598 84.59106445 101.27661133 C86.11591619 107.34824441 86.34674731 113.19240229 86.3125 119.4375 C86.30831055 120.489375 86.30412109 121.54125 86.29980469 122.625 C86.1661585 131.98592027 85.03629132 140.87613555 83 150 C82.8448291 150.70624512 82.6896582 151.41249023 82.52978516 152.14013672 C77.05497344 176.56750765 65.55843552 196.38430431 49 215 C48.41734375 215.66773438 47.8346875 216.33546875 47.234375 217.0234375 C35.6148816 229.52319556 18.00681695 239.44603326 2 245 C1.33742188 245.26167969 0.67484375 245.52335937 -0.0078125 245.79296875 C-23.5016422 254.59198862 -54.09604882 254.11410256 -77.4375 245.125 C-78.96237724 244.42541474 -80.48289063 243.71627459 -82 243 C-83.11632813 242.54625 -84.23265625 242.0925 -85.3828125 241.625 C-92.4982393 238.72444385 -98.85477684 235.61471475 -105 231 C-105.72445313 230.46632813 -106.44890625 229.93265625 -107.1953125 229.3828125 C-120.89866382 219.02174199 -131.54886833 207.25832916 -141 193 C-141.49628906 192.25492188 -141.99257812 191.50984375 -142.50390625 190.7421875 C-148.70355899 181.14147134 -152.88134415 170.96862754 -156 160 C-156.20044922 159.31309082 -156.40089844 158.62618164 -156.60742188 157.91845703 C-166.0741535 124.01669435 -160.18004252 86.50292196 -143.38671875 56.08203125 C-137.71770512 46.16068152 -130.24553922 36.91821158 -122 29 C-121.34 29 -120.68 29 -120 29 C-119.74992187 28.40703125 -119.49984375 27.8140625 -119.2421875 27.203125 C-112.06873827 14.48040373 -90.28740748 5.51989681 -77 1 C-76.3296875 0.74476562 -75.659375 0.48953125 -74.96875 0.2265625 C-52.95252919 -7.83009801 -22.11878323 -7.77006437 0 0 Z " fill="#C8C9C2" transform="translate(1196,1705)"/>
<path d="M0 0 C22.77 0 45.54 0 69 0 C69 0.66 69 1.32 69 2 C69.85271484 1.98259766 69.85271484 1.98259766 70.72265625 1.96484375 C75.60670484 1.90776806 80.18503965 2.18043228 85 3 C85 3.66 85 4.32 85 5 C85.59425781 5.02578125 86.18851563 5.0515625 86.80078125 5.078125 C92.82693881 5.49049037 97.85666825 6.81242801 103.45703125 9.0625 C105.96504963 9.98711507 108.3699441 10.54670491 111 11 C111 11.66 111 12.32 111 13 C114.96 13.495 114.96 13.495 119 14 C119 14.66 119 15.32 119 16 C121.31 16.33 123.62 16.66 126 17 C126 17.66 126 18.32 126 19 C126.9075 19.12375 127.815 19.2475 128.75 19.375 C131.58970323 19.92109677 133.52590591 20.57263803 136 22 C136 22.66 136 23.32 136 24 C137.98 24.33 139.96 24.66 142 25 C142 25.66 142 26.32 142 27 C143.65 27.33 145.3 27.66 147 28 C147 28.66 147 29.32 147 30 C148.32 30.33 149.64 30.66 151 31 C151 31.66 151 32.32 151 33 C152.98 33.33 154.96 33.66 157 34 C157 34.66 157 35.32 157 36 C157.66 36 158.32 36 159 36 C159 36.66 159 37.32 159 38 C159.763125 38.28875 160.52625 38.5775 161.3125 38.875 C164 40 164 40 167 42 C167 42.66 167 43.32 167 44 C168.2065625 44.185625 168.2065625 44.185625 169.4375 44.375 C170.283125 44.58125 171.12875 44.7875 172 45 C172.33 45.66 172.66 46.32 173 47 C173.99 47.33 174.98 47.66 176 48 C177.53515625 49.59375 177.53515625 49.59375 179.0625 51.5 C181.17721767 54.18106401 181.17721767 54.18106401 184 56 C184 56.66 184 57.32 184 58 C184.99 58.33 185.98 58.66 187 59 C187 59.66 187 60.32 187 61 C187.61875 61.0825 188.2375 61.165 188.875 61.25 C191 62 191 62 192.125 64 C192.558125 64.99 192.558125 64.99 193 66 C193.66 66.33 194.32 66.66 195 67 C195 67.66 195 68.32 195 69 C195.99 69.33 196.98 69.66 198 70 C198 70.66 198 71.32 198 72 C198.99 72.33 199.98 72.66 201 73 C203.04296875 75.1796875 203.04296875 75.1796875 205.1875 77.875 C205.90292969 78.75929688 206.61835937 79.64359375 207.35546875 80.5546875 C209 83 209 83 209 86 C209.99 86.33 210.98 86.66 212 87 C212 87.66 212 88.32 212 89 C212.66 89 213.32 89 214 89 C215.04644066 90.63790712 216.0398183 92.31008021 217 94 C217.8353125 95.051875 217.8353125 95.051875 218.6875 96.125 C220 98 220 98 220 101 C220.66 101 221.32 101 222 101 C222.33 102.65 222.66 104.3 223 106 C223.66 106 224.32 106 225 106 C225.33 107.65 225.66 109.3 226 111 C226.66 111 227.32 111 228 111 C228.33 112.98 228.66 114.96 229 117 C229.66 117 230.32 117 231 117 C232.00936536 119.078812 233.00717846 121.1632362 234 123.25 C234.8353125 124.99023438 234.8353125 124.99023438 235.6875 126.765625 C237 130 237 130 237 134 C237.66 134 238.32 134 239 134 C239.33 136.64 239.66 139.28 240 142 C240.66 142 241.32 142 242 142 C247.55580866 159.85649203 247.55580866 159.85649203 248 168 C248.66 168 249.32 168 250 168 C251.12862175 173.36095333 251.09688221 178.55306686 251 184 C251.66 184 252.32 184 253 184 C253 206.77 253 229.54 253 253 C252.34 253 251.68 253 251 253 C251.01740234 253.97839844 251.01740234 253.97839844 251.03515625 254.9765625 C251.08470994 259.7761914 250.99413751 264.27784685 250 269 C249.34 269 248.68 269 248 269 C248.0928125 270.16402344 248.0928125 270.16402344 248.1875 271.3515625 C247.93271233 276.30930591 246.49233075 280.66273038 245 285.375 C244.71382812 286.30183594 244.42765625 287.22867187 244.1328125 288.18359375 C243.42933609 290.45816746 242.71823332 292.73005161 242 295 C241.34 295 240.68 295 240 295 C239.979375 296.03125 239.95875 297.0625 239.9375 298.125 C239.26059304 303.92557196 236.28291013 308.84570945 233.59375 313.92578125 C231.9399309 316.92039179 231.9399309 316.92039179 231 320 C230.34 320 229.68 320 229 320 C228.67 321.98 228.34 323.96 228 326 C227.34 326 226.68 326 226 326 C225.67 327.65 225.34 329.3 225 331 C224.34 331 223.68 331 223 331 C222.67 332.65 222.34 334.3 222 336 C221.34 336 220.68 336 220 336 C219.9175 336.7425 219.835 337.485 219.75 338.25 C218.85280293 341.5397226 217.45029221 342.70285105 215 345 C214.67 345.99 214.34 346.98 214 348 C213.34 348 212.68 348 212 348 C211.67 348.99 211.34 349.98 211 351 C210.34 351 209.68 351 209 351 C208.896875 351.5775 208.79375 352.155 208.6875 352.75 C207.89188726 355.35382351 206.77043622 356.94629398 205 359 C204.34 359.33 203.68 359.66 203 360 C203 360.66 203 361.32 203 362 C202.34 362 201.68 362 201 362 C200.67 362.99 200.34 363.98 200 365 C199.34 365 198.68 365 198 365 C197.67 365.99 197.34 366.98 197 368 C196.34 368 195.68 368 195 368 C195 368.66 195 369.32 195 370 C193.6875 371.4375 193.6875 371.4375 192 373 C191.2265625 373.8353125 191.2265625 373.8353125 190.4375 374.6875 C189 376 189 376 187 376 C186.67 376.99 186.34 377.98 186 379 C185.34 379 184.68 379 184 379 C184 379.66 184 380.32 184 381 C182.5390625 382.5078125 182.5390625 382.5078125 180.625 384.125 C179.99851562 384.66382813 179.37203125 385.20265625 178.7265625 385.7578125 C177 387 177 387 175 387 C175 387.66 175 388.32 175 389 C170.64705882 393 170.64705882 393 167 393 C167 393.66 167 394.32 167 395 C161.58823529 399 161.58823529 399 159 399 C159 399.66 159 400.32 159 401 C158.34 401 157.68 401 157 401 C157 401.66 157 402.32 157 403 C155.35 403.33 153.7 403.66 152 404 C152 404.66 152 405.32 152 406 C150.35 406.33 148.7 406.66 147 407 C147 407.66 147 408.32 147 409 C145.35 409.33 143.7 409.66 142 410 C142 410.66 142 411.32 142 412 C140.02 412.33 138.04 412.66 136 413 C136 413.66 136 414.32 136 415 C129.375 418 129.375 418 126 418 C126 418.66 126 419.32 126 420 C123.69 420.33 121.38 420.66 119 421 C119 421.66 119 422.32 119 423 C116.36 423.33 113.72 423.66 111 424 C111 424.66 111 425.32 111 426 C110.05898437 426.26554687 109.11796875 426.53109375 108.1484375 426.8046875 C106.28058594 427.33449219 106.28058594 427.33449219 104.375 427.875 C103.14523437 428.22304687 101.91546875 428.57109375 100.6484375 428.9296875 C98.33291122 429.60897465 96.030354 430.33564669 93.75 431.125 C90.70252404 432.09465144 88.17845661 432.15135508 85 432 C85 432.66 85 433.32 85 434 C79.63904667 435.12862175 74.44693314 435.09688221 69 435 C69 435.66 69 436.32 69 437 C46.23 437 23.46 437 0 437 C0 436.34 0 435.68 0 435 C-0.65226562 435.01160156 -1.30453125 435.02320313 -1.9765625 435.03515625 C-6.7761914 435.08470994 -11.27784685 434.99413751 -16 434 C-16 433.34 -16 432.68 -16 432 C-16.59425781 431.97421875 -17.18851563 431.9484375 -17.80078125 431.921875 C-23.82693881 431.50950963 -28.85666825 430.18757199 -34.45703125 427.9375 C-36.96504963 427.01288493 -39.3699441 426.45329509 -42 426 C-42 425.34 -42 424.68 -42 424 C-44.64 423.67 -47.28 423.34 -50 423 C-50 422.34 -50 421.68 -50 421 C-52.31 420.67 -54.62 420.34 -57 420 C-57 419.34 -57 418.68 -57 418 C-58.98 417.67 -60.96 417.34 -63 417 C-63 416.34 -63 415.68 -63 415 C-64.32 415 -65.64 415 -67 415 C-67 414.34 -67 413.68 -67 413 C-68.98 412.67 -70.96 412.34 -73 412 C-73 411.34 -73 410.68 -73 410 C-74.65 409.67 -76.3 409.34 -78 409 C-78 408.34 -78 407.68 -78 407 C-79.65 406.67 -81.3 406.34 -83 406 C-83 405.34 -83 404.68 -83 404 C-84.65 403.67 -86.3 403.34 -88 403 C-88 402.34 -88 401.68 -88 401 C-88.66 401 -89.32 401 -90 401 C-90 400.34 -90 399.68 -90 399 C-90.763125 398.71125 -91.52625 398.4225 -92.3125 398.125 C-95 397 -95 397 -98 395 C-98 394.34 -98 393.68 -98 393 C-98.804375 392.87625 -99.60875 392.7525 -100.4375 392.625 C-101.7059375 392.315625 -101.7059375 392.315625 -103 392 C-103.33 391.34 -103.66 390.68 -104 390 C-104.99 389.67 -105.98 389.34 -107 389 C-108.53515625 387.40625 -108.53515625 387.40625 -110.0625 385.5 C-112.17721767 382.81893599 -112.17721767 382.81893599 -115 381 C-115 380.34 -115 379.68 -115 379 C-115.99 378.67 -116.98 378.34 -118 378 C-118 377.34 -118 376.68 -118 376 C-118.86625 375.62875 -118.86625 375.62875 -119.75 375.25 C-122.32939979 373.81700012 -124.06121592 372.21575324 -126 370 C-126 369.34 -126 368.68 -126 368 C-126.99 367.67 -127.98 367.34 -129 367 C-129 366.34 -129 365.68 -129 365 C-129.99 364.67 -130.98 364.34 -132 364 C-132 363.34 -132 362.68 -132 362 C-132.66 362 -133.32 362 -134 362 C-135.3726682 360.02678947 -136.70427617 358.02456848 -138 356 C-138.66 355.34 -139.32 354.68 -140 354 C-140 353.01 -140 352.02 -140 351 C-140.99 350.67 -141.98 350.34 -143 350 C-143 349.34 -143 348.68 -143 348 C-143.66 348 -144.32 348 -145 348 C-146.04644066 346.36209288 -147.0398183 344.68991979 -148 343 C-148.495 342.34 -148.99 341.68 -149.5 341 C-154 335 -154 335 -154 331 C-154.66 331 -155.32 331 -156 331 C-156.33 329.35 -156.66 327.7 -157 326 C-157.66 326 -158.32 326 -159 326 C-159.33 324.02 -159.66 322.04 -160 320 C-160.66 320 -161.32 320 -162 320 C-163.01241247 318.11076602 -164.00947425 316.21330056 -165 314.3125 C-165.556875 313.25675781 -166.11375 312.20101563 -166.6875 311.11328125 C-167.9672274 308.07773738 -168.28851043 306.23973174 -168 303 C-168.66 303 -169.32 303 -170 303 C-170.33 300.36 -170.66 297.72 -171 295 C-171.66 295 -172.32 295 -173 295 C-173.26554688 294.05898437 -173.53109375 293.11796875 -173.8046875 292.1484375 C-174.15789063 290.90320312 -174.51109375 289.65796875 -174.875 288.375 C-175.22304688 287.14523437 -175.57109375 285.91546875 -175.9296875 284.6484375 C-176.60897465 282.33291122 -177.33564669 280.030354 -178.125 277.75 C-179.09465144 274.70252404 -179.15135508 272.17845661 -179 269 C-179.66 269 -180.32 269 -181 269 C-182.12862175 263.63904667 -182.09688221 258.44693314 -182 253 C-182.66 253 -183.32 253 -184 253 C-184 230.23 -184 207.46 -184 184 C-183.34 184 -182.68 184 -182 184 C-182.01740234 183.02160156 -182.01740234 183.02160156 -182.03515625 182.0234375 C-182.08470994 177.2238086 -181.99413751 172.72215315 -181 168 C-180.34 168 -179.68 168 -179 168 C-179.061875 167.236875 -179.12375 166.47375 -179.1875 165.6875 C-178.77370058 157.54944474 -175.66402607 149.65198977 -173 142 C-172.34 142 -171.68 142 -171 142 C-170.505 138.04 -170.505 138.04 -170 134 C-169.34 134 -168.68 134 -168 134 C-167.938125 133.05125 -167.87625 132.1025 -167.8125 131.125 C-167.10828237 125.92872751 -164.47950619 121.54728625 -162 117 C-161.34 117 -160.68 117 -160 117 C-159.67 115.02 -159.34 113.04 -159 111 C-158.34 111 -157.68 111 -157 111 C-156.67 109.35 -156.34 107.7 -156 106 C-155.34 106 -154.68 106 -154 106 C-153.896875 105.46375 -153.79375 104.9275 -153.6875 104.375 C-152.81907303 101.37497956 -151.44379704 98.7620465 -150 96 C-149.34 96 -148.68 96 -148 96 C-146.79371992 93.66785852 -145.8345262 91.50357861 -145 89 C-144.34 89 -143.68 89 -143 89 C-142.505 87.515 -142.505 87.515 -142 86 C-141.34 86 -140.68 86 -140 86 C-139.91621094 85.44828125 -139.83242188 84.8965625 -139.74609375 84.328125 C-138.75830535 81.24581146 -137.09258173 79.26098716 -135.0625 76.75 C-134.35222656 75.85796875 -133.64195312 74.9659375 -132.91015625 74.046875 C-132.27980469 73.37140625 -131.64945313 72.6959375 -131 72 C-130.34 72 -129.68 72 -129 72 C-128.505 70.515 -128.505 70.515 -128 69 C-127.34 69 -126.68 69 -126 69 C-126 68.34 -126 67.68 -126 67 C-124.625 65.375 -124.625 65.375 -123 64 C-122.34 64 -121.68 64 -121 64 C-120.67 63.01 -120.34 62.02 -120 61 C-119.34 61 -118.68 61 -118 61 C-117.67 60.01 -117.34 59.02 -117 58 C-116.34 58 -115.68 58 -115 58 C-115 57.34 -115 56.68 -115 56 C-113.34997172 54.64613064 -111.6825613 53.31321858 -110 52 C-109.505 51.01 -109.505 51.01 -109 50 C-108.34 50 -107.68 50 -107 50 C-107 49.34 -107 48.68 -107 48 C-106.01 47.67 -105.02 47.34 -104 47 C-103.505 46.484375 -103.01 45.96875 -102.5 45.4375 C-101 44 -101 44 -98 44 C-98 43.34 -98 42.68 -98 42 C-92.58823529 38 -92.58823529 38 -90 38 C-90 37.34 -90 36.68 -90 36 C-89.34 36 -88.68 36 -88 36 C-88 35.34 -88 34.68 -88 34 C-86.02 33.67 -84.04 33.34 -82 33 C-82 32.34 -82 31.68 -82 31 C-80.68 30.67 -79.36 30.34 -78 30 C-78 29.34 -78 28.68 -78 28 C-76.35 27.67 -74.7 27.34 -73 27 C-73 26.34 -73 25.68 -73 25 C-71.02 24.67 -69.04 24.34 -67 24 C-67 23.34 -67 22.68 -67 22 C-65.68 22 -64.36 22 -63 22 C-63 21.34 -63 20.68 -63 20 C-61.02 19.67 -59.04 19.34 -57 19 C-57 18.34 -57 17.68 -57 17 C-54.69 16.67 -52.38 16.34 -50 16 C-50 15.34 -50 14.68 -50 14 C-47.36 13.67 -44.72 13.34 -42 13 C-42 12.34 -42 11.68 -42 11 C-40.58847656 10.60167969 -40.58847656 10.60167969 -39.1484375 10.1953125 C-37.90320312 9.84210938 -36.65796875 9.48890625 -35.375 9.125 C-34.14523437 8.77695313 -32.91546875 8.42890625 -31.6484375 8.0703125 C-29.33291122 7.39102535 -27.030354 6.66435331 -24.75 5.875 C-21.70252404 4.90534856 -19.17845661 4.84864492 -16 5 C-16 4.34 -16 3.68 -16 3 C-10.61509359 2.08342019 -5.45769811 1.88861841 0 2 C0 1.34 0 0.68 0 0 Z M14 25 C11.66666667 25.33333333 9.33333333 25.66666667 7 26 C6.67 26.33 6.34 26.66 6 27 C3.79751144 27.35133531 1.58746072 27.65570237 -0.625 27.9375 C-5.59538607 28.62324309 -10.22205078 29.43630753 -15 31 C-15.928125 31.27714844 -16.85625 31.55429688 -17.8125 31.83984375 C-25.97989475 34.28417223 -33.99430693 37.07350749 -42 40 C-42.76183594 40.26683594 -43.52367187 40.53367187 -44.30859375 40.80859375 C-53.98746135 43.79523658 -53.98746135 43.79523658 -61 50 C-63.28015861 51.12253962 -65.61361667 52.04602194 -67.96875 53 C-70.16560255 53.82709949 -70.16560255 53.82709949 -71 56 C-72.11375 56.515625 -73.2275 57.03125 -74.375 57.5625 C-83.33523521 61.92367643 -90.55727898 69.41510313 -97.8125 76.125 C-98.43455322 76.69847168 -99.05660645 77.27194336 -99.69750977 77.86279297 C-103.25087686 81.19285453 -106.49196324 84.64522454 -109.6105957 88.38427734 C-111 90 -111 90 -113.4609375 92.40625 C-116.84758409 95.86583975 -119.70740354 99.64317729 -122.625 103.5 C-123.48351562 104.61955078 -123.48351562 104.61955078 -124.359375 105.76171875 C-129.71871218 112.70402746 -129.71871218 112.70402746 -133 120.75 C-133.33 121.8225 -133.66 122.895 -134 124 C-135.485 124.495 -135.485 124.495 -137 125 C-140.53278174 130.70180582 -142.23239446 137.58573444 -144 144 C-144.66 144 -145.32 144 -146 144 C-146.18175781 144.7734375 -146.36351562 145.546875 -146.55078125 146.34375 C-146.92783203 147.90609375 -146.92783203 147.90609375 -147.3125 149.5 C-147.55613281 150.5209375 -147.79976562 151.541875 -148.05078125 152.59375 C-148.75740005 155.12943557 -149.52817225 157.45732705 -150.4765625 159.8984375 C-152.01841844 163.91100137 -153.10522847 167.93834335 -154.0625 172.125 C-154.23241455 172.86290771 -154.4023291 173.60081543 -154.57739258 174.36108398 C-159.91151905 198.14826629 -160.05335252 222.91448802 -158.125 247.125 C-158.04660889 248.13820313 -157.96821777 249.15140625 -157.88745117 250.1953125 C-157.80342041 251.1440625 -157.71938965 252.0928125 -157.6328125 253.0703125 C-157.55949707 253.90320801 -157.48618164 254.73610352 -157.41064453 255.59423828 C-156.95395111 258.26977751 -156.06115863 260.50842646 -155 263 C-154.55605896 264.74328066 -154.1413027 266.49415453 -153.75 268.25 C-151.78920314 276.3776554 -148.87060495 284.1592538 -146 292 C-145.34 292 -144.68 292 -144 292 C-144 293.32 -144 294.64 -144 296 C-143.34 296 -142.68 296 -142 296 C-142 297.32 -142 298.64 -142 300 C-141.34 300 -140.68 300 -140 300 C-139.67 301.98 -139.34 303.96 -139 306 C-138.34 306 -137.68 306 -137 306 C-136.76023437 306.68449219 -136.52046875 307.36898438 -136.2734375 308.07421875 C-134.74673146 311.58189613 -132.7610192 314.65691314 -130.625 317.8125 C-130.18728271 318.4619458 -129.74956543 319.1113916 -129.29858398 319.78051758 C-121.01468394 331.95072769 -112.21238986 343.39189906 -102 354 C-100.87271484 355.23943359 -100.87271484 355.23943359 -99.72265625 356.50390625 C-87.8897574 369.10543785 -72.68259962 378.05189276 -57.94042969 386.82910156 C-55.31797077 388.41155161 -52.75285763 390.07694067 -50.1875 391.75 C-25.9497099 407.17069447 -0.34322417 411.5078425 28 412 C29.12921875 412.02835938 30.2584375 412.05671875 31.421875 412.0859375 C34.62002829 412.12736436 37.80245399 412.08072838 41 412 C41.80550293 411.98211426 42.61100586 411.96422852 43.44091797 411.94580078 C55.31582764 411.65283074 66.41522899 410.73332617 78 408 C79.79046258 407.66025849 81.58202888 407.32624398 83.375 407 C89.2366417 405.82182949 94.77185664 404.11407168 100.125 401.4375 C103.34313391 399.82843305 106.53267858 398.93350961 110 398 C110.66 397.67 111.32 397.34 112 397 C112 396.34 112 395.68 112 395 C113.175625 394.9071875 113.175625 394.9071875 114.375 394.8125 C121.52124488 393.21075546 127.82679675 389.28229287 133.91796875 385.30859375 C135.69112914 384.19413084 137.51339915 383.15843692 139.34375 382.140625 C148.41837255 376.98215213 156.46569214 369.80036198 164.07421875 362.71484375 C166 361 166 361 168 360 C168 359.34 168 358.68 168 358 C168.5775 357.7525 169.155 357.505 169.75 357.25 C177.85672682 352.74626288 183.83511841 343.03971316 189.35986328 335.74438477 C191.39692659 333.05856733 193.47000443 330.42835305 195.66015625 327.8671875 C197.58598321 325.50732608 199.00945796 323.47405496 200.3125 320.75 C200.63863281 320.08484375 200.96476562 319.4196875 201.30078125 318.734375 C202.12463679 317.00251455 202.12463679 317.00251455 202 315 C202.66 315 203.32 315 204 315 C204.31453125 314.2265625 204.6290625 313.453125 204.953125 312.65625 C211.65546218 296.34453782 211.65546218 296.34453782 215 293 C215.54182208 291.28943083 216.01193512 289.55563298 216.4375 287.8125 C217.28569626 284.48429842 218.12745046 281.73529521 219.625 278.625 C221.67709755 273.21492464 221.74953177 267.74349567 222 262 C222.66 262 223.32 262 224 262 C229.36611064 234.7307082 234.04527416 197.62352023 222.9453125 171.3125 C221.71965335 168.31419331 221.07758182 165.31455652 220.4375 162.1484375 C219.74255207 158.73574677 218.85899991 155.3746425 218 152 C217.34 152 216.68 152 216 152 C215.83723958 150.01432292 215.67447917 148.02864583 215.51171875 146.04296875 C215.16948205 143.92034593 215.16948205 143.92034593 213.5625 142.59375 C211.40376748 140.39184283 211.04591642 138.28109026 210.3125 135.3125 C210.06113281 134.31863281 209.80976562 133.32476563 209.55078125 132.30078125 C209.27814453 131.16189453 209.27814453 131.16189453 209 130 C208.34 130 207.68 130 207 130 C207 129.01 207 128.02 207 127 C206.34 127 205.68 127 205 127 C204.5978125 125.948125 204.5978125 125.948125 204.1875 124.875 C201.52767212 118.43541671 198.07203469 112.98965221 194 107.375 C193.42620605 106.58246826 192.85241211 105.78993652 192.26123047 104.97338867 C187.27029802 98.18266234 181.89037384 92.02381273 176 86 C175.08347656 85.02546875 175.08347656 85.02546875 174.1484375 84.03125 C169.66911554 79.36086691 164.68435419 75.3415178 159.63330078 71.30810547 C157.85184306 69.88134157 156.0800193 68.44310371 154.30859375 67.00390625 C143.56608474 58.29837001 133.12423652 50.80613734 120.63671875 44.796875 C118.45370426 43.74474916 116.4562539 42.66432416 114.38671875 41.38671875 C111.69418452 39.8223167 109.10251113 38.96348713 106.125 38.0625 C102.52299072 36.92061456 99.36853694 35.7913457 96.1875 33.75 C92.50333145 31.72731923 90.13950947 31.66208086 86 32 C86 31.34 86 30.68 86 30 C85.14535156 29.86722656 84.29070312 29.73445313 83.41015625 29.59765625 C82.30542969 29.42105469 81.20070313 29.24445313 80.0625 29.0625 C78.96035156 28.88847656 77.85820313 28.71445313 76.72265625 28.53515625 C74 28 74 28 73 27 C70.37420067 26.62404663 67.7601612 26.2933049 65.125 26 C57.38992042 25.12997347 57.38992042 25.12997347 54 24 C51.06216941 23.90264785 48.14872275 23.860061 45.2109375 23.8671875 C44.35190826 23.86623077 43.49287903 23.86527405 42.6078186 23.86428833 C40.79388353 23.8636082 38.97994601 23.86545082 37.16601562 23.86962891 C34.37885121 23.87499259 31.59184699 23.86967156 28.8046875 23.86328125 C27.04427048 23.8639418 25.28385355 23.8652225 23.5234375 23.8671875 C22.68493256 23.86516327 21.84642761 23.86313904 20.98251343 23.86105347 C17.18393488 23.50531216 17.18393488 23.50531216 14 25 Z " fill="#000000" transform="translate(1124,1608)"/>
<path d="M0 0 C0.67163177 0.00027191 1.34326355 0.00054382 2.0352478 0.00082397 C14.03831234 0.02325089 26.00878391 0.0492005 37.375 4.40625 C39.64206378 5.27636042 39.64206378 5.27636042 42.62890625 6.0234375 C47.40195279 7.36167485 51.89145915 9.35580105 56.4375 11.3125 C57.74944336 11.87130859 57.74944336 11.87130859 59.08789062 12.44140625 C61.22686203 13.35309898 63.36414714 14.26853087 65.5 15.1875 C65.5 15.8475 65.5 16.5075 65.5 17.1875 C66.05300781 17.28804687 66.60601563 17.38859375 67.17578125 17.4921875 C79.28172549 21.11379771 90.46314353 32.78351785 99.5 41.1875 C100.16773438 41.78949219 100.83546875 42.39148437 101.5234375 43.01171875 C115.75174178 56.39793971 125.31633313 74.26780352 132.5 92.1875 C132.81880127 92.91654541 133.13760254 93.64559082 133.46606445 94.39672852 C136.28396583 101.00895299 137.85327005 107.57631895 139.1875 114.625 C139.39955078 115.68009766 139.61160156 116.73519531 139.83007812 117.82226562 C147.59920367 157.64822467 138.49637325 197.38491009 116.5 231.1875 C109.20718207 241.48486111 101.29956191 251.19053309 91.5 259.1875 C90.09621094 260.34765625 90.09621094 260.34765625 88.6640625 261.53125 C76.74404071 271.16575516 63.4876347 278.03930779 49.5 284.1875 C47.7675 285.0228125 47.7675 285.0228125 46 285.875 C36.53315382 289.42506732 26.77912414 290.64004452 16.77246094 291.54125977 C12.50180782 291.82831494 12.50180782 291.82831494 8.5 293.1875 C5.9884113 293.28542892 3.51090234 293.32657983 1 293.3125 C0.31035156 293.31636719 -0.37929687 293.32023437 -1.08984375 293.32421875 C-6.24666707 293.31416646 -6.24666707 293.31416646 -8.5 292.1875 C-10.74691477 291.9111415 -12.99784842 291.66731139 -15.25 291.4375 C-22.21149918 290.632258 -29.03083773 289.37499479 -35.875 287.875 C-36.77702148 287.68647461 -37.67904297 287.49794922 -38.60839844 287.30371094 C-45.13304136 285.82377178 -50.62724869 283.3501971 -56.5 280.1875 C-57.56089844 279.67445313 -58.62179687 279.16140625 -59.71484375 278.6328125 C-93.74483556 262.13046353 -120.0998286 231.49429802 -132.67578125 195.85546875 C-134.75234667 189.36903349 -136.29903506 182.88477298 -137.5 176.1875 C-137.8501889 174.39505162 -138.20432603 172.60336987 -138.5625 170.8125 C-138.71847656 170.02101563 -138.87445312 169.22953125 -139.03515625 168.4140625 C-139.31884672 167.05520898 -139.63880633 165.70249129 -140.02075195 164.36791992 C-140.56760527 161.87991841 -140.6295806 159.62164634 -140.6328125 157.07421875 C-140.63514893 156.08123779 -140.63748535 155.08825684 -140.63989258 154.06518555 C-140.61518331 148.77213546 -140.5752795 143.48009135 -140.5 138.1875 C-140.49274902 137.43339844 -140.48549805 136.67929688 -140.47802734 135.90234375 C-140.32621554 125.54826419 -137.94087289 116.1403427 -135.0859375 106.265625 C-134.35517227 103.67384432 -133.74864725 101.05681844 -133.125 98.4375 C-125.6703074 71.49232619 -104.28140613 40.86113357 -80.5 26.1875 C-79.84 26.1875 -79.18 26.1875 -78.5 26.1875 C-78.5 25.5275 -78.5 24.8675 -78.5 24.1875 C-76.23354942 22.84619239 -73.96239903 21.51433766 -71.6875 20.1875 C-71.04490234 19.8059375 -70.40230469 19.424375 -69.74023438 19.03125 C-64.83984375 16.1875 -64.83984375 16.1875 -61.5 16.1875 C-61.5 15.5275 -61.5 14.8675 -61.5 14.1875 C-58.79269941 13.05996056 -56.08422359 11.93540188 -53.375 10.8125 C-52.61445312 10.49539063 -51.85390625 10.17828125 -51.0703125 9.8515625 C-44.17420046 6.9979989 -37.32701195 4.81427201 -30.0625 3.125 C-29.33740234 2.95162109 -28.61230469 2.77824219 -27.86523438 2.59960938 C-27.14787109 2.43138672 -26.43050781 2.26316406 -25.69140625 2.08984375 C-24.73536499 1.86542603 -24.73536499 1.86542603 -23.76000977 1.63647461 C-15.81837332 0.05878536 -8.06730234 -0.0054472 0 0 Z M-42.5 26.1875 C-44.13067808 26.89042304 -45.77710826 27.55796759 -47.4375 28.1875 C-60.00748789 32.96847796 -71.74614218 40.93285538 -81.5 50.1875 C-81.5 50.8475 -81.5 51.5075 -81.5 52.1875 C-82.06460937 52.42082031 -82.62921875 52.65414063 -83.2109375 52.89453125 C-98.9135128 61.76407464 -110.99138076 86.99205773 -115.84375 103.4609375 C-116.67668279 106.58646432 -117.40088807 109.72786885 -118.02441406 112.90258789 C-118.39404949 114.67846979 -118.81199438 116.44432483 -119.24902344 118.20483398 C-121.45001359 127.41248395 -122.05798705 136.21809336 -122 145.625 C-121.99890228 146.36262573 -121.99780457 147.10025146 -121.99667358 147.86022949 C-121.94041636 161.10835918 -120.33019218 173.45955936 -116.5 186.1875 C-116.19570068 187.22922363 -116.19570068 187.22922363 -115.88525391 188.29199219 C-106.70299347 218.93021122 -83.14247437 245.71856974 -55.5 261.1875 C-52.48891936 262.59319304 -49.46365223 263.8648186 -46.3671875 265.0703125 C-44.64285333 265.74219203 -42.93240955 266.45448505 -41.2578125 267.2421875 C-17.32577509 278.22878119 14.30327643 277.03379807 38.8984375 269.08984375 C41.8525047 267.92168045 44.65815085 266.60654753 47.5 265.1875 C48.8079407 264.56892976 50.11658486 263.95184564 51.42578125 263.3359375 C59.29002192 259.58081545 66.58488111 255.53848485 73.5 250.1875 C74.34046875 249.54941406 75.1809375 248.91132812 76.046875 248.25390625 C98.8639471 230.51881839 114.49133785 205.34739383 120.5 177.1875 C120.78746094 175.92035156 121.07492187 174.65320312 121.37109375 173.34765625 C123.6404756 163.17344192 124.68103206 153.6569232 124.6875 143.25 C124.69974609 142.21681641 124.71199219 141.18363281 124.72460938 140.11914062 C124.73657839 133.81944781 124.10432898 128.26189138 122.5 122.1875 C122.05283458 120.24491838 121.60626326 118.30219995 121.16015625 116.359375 C113.03889018 83.00880245 94.47314721 54.4453916 64.80859375 36.265625 C63.14659661 35.27557509 61.48122485 34.29116783 59.8125 33.3125 C59.0292334 32.84827637 58.2459668 32.38405273 57.43896484 31.90576172 C51.59826188 28.55192536 45.36854241 25.1875 38.5 25.1875 C38.5 24.5275 38.5 23.8675 38.5 23.1875 C16.25674645 15.3737107 -21.79827849 13.50039481 -42.5 26.1875 Z " fill="#020202" transform="translate(1157.5,1681.8125)"/>
<path d="M0 0 C0.91394531 0.03738281 1.82789063 0.07476563 2.76953125 0.11328125 C4.22552734 0.16742187 4.22552734 0.16742187 5.7109375 0.22265625 C16.11497415 0.95872415 16.11497415 0.95872415 17.58203125 2.42578125 C19.59514574 2.82147233 21.61800333 3.16830316 23.64453125 3.48828125 C25.30162109 3.75318359 25.30162109 3.75318359 26.9921875 4.0234375 C27.84683594 4.15621094 28.70148438 4.28898437 29.58203125 4.42578125 C29.58203125 5.08578125 29.58203125 5.74578125 29.58203125 6.42578125 C30.53078125 6.32265625 31.47953125 6.21953125 32.45703125 6.11328125 C36.92518523 6.10430905 40.0545002 7.98579852 43.9140625 10.0703125 C46.57632253 11.42288092 49.19316751 12.40772033 52.01953125 13.36328125 C56.929057 15.08265103 61.32427769 17.29990741 65.83984375 19.87109375 C67.62579987 20.88364437 69.43296532 21.85993129 71.26171875 22.79296875 C79.06885287 26.79836799 85.77731911 31.94738009 92.58203125 37.42578125 C93.90221123 38.47542711 95.22252848 39.52490035 96.54296875 40.57421875 C104.85437807 47.21719255 112.89934625 54.06002067 120.58203125 61.42578125 C121.1229541 61.93246338 121.66387695 62.43914551 122.22119141 62.96118164 C127.04205328 67.59413901 130.93904137 72.69090249 134.83203125 78.11328125 C135.74855469 79.37495117 135.74855469 79.37495117 136.68359375 80.66210938 C137.81442002 82.21884728 138.94268966 83.7774484 140.06738281 85.33862305 C141.07977726 86.73368431 142.11600537 88.11174647 143.17480469 89.47192383 C145.76631668 93.07009705 147.18817072 97.24419966 148.58203125 101.42578125 C149.24203125 101.42578125 149.90203125 101.42578125 150.58203125 101.42578125 C150.58203125 102.41578125 150.58203125 103.40578125 150.58203125 104.42578125 C151.24203125 104.42578125 151.90203125 104.42578125 152.58203125 104.42578125 C152.85466797 105.56466797 152.85466797 105.56466797 153.1328125 106.7265625 C153.50986328 108.21736328 153.50986328 108.21736328 153.89453125 109.73828125 C154.13816406 110.72441406 154.38179687 111.71054688 154.6328125 112.7265625 C155.61268818 115.51295796 156.53395496 116.42222835 158.58203125 118.42578125 C159.25160621 121.09896983 159.35565833 123.66403162 159.58203125 126.42578125 C160.24203125 126.42578125 160.90203125 126.42578125 161.58203125 126.42578125 C162.59740387 130.46914008 163.60648625 134.51324904 164.58203125 138.56640625 C164.74703125 139.24445313 164.91203125 139.9225 165.08203125 140.62109375 C165.41895542 142.00564153 165.75221517 143.39108555 166.08203125 144.77734375 C166.75203033 147.50968375 167.40241545 150.06784186 168.66796875 152.58984375 C172.93048855 161.15131514 170.67645767 174.98313969 170.58203125 184.42578125 C165.19031776 184.59849631 162.71117834 184.106108 158.58203125 180.42578125 C154.55960636 173.70315615 153.27377506 166.12995903 151.76953125 158.55078125 C147.02797982 136.20597404 139.31822938 119.66945792 125.2421875 101.84375 C123.33984825 99.42588321 121.50678928 96.96888763 119.703125 94.4765625 C111.11551324 82.64533704 101.85098081 72.76547212 90.3671875 63.64453125 C87.89001 61.67112758 85.46481814 59.64780926 83.05126953 57.59741211 C74.71283728 50.53885079 66.46949164 44.66056544 56.62036133 39.91601562 C53.39999798 38.36157016 50.36267301 36.7312635 47.39453125 34.73828125 C43.70791221 32.34003855 39.90358233 30.99737437 35.75 29.59375 C33.3784615 28.71940966 31.16244295 27.79757305 28.8828125 26.7265625 C20.56453592 22.8288204 13.1532704 20.44557138 4.0078125 19.32421875 C-0.10966709 18.24437804 -1.73117845 16.66588087 -4.41796875 13.42578125 C-5.94643536 10.36884803 -5.6503932 7.79593578 -5.41796875 4.42578125 C-3.89503908 1.60461645 -3.21111236 0.56544628 0 0 Z " fill="#4E4E4E" transform="translate(1180.41796875,1633.57421875)"/>
<path d="M0 0 C5.40845303 2.70422652 7.06164545 7.56673345 9 13 C10.08968237 16.3658281 11.11859069 19.75008724 12.15112305 23.13378906 C13.75022549 28.32828692 15.60544057 33.13288247 18 38 C18.79470703 39.7325 18.79470703 39.7325 19.60546875 41.5 C24.29175096 51.5088807 30.12048801 60.28660074 36.66796875 69.16845703 C38.36749325 71.50530323 39.96162903 73.90734529 41.5625 76.3125 C45.80396201 82.38057703 50.90802547 87.65306251 56 93 C57.02673828 94.14082031 57.02673828 94.14082031 58.07421875 95.3046875 C68.77591888 106.78431083 82.77808445 115.18179393 96.27246094 122.99121094 C100.08793973 125.21924349 103.83371147 127.56219224 107.5859375 129.89453125 C110.11493202 131.46479735 112.66622297 132.9931368 115.2265625 134.51171875 C116.67197181 135.38265185 118.11728557 136.25374356 119.5625 137.125 C120.58138306 137.71849243 120.58138306 137.71849243 121.62084961 138.32397461 C125.93796263 140.95086394 128.53619521 143.44812065 131 148 C131.66719976 152.67039834 130.69389067 155.18365489 128 159 C124.37 158.67 120.74 158.34 117 158 C117 157.34 117 156.68 117 156 C116.46375 156.03222656 115.9275 156.06445312 115.375 156.09765625 C103.86768396 155.92731769 93.59458934 147.98034034 84.4375 141.6328125 C82.48081515 140.32208451 80.51457964 139.08424063 78.5 137.8671875 C50.47849414 120.90956213 29.72847824 99.4168303 12 72 C10.34831885 69.57753432 8.69416611 67.15695398 7.03125 64.7421875 C6 63 6 63 6 61 C5.34 61 4.68 61 4 61 C3.67 59.02 3.34 57.04 3 55 C2.34 55 1.68 55 1 55 C1 53.68 1 52.36 1 51 C0.34 51 -0.32 51 -1 51 C-1 49.68 -1 48.36 -1 47 C-1.66 47 -2.32 47 -3 47 C-13.94104764 17.11571455 -13.94104764 17.11571455 -13 3 C-9.81520394 -1.48953509 -4.97053969 -0.68504233 0 0 Z " fill="#4F4F4F" transform="translate(981,1853)"/>
<path d="M0 0 C6.34517059 4.72863666 11.78155984 10.72901688 13.25390625 18.6796875 C14.53659207 27.97585381 12.45958445 34.91723815 7.25390625 42.6796875 C2.43438019 48.3942684 -4.26684962 52.09361817 -11.671875 53.0625 C-20.67376954 53.40564719 -26.97881036 51.09258092 -33.99609375 45.5546875 C-40.32430691 39.56819785 -43.01214289 33.37952289 -43.37109375 24.6796875 C-43.02832206 16.14745164 -40.1912491 10.08396135 -34.49609375 3.8046875 C-24.96066562 -4.8323277 -11.28707891 -6.58257979 0 0 Z " fill="#E4E4E4" transform="translate(1171.74609375,1804.3203125)"/>
<path d="M0 0 C2.98335231 2.61893631 3.88251771 4.24885341 4.49609375 8.171875 C4.2788255 21.43972261 3.99594243 38.35954835 -5.55078125 48.67578125 C-11.74287951 54.13035912 -19.01262218 53.63227125 -26.82470703 53.21777344 C-37.84280634 52.11472691 -48.22631248 46.5222747 -57 40 C-59.35620437 36.46569344 -59.48991613 35.16428713 -59 31 C-54.11331144 21.00450066 -43.85740455 14.96980296 -34.40234375 9.85546875 C-31.38031213 8.20740329 -28.47542138 6.45610583 -25.5625 4.625 C-17.72316519 -0.03554154 -9.06990096 -1.57977568 0 0 Z " fill="#010101" transform="translate(1146,1717)"/>
<path d="M0 0 C5.81671665 1.22063861 10.3827329 5.67537266 14.9375 9.25 C16.17306641 10.14332031 16.17306641 10.14332031 17.43359375 11.0546875 C25.62233904 17.04779957 32.47802394 25.10374078 34.3203125 35.38671875 C34.54729383 39.35889197 33.90806789 42.46816325 31.4375 45.625 C23.90464267 53.78559544 16.06118554 58.74066267 5.9375 63.25 C4.26107422 64.03117187 4.26107422 64.03117187 2.55078125 64.828125 C-6.20905935 68.75012005 -6.20905935 68.75012005 -11.0625 67.25 C-15.44968884 62.87853585 -16.39702664 57.39082699 -16.62109375 51.4140625 C-16.60660406 48.90075928 -16.56564389 46.38748759 -16.5 43.875 C-16.49419922 42.62460938 -16.48839844 41.37421875 -16.48242188 40.0859375 C-16.34584866 29.64081794 -15.54855771 20.16313722 -10.6875 10.8125 C-10.10226562 9.65878906 -9.51703125 8.50507812 -8.9140625 7.31640625 C-4.72937632 0.38607154 -4.72937632 0.38607154 0 0 Z " fill="#010101" transform="translate(1066.0625,1785.75)"/>
<path d="M0 0 C6.2608112 4.50979962 9.65166991 10.16761272 10.95874023 17.74804688 C11.68862359 24.34790423 11.91400756 30.92544692 12 37.5625 C12.05607422 39.22732422 12.05607422 39.22732422 12.11328125 40.92578125 C12.2000606 48.93840789 12.2000606 48.93840789 9.4765625 53.078125 C6.01917114 55.18097673 4.60902661 55.48958827 0.625 54.8125 C-2.07620193 53.8108164 -4.58344399 52.53868006 -7.125 51.1875 C-7.83019775 50.82358154 -8.53539551 50.45966309 -9.26196289 50.0847168 C-14.00087624 47.6135376 -18.6283236 44.99147309 -23.16015625 42.15625 C-25.31066607 40.85153152 -27.50064008 39.74767518 -29.75 38.625 C-33.89438542 36.35298871 -37.27090565 33.47516993 -40.75 30.3125 C-41.26224121 29.84948486 -41.77448242 29.38646973 -42.30224609 28.90942383 C-45.92794369 25.51296466 -48.75162266 22.24367162 -50 17.375 C-48.98466058 13.21210839 -45.74847145 11.26865119 -42.375 8.8125 C-39.33462893 7.02983156 -36.20215673 5.53058144 -33 4.0625 C-32.20078125 3.67707031 -31.4015625 3.29164062 -30.578125 2.89453125 C-21.44975463 -1.37423742 -9.36569948 -5.52558894 0 0 Z " fill="#020202" transform="translate(1125.375,1877.1875)"/>
<path d="M0 0 C10.28001759 2.17965714 18.4385244 5.47710336 26 13 C26.84046875 13.82628906 27.6809375 14.65257812 28.546875 15.50390625 C35.22496101 22.45518669 44.25620404 31.98572301 44.75 42.125 C44 46 44 46 42.2578125 47.6171875 C31.87110288 53.97859789 16.08898637 57.85146638 4 56 C-0.92538906 54.6028266 -4.67888537 52.85259753 -7.69921875 48.6171875 C-11.81504 40.71575416 -12.18191176 33.5692694 -12.1875 24.8125 C-12.19974609 23.82185547 -12.21199219 22.83121094 -12.22460938 21.81054688 C-12.25593186 5.88828248 -12.25593186 5.88828248 -8.62646484 1.24145508 C-5.87339138 -0.85992267 -3.35536189 -0.27587765 0 0 Z " fill="#010101" transform="translate(1204,1725)"/>
<path d="M0 0 C12.06260601 6.26963726 12.06260601 6.26963726 13.55859375 7.765625 C14.26716518 14.85133929 14.26716518 14.85133929 11.62109375 18.265625 C10.61046875 19.090625 9.59984375 19.915625 8.55859375 20.765625 C7.90375 21.38308594 7.24890625 22.00054688 6.57421875 22.63671875 C-6.00648382 34.43670396 -23.50640356 43.03169023 -40.87890625 44.265625 C-44.44140625 43.765625 -44.44140625 43.765625 -47.44140625 42.015625 C-50.64162032 36.81527713 -50.51330937 32.71315603 -49.44140625 26.765625 C-48.40073993 23.27885641 -47.1496632 19.90028594 -45.81640625 16.515625 C-45.48616455 15.67636475 -45.15592285 14.83710449 -44.81567383 13.97241211 C-41.15987094 5.26742367 -36.90527196 -1.49432958 -28.078125 -5.38671875 C-17.91631317 -8.65355307 -9.04557152 -4.60779694 0 0 Z " fill="#010101" transform="translate(1223.44140625,1891.234375)"/>
<path d="M0 0 C4.90123241 4.90123241 4.28499235 14.30460289 4.38012695 20.85522461 C4.32335731 55.67664269 4.32335731 55.67664269 -6 66 C-9.35128748 66.32096838 -11.3883677 66.34544017 -14.3515625 64.671875 C-41.07251708 42.0830268 -41.07251708 42.0830268 -43 31 C-43.1083437 25.14944038 -41.08223662 22.12337848 -37.20703125 18.04296875 C-27.88723523 9.41597173 -13.36205346 -1.21473213 0 0 Z " fill="#020202" transform="translate(1262,1806)"/>
<path d="M0 0 C3.12108374 3.76658061 5.83951823 7.71625407 8.5 11.8125 C17.03882894 24.74832035 26.25345325 36.82622051 37 48 C37.67804687 48.7528125 38.35609375 49.505625 39.0546875 50.28125 C50.50725442 62.58050475 65.69550122 71.27911635 80.015625 79.81152344 C82.84562328 81.50645843 85.64508538 83.24371817 88.4375 85 C89.26121094 85.515625 90.08492187 86.03125 90.93359375 86.5625 C92.85686308 87.90042649 94.41227045 89.28463946 96 91 C91.34258409 89.56915026 87.03147418 87.68340658 82.6875 85.5 C82.05521484 85.19191406 81.42292969 84.88382813 80.77148438 84.56640625 C76.12210379 82.24420759 76.12210379 82.24420759 75 80 C73.30590906 79.30243314 71.61096558 78.60680347 69.91015625 77.92578125 C67.90121331 76.95212179 66.4306963 75.83665819 64.75 74.375 C62.17564351 71.84702017 62.17564351 71.84702017 59 71 C58.67 70.34 58.34 69.68 58 69 C57.01 68.46375 56.02 67.9275 55 67.375 C48.03809252 63.55024836 42.56852367 57.56852367 37 52 C36.20851563 51.3915625 35.41703125 50.783125 34.6015625 50.15625 C32.02652775 48.02198697 30.15628162 45.89656609 28.125 43.25 C24.99640675 39.22327446 21.73258357 35.41497216 18.25 31.69140625 C17 30 17 30 17 27 C16.13181641 26.71189453 16.13181641 26.71189453 15.24609375 26.41796875 C12.06675634 24.41083922 10.76693997 21.54976393 9.0625 18.3125 C6.89298123 14.32727651 4.77170138 10.4837394 2 6.875 C0 4 0 4 0 0 Z " fill="#262626" transform="translate(986,1914)"/>
<path d="M0 0 C5.35855879 0.47123004 8.75442187 1.69948559 13.25 4.625 C13.80067139 4.97820312 14.35134277 5.33140625 14.91870117 5.6953125 C16.05437174 6.42495601 17.18679549 7.15967781 18.31591797 7.89941406 C20.96267736 9.62913156 23.64006218 11.31032964 26.3125 13 C27.87564763 13.99898736 29.43840999 14.99857956 31 16 C30.34 16.33 29.68 16.66 29 17 C26.28181898 15.82872722 23.68999636 14.59956717 21.0625 13.25 C19.96905273 12.70859375 19.96905273 12.70859375 18.85351562 12.15625 C13.38256597 9.38818015 13.38256597 9.38818015 11.48608398 7.46386719 C9.86742384 5.69158057 9.86742384 5.69158057 6.5 4.5 C3.50635808 3.21701061 1.99354875 2.46261904 0 0 Z " fill="#232323" transform="translate(1051,1988)"/>
<path d="M0 0 C2.64752004 2.57784846 4.94432065 4.91648098 7 8 C5.1875 7.8125 5.1875 7.8125 3 7 C0 2.82142857 0 2.82142857 0 0 Z " fill="#2B2B2B" transform="translate(1007,1945)"/>
<path d="M0 0 C2.31 0.33 4.62 0.66 7 1 C7.33 2.32 7.66 3.64 8 5 C4.62496331 3.8141763 2.35277269 2.72426311 0 0 Z " fill="#1F1F1F" transform="translate(1051,1988)"/>
</svg>
